<svg xmlns="http://www.w3.org/2000/svg" xmlns:xlink="http://www.w3.org/1999/xlink" width="47.869" height="45" viewBox="0 0 47.869 45">
  <defs>
    <clipPath id="clip-path">
      <rect id="사각형_1708" data-name="사각형 1708" width="47.869" height="45" fill="#529bff"/>
    </clipPath>
  </defs>
  <g id="그룹_1083" data-name="그룹 1083" transform="translate(0 0)">
    <g id="그룹_1082" data-name="그룹 1082" transform="translate(0 0)" clip-path="url(#clip-path)">
      <path id="패스_3692" data-name="패스 3692" d="M41.037,30.7a17.414,17.414,0,0,0,.277-2.972h5.831V24.236H41.317v-.315a17.406,17.406,0,0,0-.2-2.659H43.7L47.869,17.1,45.4,14.628l-3.14,3.139H40.189A17.478,17.478,0,0,0,33.5,9.416V8.428A8.438,8.438,0,0,0,25.072,0H22.8A8.437,8.437,0,0,0,14.37,8.428v.988a17.475,17.475,0,0,0-6.689,8.351H5.611L2.471,14.628,0,17.1l4.164,4.163H6.755a17.406,17.406,0,0,0-.2,2.659v.315H.723v3.495H6.555A17.355,17.355,0,0,0,6.832,30.7H4.164L0,34.867l2.471,2.471L5.611,34.2H7.849a17.377,17.377,0,0,0,32.171,0h2.238l3.14,3.14,2.471-2.471L43.7,30.7ZM22.8,3.495h2.274a4.938,4.938,0,0,1,4.859,4.11,17.389,17.389,0,0,0-11.992,0A4.938,4.938,0,0,1,22.8,3.495m2.885,37.9V12.509h-3.5V41.392a13.906,13.906,0,0,1-12.14-13.774v-3.7a13.888,13.888,0,1,1,27.776,0v3.7A13.906,13.906,0,0,1,25.682,41.392" transform="translate(0 0)" fill="#529bff"/>
    </g>
  </g>
</svg>
