<svg xmlns="http://www.w3.org/2000/svg" xmlns:xlink="http://www.w3.org/1999/xlink" width="49.199" height="50.303" viewBox="0 0 49.199 50.303">
  <defs>
    <clipPath id="clip-path">
      <rect id="사각형_1707" data-name="사각형 1707" width="49.199" height="50.303" transform="translate(0 0)" fill="#529bff"/>
    </clipPath>
  </defs>
  <g id="그룹_1073" data-name="그룹 1073" clip-path="url(#clip-path)">
    <path id="패스_3685" data-name="패스 3685" d="M24.07,26.452A7.164,7.164,0,0,1,16.914,19.3V16.554a7.156,7.156,0,0,1,14.313,0V19.3a7.165,7.165,0,0,1-7.157,7.157m0-13.806a3.913,3.913,0,0,0-3.908,3.908V19.3a3.909,3.909,0,1,0,7.817,0V16.554a3.913,3.913,0,0,0-3.909-3.908" transform="translate(-4.706 -2.615)" fill="#529bff"/>
    <path id="패스_3686" data-name="패스 3686" d="M33.264,30.677a1.619,1.619,0,0,1-1.148-.476l-4.67-4.67a1.624,1.624,0,0,1,2.3-2.3l4.67,4.67a1.624,1.624,0,0,1-1.148,2.772" transform="translate(-7.505 -6.333)" fill="#529bff"/>
    <path id="패스_3687" data-name="패스 3687" d="M33.5,64.559H9.265a3.919,3.919,0,0,1-3.912-3.912V55.14a3.916,3.916,0,0,1,3.91-3.911H40.981a2.368,2.368,0,0,1,.337.027,1.516,1.516,0,0,1,.707.245l7.91,5.023a1.624,1.624,0,0,1,0,2.742l-7.91,5.023a1.626,1.626,0,0,1-.753.248,1.849,1.849,0,0,1-.291.022Zm0-10.083H9.265a.665.665,0,0,0-.664.664v5.5a.666.666,0,0,0,.665.665H40.655l5.38-3.417-5.381-3.417Z" transform="translate(-1.49 -14.255)" fill="#529bff"/>
    <path id="패스_3688" data-name="패스 3688" d="M18.04,64.534h0a1.624,1.624,0,0,1-1.624-1.624v-10a1.624,1.624,0,0,1,3.248,0v10a1.624,1.624,0,0,1-1.624,1.624" transform="translate(-4.568 -14.27)" fill="#529bff"/>
    <path id="패스_3689" data-name="패스 3689" d="M53.1,64.534a1.624,1.624,0,0,1-1.624-1.624v-10a1.624,1.624,0,0,1,3.248,0v10A1.624,1.624,0,0,1,53.1,64.534" transform="translate(-14.324 -14.27)" fill="#529bff"/>
    <path id="패스_3690" data-name="패스 3690" d="M36.4,61.46H18.5a1.624,1.624,0,1,1,0-3.248H36.4a1.624,1.624,0,1,1,0,3.248" transform="translate(-4.696 -16.198)" fill="#529bff"/>
    <path id="패스_3691" data-name="패스 3691" d="M19.794,35.8a1.625,1.625,0,0,1-1.368-2.5L21.807,28a1.625,1.625,0,0,1,1.369-.751h8.543a4.629,4.629,0,0,0,4.624-4.623V7.872a4.629,4.629,0,0,0-4.624-4.624H7.872A4.629,4.629,0,0,0,3.248,7.872V22.627a4.629,4.629,0,0,0,4.624,4.623h8.543a1.624,1.624,0,1,1,0,3.248H7.872A7.88,7.88,0,0,1,0,22.627V7.872A7.881,7.881,0,0,1,7.872,0H31.718A7.881,7.881,0,0,1,39.59,7.872V22.627A7.88,7.88,0,0,1,31.718,30.5H24.066l-2.9,4.548a1.622,1.622,0,0,1-1.371.751" transform="translate(0 0)" fill="#529bff"/>
  </g>
</svg>
