<svg xmlns="http://www.w3.org/2000/svg" xmlns:xlink="http://www.w3.org/1999/xlink" width="451.907" height="300.212" viewBox="0 0 451.907 300.212">
  <defs>
    <clipPath id="clip-path">
      <rect id="사각형_1676" data-name="사각형 1676" width="451.907" height="300.212" transform="translate(0 0)" fill="none"/>
    </clipPath>
  </defs>
  <g id="그룹_1013" data-name="그룹 1013" transform="translate(0 0.002)">
    <g id="그룹_1012" data-name="그룹 1012" transform="translate(0 -0.002)" clip-path="url(#clip-path)">
      <path id="패스_3398" data-name="패스 3398" d="M974.163,24.134a.519.519,0,0,1-.519-.508l-.5-23.1a.519.519,0,0,1,.508-.53h.011a.519.519,0,0,1,.518.508l.5,23.1a.519.519,0,0,1-.508.53h-.011" transform="translate(-739.454 0.002)" fill="#63230d"/>
      <path id="패스_3399" data-name="패스 3399" d="M1069.282,69.569a.519.519,0,0,1-.367-.886l12.523-12.523a.519.519,0,0,1,.734.734l-12.522,12.523a.518.518,0,0,1-.367.152" transform="translate(-812.108 -42.558)" fill="#63230d"/>
      <path id="패스_3000" data-name="패스 3000" d="M1103.447,188.674a.519.519,0,0,1-.126-1.022l16.192-4.077a.519.519,0,1,1,.253,1.006l-16.192,4.077a.529.529,0,0,1-.127.016" transform="translate(-838.069 -139.479)" fill="#63230d"/>
      <path id="패스_3001" data-name="패스 3001" d="M1111.423,307.9a.517.517,0,0,1-.311-.1l-10.239-7.659a.519.519,0,1,1,.621-.831l10.24,7.659a.519.519,0,0,1-.311.934" transform="translate(-836.35 -227.354)" fill="#63230d"/>
      <path id="패스_3002" data-name="패스 3002" d="M865.354,67.11a.517.517,0,0,1-.367-.152L852.216,54.187a.519.519,0,1,1,.734-.734l12.772,12.772a.519.519,0,0,1-.367.886" transform="translate(-647.448 -40.501)" fill="#63230d"/>
      <path id="패스_3003" data-name="패스 3003" d="M818.666,188.584a.528.528,0,0,1-.127-.016l-16.514-4.158a.519.519,0,1,1,.253-1.006l16.514,4.158a.519.519,0,0,1-.126,1.022" transform="translate(-609.127 -139.348)" fill="#63230d"/>
      <path id="패스_3004" data-name="패스 3004" d="M836.537,307.9a.519.519,0,0,1-.311-.934l10.239-7.659a.519.519,0,0,1,.622.831L836.848,307.8a.517.517,0,0,1-.31.1" transform="translate(-635.255 -227.354)" fill="#63230d"/>
      <path id="패스_3005" data-name="패스 3005" d="M624.86,229.227l-8.041-2.353-6.5,5.29-.247-8.374-7.039-4.544,7.888-2.823,2.146-8.1,5.122,6.63,8.365-.461-4.722,6.92Z" transform="translate(-458.223 -158.297)" fill="#fff"/>
      <path id="패스_3006" data-name="패스 3006" d="M1268.228,121.722l-5.354-6.444-8.343.757,4.474-7.083-3.3-7.7,8.119,2.066,6.3-5.517.544,8.36,7.2,4.291-7.783,3.1Z" transform="translate(-953.265 -74.314)" fill="#fff"/>
      <path id="패스_3007" data-name="패스 3007" d="M973.458,163.577c0-6.961,4.844-1.132,4.319-2.394-.24-.576,7.223,20.119,6.9,22.863a94.1,94.1,0,0,0,.268,12.687c.33,3.551,2.018,3.087.7,5.024-11.591,16.989-7.289-14.3-7.328-16.6s-4.851-21.578-4.851-21.578" transform="translate(-739.69 -121.645)" fill="#f7e5d7"/>
      <path id="패스_3008" data-name="패스 3008" d="M991.482,203.5a.518.518,0,0,1-.211-.045,22.962,22.962,0,0,1-4.39-2.7c-2.908-2.3-4.355-4.827-4.184-7.316.429-6.234-.279-14.544-2.438-17.664-1.419-2.05-2.895-6.649-4.2-10.707-.874-2.723-1.95-6.076-2.5-6.74-.908.411-1.753,1.446-.982,5.16l.481,2.315c1.581,7.6,1.581,7.6,1.473,9.637-.036.665-.084,1.576-.085,3.093a.519.519,0,0,1-.519.518h0a.519.519,0,0,1-.518-.519c0-1.544.051-2.47.086-3.147.1-1.905.1-1.905-1.452-9.37l-.481-2.315c-.474-2.284-.8-5.434,1.8-6.412a.727.727,0,0,1,.578.033c.781.378,1.473,2.339,3.107,7.431,1.28,3.989,2.731,8.51,4.062,10.434,2.591,3.744,2.987,13.011,2.621,18.326-.359,5.221,7.878,8.961,7.961,9a.519.519,0,0,1-.212.993" transform="translate(-738.002 -119.483)" fill="#63230d"/>
      <path id="패스_3009" data-name="패스 3009" d="M993.366,194.241a.526.526,0,0,1-.1-.01.519.519,0,0,1-.411-.608,30.009,30.009,0,0,0-1.219-14.289c-1.3-3.515-2.459-6.783-3.389-9.409-.957-2.7-1.713-4.836-2.108-5.769-.224-.53-.447-.743-.57-.765a.4.4,0,0,0-.272.134.523.523,0,0,1-.73.04.515.515,0,0,1-.051-.723,1.411,1.411,0,0,1,1.211-.477c.555.087,1.014.553,1.367,1.386.407.962,1.13,3,2.13,5.827.929,2.623,2.085,5.887,3.384,9.4a30.5,30.5,0,0,1,1.265,14.847.519.519,0,0,1-.509.42" transform="translate(-748 -123.364)" fill="#63230d"/>
      <path id="패스_3410" data-name="패스 3410" d="M1016.184,245.765a.526.526,0,0,1-.1-.01.519.519,0,0,1-.411-.608,30.005,30.005,0,0,0-1.219-14.289.519.519,0,1,1,.973-.36,30.5,30.5,0,0,1,1.265,14.847.519.519,0,0,1-.509.42" transform="translate(-770.818 -174.888)" fill="#63230d"/>
      <path id="패스_3411" data-name="패스 3411" d="M982.144,263.36a118.047,118.047,0,0,0-8.547-11.375c-4.093-4.594-1.016-11.365-.453-13.78s-.645-9.43-.843-10.828a5.044,5.044,0,0,1,.57-3.374.984.984,0,0,1,1.545-.186,6.791,6.791,0,0,1,1.752,4.331,44.363,44.363,0,0,0,2.42,10.8Z" transform="translate(-738.206 -169.846)" fill="#f7e5d7"/>
      <path id="패스_3412" data-name="패스 3412" d="M980.513,262.237a.519.519,0,0,1-.434-.234,118.206,118.206,0,0,0-8.5-11.315c-3.66-4.108-1.906-9.817-.963-12.884.166-.54.309-1.007.392-1.359.472-2.027-.409-7.746-.74-9.9-.049-.317-.088-.57-.112-.74a5.585,5.585,0,0,1,.637-3.71,1.5,1.5,0,0,1,2.359-.288,7.483,7.483,0,0,1,1.9,4.64,38.142,38.142,0,0,0,1.87,9c.186.572.363,1.113.534,1.715a.519.519,0,1,1-1,.284c-.166-.584-.339-1.115-.523-1.678a39.51,39.51,0,0,1-1.914-9.21,6.6,6.6,0,0,0-1.6-4.022.47.47,0,0,0-.394-.136.448.448,0,0,0-.336.22,4.578,4.578,0,0,0-.5,3.038c.024.167.062.415.11.727.372,2.415,1.242,8.07.725,10.292-.09.388-.238.871-.41,1.429-.945,3.073-2.526,8.217.746,11.888a119.53,119.53,0,0,1,8.593,11.435.519.519,0,0,1-.433.8" transform="translate(-736.575 -168.203)" fill="#63230d"/>
      <path id="패스_3413" data-name="패스 3413" d="M1390.34,393.989a1.187,1.187,0,0,0-.035-.536c-.78-2.922.418-10.173.418-10.173l-.375-3.9-2.718-.322-8.443-18.043-11.6-14.572-12.16.619,1.735.488c-.5-.046-6.124,1.1-7.159,10.041s-1.629,11.463-4.385,13.031,1.254,5.2,1.254,5.2.177,3.893.59,3.923,6.21-.279,6.21-.279-.6,4.62-4.525,5.15c-2.267.229-1.324,8.166.457,8.755s13.166-.44,14.128.8.712,12.88.712,12.88l5.183,8.879,12.446-7.464,9.471-7.873Z" transform="translate(-1021.741 -263.249)" fill="#f7e5d7"/>
      <path id="패스_3414" data-name="패스 3414" d="M1369.211,314.19a4.667,4.667,0,0,1-2.239-4.578c.323-3.228,1.438-6.64,7.035-8.234s15.055-7.12,23.992-3.846a48.537,48.537,0,0,1,10.284,2.831s6.792,2.721,8.164,5.7a6.045,6.045,0,0,1,0,5.327,24.476,24.476,0,0,1,3.063,4.144c.719,1.548,3.022,11.339-2.976,20.8-7.568,8.674-9.026,9.386-9.026,9.386s-2.435,1.07-6.635-1.7-3.758-6.134-3.758-6.134,1.826-2.4,1.621-4.165.442-4.137-1.607-3.923-5.074.982-8.532-1.078c-4.666-2.779-3.237-8.616-3.768-11.095a5.255,5.255,0,0,0-6.124-4.178c-3.092.708-8.2,1.893-9.494.748" transform="translate(-1038.683 -225.308)" fill="#e1a69b"/>
      <path id="패스_3415" data-name="패스 3415" d="M1356.6,486.99a.519.519,0,0,1-.065-1.034,5.308,5.308,0,0,0,4.7-4.674c-5.351.429-5.495.413-5.55.406a.519.519,0,0,1,.077-1.034c.315-.005,3.76-.275,6.016-.456a.519.519,0,0,1,.561.534c0,.056-.241,5.561-5.673,6.255a.511.511,0,0,1-.066,0" transform="translate(-1029.779 -364.881)" fill="#63230d"/>
      <path id="패스_3416" data-name="패스 3416" d="M1791.239,1060.483c-.3.442.405,10.618-3.754,16.192,0,0-2.759,8.229-1.424,11.414s2.163,3.907,4.271.007.19-8.3,2.344-6.851.409,7.647,0,9.512-3.156,5.927-4.394,8.664,1.571,2.449,2.057,2.029,4.5-1.659,5.435-1.416,7.015-2.658,7.8-3.022,4.649-2.951,4.488-5.207-.587-8.984-.587-8.984l-2.072-8.79-2.767-10.12-2.389-3.429Z" transform="translate(-1356.877 -805.817)" fill="#f7e5d7"/>
      <path id="패스_3417" data-name="패스 3417" d="M1807.136,1188.9a.519.519,0,0,1-.131-1.021c2-.525,7.421-2.246,8.409-3.891a65.216,65.216,0,0,0,3.305-7.867.519.519,0,1,1,.979.345,64.489,64.489,0,0,1-3.395,8.056c-1.384,2.3-8.257,4.156-9.036,4.36a.521.521,0,0,1-.132.017" transform="translate(-1372.773 -893.422)" fill="#63230d"/>
      <path id="패스_3418" data-name="패스 3418" d="M1788.453,1115.427a1.486,1.486,0,0,1-.654-.153,1.437,1.437,0,0,1-.8-1.128c-.221-1.92,1.509-4.813,3.21-6.689,1.934-2.132,3.118-9.449,2.287-11.944-.118-.354-.272-.582-.412-.609a.666.666,0,0,0-.429,0,3.413,3.413,0,0,0-.244,1.461,13.805,13.805,0,0,1-1.1,5.086,6.953,6.953,0,0,1-1.7,2.52,1.977,1.977,0,0,1-2.056.323,2.061,2.061,0,0,1-1.282-1.716c-.3-3.121-.729-10.727,1.729-13.95,3.02-3.961,3.349-10.286,3.352-10.35a.519.519,0,1,1,1.036.048c-.012.272-.343,6.709-3.563,10.931-2.3,3.013-1.745,10.882-1.521,13.222a1.014,1.014,0,0,0,.639.854.955.955,0,0,0,1-.154,5.978,5.978,0,0,0,1.416-2.146,12.906,12.906,0,0,0,1.011-4.732c.064-1.047.11-1.8.644-2.217a1.5,1.5,0,0,1,1.262-.2c.543.1.947.542,1.2,1.3.945,2.837-.3,10.541-2.5,12.969-1.833,2.022-3.1,4.547-2.948,5.873a.4.4,0,0,0,.226.316.436.436,0,0,0,.42-.017,26.011,26.011,0,0,0,6.512-5.289c2.335-3.039,4.78-9.56,4.639-10.378a.508.508,0,0,1,.315-.653.529.529,0,0,1,.668.323c.458,1.262-2.592,8.469-4.8,11.34a27.019,27.019,0,0,1-6.8,5.546,1.469,1.469,0,0,1-.759.212" transform="translate(-1356.385 -818.965)" fill="#63230d"/>
      <path id="패스_3419" data-name="패스 3419" d="M1814.37,1194.986a3.372,3.372,0,0,1-.7-.05.551.551,0,0,1-.436-.561c.026-.464.512-.537.746-.572a.515.515,0,0,1,.452.155c1.821-.016,7.474-.754,9.038-3.9,1.688-3.391,2.365-5.214,2.371-5.232a.519.519,0,0,1,.974.359c-.028.075-.7,1.886-2.416,5.335-1.834,3.686-7.876,4.461-10.031,4.462" transform="translate(-1377.802 -900.045)" fill="#63230d"/>
      <path id="패스_3420" data-name="패스 3420" d="M1854.212,1101.8a.519.519,0,0,1-.223-.987c.038-.018,3.81-1.853,5.087-5.241,1.365-3.621-1.534-14.512-4.619-25.356a.526.526,0,0,1-.016-.075l-.552-4.2a.519.519,0,1,1,1.029-.135l.547,4.164c3.259,11.454,6.059,22.053,4.582,25.97-1.427,3.785-5.442,5.731-5.612,5.812a.517.517,0,0,1-.223.051" transform="translate(-1408.544 -809.515)" fill="#63230d"/>
      <path id="패스_3421" data-name="패스 3421" d="M1342.97,1039.921s-3.8-4.264-1.1,18.881,8,59.622,8,59.622,2.13,7.443,2.425,7.5,13.647,2.773,33.132-.236l-.838-19.408-.5-9.084,7.256,15.676s5.368,13.464,5.722,13.523a117.564,117.564,0,0,0,35.334-.472l-1.176-27.3-2.069-23.02-5.486-28.138-1.769-10.323s-8.436,9.5-12.152,10.736-66.775-7.964-66.775-7.964" transform="translate(-1018.895 -788.086)" fill="#c1c1c1"/>
      <path id="패스_3422" data-name="패스 3422" d="M1686.139,1126.336a.519.519,0,0,1-.518-.5c-.913-30.3-3.9-52.656-6.237-66.073a189.521,189.521,0,0,0-4.913-22.078.519.519,0,0,1,.989-.315,190.343,190.343,0,0,1,4.94,22.183c2.35,13.455,5.343,35.872,6.258,66.253a.519.519,0,0,1-.5.534h-.016" transform="translate(-1272.342 -787.976)" fill="#63230d"/>
      <path id="패스_3423" data-name="패스 3423" d="M1518.84,1306.123a.519.519,0,0,1-.517-.484l-2.149-31.474a.519.519,0,1,1,1.035-.071l2.149,31.474a.518.518,0,0,1-.482.553h-.036" transform="translate(-1152.077 -967.763)" fill="#63230d"/>
      <path id="패스_3424" data-name="패스 3424" d="M1002.3,330.606s-2.621-4.693-4.612-3.971-12.1,9.55-11.494,10.408,9.463,13.074,9.463,13.074,21.926,31.1,27.63,32.773,37.419,23.029,37.419,23.029,1.712,1.534,1.323,5.438,3.239,30.482,3.239,35.686,2.5,32.318,3.329,36.989,1.342,15.975.29,17.578,3.4,6.2,10.819,7.483,27.327,10.048,48.563,3.677c0,0,12.536-3.672,16.134-8.251s10.83-5.995,9.381-12.277-4.129-3.572-5.089-11.7-3.916-22.3-3.916-22.3-2.226-15.044-1.538-16.891l10.224,10.206s11.823,10.722,13.045,15.792,13.078,38.075,14.582,39.933,13.475,1.078,16.25-3.62c0,0,1.545-.444.08-3.942s-5.494-22.841-5.494-22.841-7.712-29.956-11.088-33.179-7.755-14.511-11.361-18.468-12.656-24.454-18-29.513-7.038-7.315-10.924-7.514-19.459-5.152-19.459-5.152-.25-3.263-1.275-4.39c-1.553,3.5-15.356,12.155-20.615,18.071-1.532.862-4.571-2.219-4.571-2.219L1093.088,384l-1.649-4.935a94.435,94.435,0,0,1-10.449-.205c-12.008-2.668-50.033-14.338-50.033-14.338l-9.089-9.2s-19-23.6-19.572-24.712" transform="translate(-749.345 -248.139)" fill="#fff"/>
      <path id="패스_3425" data-name="패스 3425" d="M1414.613,610.673s-.872-1.963-2.425-.7-1.73,2.141-.265,3.923,3.156,3.982,3.893,3.068.372-3.908-.053-4.513-1.149-1.782-1.149-1.782" transform="translate(-1072.097 -463.172)" fill="#e59791"/>
      <path id="패스_3426" data-name="패스 3426" d="M1462.453,633.638c-.154.01-3.87.561-3.87.561l-1.475,2.753a4.39,4.39,0,0,0,2.17,1c.868-.059,3.788-.656,3.788-.656l-.472-3.661Z" transform="translate(-1107.196 -481.475)" fill="#e59791"/>
      <path id="패스_3427" data-name="패스 3427" d="M1063.247,409.31a.518.518,0,0,1-.459-.277c-2.556-4.857-37.154-24.843-43.322-28.052-5.961-3.1-31-38.005-35.955-44.971a1.376,1.376,0,0,1,.065-1.681c1.752-2.092,7.837-9.016,12.578-10.314a2.148,2.148,0,0,1,2.325.843c13.2,18.957,28,38,31.291,37.805,5.345-.308,41.609,10.856,43.15,11.331a.519.519,0,1,1-.306.992c-.37-.114-36.662-11.293-42.566-11.293-.078,0-.15,0-.218.006-1.449.086-4.735-1.584-16.651-16.981-6.861-8.864-13.638-18.519-15.551-21.267a1.109,1.109,0,0,0-1.2-.435c-4.451,1.219-10.353,7.946-12.057,9.979a.339.339,0,0,0-.016.413c2.042,2.869,9.3,13.011,16.95,23.066,12.374,16.265,16.966,20.716,18.639,21.587,4.78,2.486,40.888,23.03,43.761,28.489a.519.519,0,0,1-.459.761" transform="translate(-747.135 -246.146)" fill="#63230d"/>
      <path id="패스_3428" data-name="패스 3428" d="M1347.654,767.619c-12.465,0-24.15-3.4-32.059-5.7-12.432-3.615-12.562-5.778-11.682-9.944a14.245,14.245,0,0,0,.417-4.237c-.525-6.819-7.933-88.187-8.009-89.008a.519.519,0,0,1,1.034-.094c.075.821,7.484,82.2,8.009,89.022a15.1,15.1,0,0,1-.436,4.531c-.735,3.48-1.1,5.226,10.957,8.733,14.09,4.1,40.316,11.721,61.13-3.049,14.022-9.95,12.867-11.8,10.077-16.273a23.275,23.275,0,0,1-3.381-7.591c-2.567-11.295-6.779-36.207-5.686-41.4a.519.519,0,1,1,1.015.214c-.459,2.179.058,8.542,1.454,17.916,1.164,7.814,2.824,16.857,4.229,23.038a22.382,22.382,0,0,0,3.249,7.271c1.478,2.369,2.645,4.241,1.413,6.88-1.192,2.554-4.712,5.78-11.77,10.789-9.45,6.705-19.957,8.9-29.961,8.9" transform="translate(-985.019 -500.113)" fill="#63230d"/>
      <path id="패스_3429" data-name="패스 3429" d="M1622.937,688.879a30.912,30.912,0,0,1-6.016-.69c-.368-.072-.75-.147-.847-.149-.719,0-1.112-.693-8.035-20.576-3.586-10.3-8.044-23.1-8.972-24.1-2.014-1.26-24.584-25.83-27.174-28.653a.519.519,0,0,1,.765-.7c10.148,11.06,25.7,27.766,26.929,28.458.875.438,3.124,6.541,9.432,24.66,3.04,8.732,6.474,18.593,7.29,19.9.177.025.426.072.811.148,11.839,2.325,14.511-2.418,15.4-4.232-.64-3.231-10.133-50.59-18.472-61.961-3.286-4.482-7.575-11.831-12.117-19.612-7.339-12.574-15.656-26.827-20.365-29.616-7.528-4.461-21.815-7.1-21.959-7.123a.519.519,0,1,1,.186-1.021c.593.108,14.613,2.694,22.3,7.251,4.94,2.927,12.968,16.683,20.732,29.986,4.527,7.757,8.8,15.083,12.057,19.522,8.728,11.9,18.285,60.483,18.688,62.545a.521.521,0,0,1-.042.325c-2.21,4.568-6.7,5.644-10.594,5.644m-23.819-45.489h0" transform="translate(-1184.758 -428.254)" fill="#63230d"/>
      <path id="패스_3430" data-name="패스 3430" d="M1463.294,563.294a1.885,1.885,0,0,1-1.674-1.118,27.624,27.624,0,0,1-.988-3.22c-.282-1-.633-2.254-.723-2.447a2.339,2.339,0,0,0-1.363-1.295,4.313,4.313,0,0,0-2.85.315.519.519,0,0,1-.741-.557c.356-1.96,2.61-4.51,13.479-12.362,7.182-5.188,7.306-6.945,7.174-7.36-.141-.442-1.008-.537-1.233-.539a.519.519,0,0,1,0-1.038c.673,0,1.9.265,2.219,1.256a1.553,1.553,0,0,1,.072.407.527.527,0,0,1,.1.157c2.407,5.663.138,9.2-1.519,11.785-.3.461-.575.9-.813,1.316-.225.4-.5.894-.812,1.463-3.528,6.4-7.526,13.226-10.328,13.235Zm-5.647-9.257a3.8,3.8,0,0,1,1.231.194,3.37,3.37,0,0,1,1.966,1.829c.115.238.327.98.787,2.616.308,1.1.773,2.757.9,3,.292.522.577.584.767.584h0c2.425-.007,7.328-8.9,9.422-12.7.316-.573.593-1.074.819-1.474.251-.444.538-.891.842-1.365,1.59-2.48,3.379-5.269,1.816-9.833-1.206,2.093-4.484,4.637-7.153,6.565-7.8,5.631-11.524,8.768-12.683,10.752a5.387,5.387,0,0,1,1.289-.167" transform="translate(-1105.554 -405.517)" fill="#63230d"/>
      <path id="패스_3431" data-name="패스 3431" d="M1397.982,567.285a.868.868,0,0,1-.242-.035c-.634-.181-.844-1.017-.976-1.894-.889-5.908,6.516-16.852,6.832-17.315a.519.519,0,0,1,.857.584c-.075.11-7.492,11.068-6.663,16.576a3.742,3.742,0,0,0,.244.992,7.566,7.566,0,0,0,.868-.922c1.139-1.333,2.862-3.348,5.313-2.583a25.237,25.237,0,0,1,5.313,2.415.519.519,0,0,1-.552.879,24.636,24.636,0,0,0-5.07-2.3c-1.8-.56-3.139,1.006-4.216,2.266-.651.762-1.144,1.339-1.709,1.339m.108-1h0Z" transform="translate(-1061.287 -416.261)" fill="#63230d"/>
      <path id="패스_3432" data-name="패스 3432" d="M1436.709,590.686a.518.518,0,0,1-.414-.206c-4.457-5.9-3.369-9.732-3.32-9.892a.519.519,0,0,1,.994.3c-.016.057-.938,3.553,3.154,8.969a.519.519,0,0,1-.414.832" transform="translate(-1088.743 -440.884)" fill="#63230d"/>
      <path id="패스_3433" data-name="패스 3433" d="M1433.035,615.991c-.62,0-1.3-.062-2.072-.132-.7-.063-1.487-.136-2.388-.176a6.487,6.487,0,0,1-5.251-3.116,9.578,9.578,0,0,1-1.277-2.894.519.519,0,0,1,1.013-.226c.047.208,1.178,5,5.563,5.2.925.041,1.727.115,2.436.179,2.067.189,3.206.292,4.34-.587a.519.519,0,1,1,.636.82,4.515,4.515,0,0,1-3,.933" transform="translate(-1080.545 -462.784)" fill="#63230d"/>
      <path id="패스_3434" data-name="패스 3434" d="M1430.589,622.36c.352-.036,3.29-2.34,8.277,1.515.064-.323-2.084,5.183-3.12,5.481,0,0-3.553.046-4.833-1.17s-.325-5.826-.325-5.826" transform="translate(-1086.785 -472.361)" fill="#e59791"/>
      <path id="패스_3435" data-name="패스 3435" d="M1434.008,628.279c-.7,0-3.785-.072-5.091-1.314-1.447-1.376-.579-5.806-.475-6.307a.519.519,0,0,1,.4-.4c.036-.015.084-.039.145-.067,2.6-1.236,5.446-.694,8.468,1.609a.538.538,0,0,1,.283.581.52.52,0,0,1-.1.214c-.041.088-.108.243-.2.445-1.573,3.588-2.438,5-3.192,5.22a.525.525,0,0,1-.136.02h-.106m-4.6-7.141c-.335,1.8-.474,4.408.227,5.075.891.846,3.36,1.027,4.367,1.028.253-.164.914-1.015,2.494-4.62l.081-.184c-3.9-2.852-6.33-1.7-7.143-1.311l-.026.012m-.508-.891h0Z" transform="translate(-1085.145 -470.766)" fill="#63230d"/>
      <path id="패스_3436" data-name="패스 3436" d="M1414,622.866a.517.517,0,0,1-.08-.006c-2.518-.388-4.466-4.991-4.68-5.515a.519.519,0,0,1,.961-.392c.521,1.272,2.231,4.628,3.877,4.881a.519.519,0,0,1-.078,1.032" transform="translate(-1070.791 -468.551)" fill="#63230d"/>
      <path id="패스_3437" data-name="패스 3437" d="M1461.449,647.672a10.929,10.929,0,0,1-2.426-.284.519.519,0,0,1,.253-1.006c.03.008,2.97.726,4.537-.286a.519.519,0,1,1,.563.871,5.465,5.465,0,0,1-2.928.705" transform="translate(-1108.354 -490.877)" fill="#63230d"/>
      <path id="패스_3438" data-name="패스 3438" d="M1426.048,648.883s-5.6,38.24,1.041,62.4,14.452,37.428,14.452,37.428,7.051-12.476,4.4-26.81c-2.668-14.408-16.309-37.082-14.791-72.039Z" transform="translate(-1081.919 -493.059)" fill="#e59791"/>
      <path id="패스_3439" data-name="패스 3439" d="M1439.9,747.584a.52.52,0,0,1-.448-.256c-.078-.133-7.925-13.609-14.5-37.554-1.9-6.923-3.972-19.555-3.027-40.417.564-12.461,1.959-22.1,1.973-22.191a.519.519,0,0,1,.611-.434l5.1.975a.518.518,0,0,1,.421.532c-1.069,24.6,5.466,43.281,10.238,56.923,2.014,5.759,3.754,10.731,4.544,15,2.658,14.354-4.383,27.034-4.455,27.16a.519.519,0,0,1-.448.264Zm-15.054-99.731c-.3,2.188-1.4,10.818-1.889,21.562-.937,20.72,1.11,33.235,2.992,40.084,5.622,20.461,12.155,33.2,13.933,36.468,1.478-3.019,6.1-13.737,3.9-25.618-.776-4.189-2.5-9.127-4.5-14.845-4.771-13.638-11.293-32.287-10.314-56.863Z" transform="translate(-1080.281 -491.417)" fill="#63230d"/>
      <path id="패스_3440" data-name="패스 3440" d="M1348.592,1152.251a.518.518,0,0,1-.437-.24c-3.211-5.025-8.174-49.243-10.56-70.492-.576-5.131-1.034-9.2-1.138-9.7a.519.519,0,0,1,.752-.631c.266.161.266.161.607,3.08.2,1.708.475,4.156.81,7.14,2.191,19.518,7.322,65.226,10.4,70.049a.519.519,0,0,1-.437.8m-11.921-80.179h0m0,0h0m-.07-.052a.5.5,0,0,0,.07.052.473.473,0,0,1-.07-.052" transform="translate(-1015.491 -813.891)" fill="#63230d"/>
      <path id="패스_3441" data-name="패스 3441" d="M1507.92,1259.51a.519.519,0,0,1-.485-.335c-4.842-12.733-18.338-44.075-19.768-45.928a.519.519,0,0,1,.14-.949c.514-.127.669-.171,3.348,5.662,1.482,3.229,3.461,7.707,5.722,12.952,4.668,10.828,9.3,22.037,11.528,27.894a.519.519,0,0,1-.485.7" transform="translate(-1130.224 -921.15)" fill="#63230d"/>
      <path id="패스_3442" data-name="패스 3442" d="M1475.845,1043.293a.518.518,0,0,1-.136-.018,5.174,5.174,0,0,1-3.422-2.829c-1.372-2.807-.68-6.67.12-8.581,1.111-2.655.008-9.988,0-10.062a.519.519,0,0,1,1.026-.157c.048.313,1.157,7.7-.065,10.619-.7,1.67-1.356,5.245-.145,7.725a4.176,4.176,0,0,0,2.762,2.283.519.519,0,0,1-.136,1.02" transform="translate(-1118.135 -775.971)" fill="#63230d"/>
      <path id="패스_3443" data-name="패스 3443" d="M1367.392,376.158a.519.519,0,0,1-.519-.519c0-2.775,1.506-6.031,2.278-6.031a.532.532,0,0,1,.525.529.518.518,0,0,1-.237.436,9.488,9.488,0,0,0-1.528,5.067.519.519,0,0,1-.519.519" transform="translate(-1038.63 -280.849)" fill="#63230d"/>
      <path id="패스_3444" data-name="패스 3444" d="M1374.384,527.993a.519.519,0,0,1-.487-.339,12.926,12.926,0,0,1-.654-2.7c-.183-1.175-.267-1.523-.982-1.727-1.066-.3-3.437-.148-6.916.2-3.339.457-5.848-.1-7.442-1.652a6.605,6.605,0,0,1-1.761-5.089.519.519,0,0,1,1.031.114,5.645,5.645,0,0,0,1.461,4.239c1.354,1.314,3.571,1.772,6.588,1.358,7.963-.8,8.61-.406,9.045,2.4a12.057,12.057,0,0,0,.6,2.5.519.519,0,0,1-.486.7" transform="translate(-1030.458 -392.257)" fill="#63230d"/>
      <path id="패스_3445" data-name="패스 3445" d="M1375.286,404.365a.518.518,0,0,1-.4-.193c-1.864-2.313-5.093-.91-5.4-.767a.519.519,0,0,1-.844-.285c-.091-.421.3-.608.448-.679.041-.02,4.165-1.943,6.6,1.08a.519.519,0,0,1-.4.844m-5.631-1.465a.516.516,0,0,1-.013.267.508.508,0,0,0,.013-.267m0,0h0" transform="translate(-1039.963 -305.326)" fill="#63230d"/>
      <path id="패스_3446" data-name="패스 3446" d="M1371.569,422.842c.115-1.066.733-1.874,1.38-1.8s1.08.99.965,2.056-.733,1.874-1.38,1.8-1.08-.99-.965-2.057" transform="translate(-1042.184 -319.926)" fill="#63230d"/>
      <path id="패스_3447" data-name="패스 3447" d="M1472.573,452.844a.519.519,0,0,1-.4-.843c.161-.2,1.622-1.974,3.1-2.018a.519.519,0,0,1,.031,1.037c-.845.025-1.988,1.215-2.321,1.63a.519.519,0,0,1-.405.194" transform="translate(-1118.552 -341.923)" fill="#63230d"/>
      <path id="패스_3448" data-name="패스 3448" d="M1365.714,316.9h-.039a.519.519,0,0,1-.479-.556,6.6,6.6,0,0,0-.078-.756c-.239-1.82-.8-6.08,2.346-7.9.5-.291,1.015-.581,1.523-.869,2.5-1.418,5.615-3.182,5.7-4.18a.525.525,0,0,1,.563-.471.519.519,0,0,1,.471.562c-.129,1.467-2.449,2.852-6.225,4.992-.506.286-1.014.575-1.515.864-2.546,1.472-2.067,5.115-1.837,6.866a5.589,5.589,0,0,1,.084.967.519.519,0,0,1-.517.481" transform="translate(-1037.146 -229.604)" fill="#63230d"/>
      <path id="패스_3449" data-name="패스 3449" d="M1392.619,357.633l-.516-.052-.513-.074.513.074-.512-.086a4.913,4.913,0,0,1,3.131-4.1.519.519,0,1,1,.327.985,3.894,3.894,0,0,0-2.43,3.25" transform="translate(-1057.411 -268.512)" fill="#63230d"/>
      <path id="패스_3450" data-name="패스 3450" d="M1424.037,370.063a.519.519,0,0,1-.515-.462c-.355-3.222-4.345-3.7-4.515-3.719a.519.519,0,0,1,.112-1.032c1.723.185,5.077,1.393,5.435,4.637a.519.519,0,0,1-.459.573.5.5,0,0,1-.057,0" transform="translate(-1077.892 -277.232)" fill="#63230d"/>
      <path id="패스_3451" data-name="패스 3451" d="M1445.222,408.373h-.022c-2.049-.086-3.574-1.423-4.409-3.866a12.766,12.766,0,0,1-.634-3.535.519.519,0,0,1,1.038-.016c0,.062.148,6.216,4.049,6.38a.519.519,0,0,1-.022,1.037" transform="translate(-1094.315 -304.28)" fill="#63230d"/>
      <path id="패스_3452" data-name="패스 3452" d="M1573.959,355.928a4.074,4.074,0,0,1-.82-.08.519.519,0,0,1,.212-1.016c.1.02,2.242.427,2.846-1.351a.519.519,0,1,1,.982.334,3.187,3.187,0,0,1-3.22,2.112" transform="translate(-1195.05 -268.328)" fill="#63230d"/>
      <path id="패스_3453" data-name="패스 3453" d="M1346.312,432a.518.518,0,0,1-.3-.1c-1.992-1.411-1.867-2.836-1.615-3.56a2.559,2.559,0,0,1,1.168-1.349c2.625-1.505,2.763-5.69,2.764-5.732a.519.519,0,0,1,1.038.025c0,.2-.151,4.81-3.286,6.607a1.525,1.525,0,0,0-.7.791c-.277.8.138,1.6,1.235,2.372a.519.519,0,0,1-.3.942" transform="translate(-1021.446 -319.717)" fill="#63230d"/>
      <path id="패스_3454" data-name="패스 3454" d="M1466.984,444.609c-.058,0-.114,0-.166,0a.519.519,0,1,1,.06-1.036,7.6,7.6,0,0,0,6.862-6.952c.2-1.471-.029-2.493-.69-3.038-1.238-1.021-3.658-.213-3.682-.2a.519.519,0,0,1-.337-.982c.121-.042,2.989-1.005,4.676.384.959.789,1.316,2.129,1.061,3.983-.842,6.1-5.831,7.85-7.784,7.851" transform="translate(-1114.203 -328.279)" fill="#63230d"/>
      <path id="패스_3455" data-name="패스 3455" d="M1414.277,299.213a.519.519,0,0,1-.312-.934c.361-.271,8.992-6.583,22.766-2.707a.519.519,0,0,1-.281,1c-13.284-3.738-21.778,2.475-21.862,2.539a.518.518,0,0,1-.311.1" transform="translate(-1074.256 -223.638)" fill="#63230d"/>
      <path id="패스_3456" data-name="패스 3456" d="M1530.863,308.511a.519.519,0,0,1-.471-.738c.061-.445.528-5.227-5.106-6.871-6.529-1.9-8.225-5.664-8.294-5.823a.519.519,0,0,1,.952-.413c.015.032,1.609,3.482,7.633,5.24,4.375,1.276,5.508,4.336,5.794,6.046,0,.021.332,2.084-.2,2.464a.522.522,0,0,1-.3.1" transform="translate(-1152.666 -223.667)" fill="#63230d"/>
      <path id="패스_3457" data-name="패스 3457" d="M1495.5,476.1h-.016a7.026,7.026,0,0,1-7.064-6.369.519.519,0,0,1,1.034-.092,6.019,6.019,0,0,0,6.061,5.424.519.519,0,0,1-.015,1.038" transform="translate(-1130.99 -356.496)" fill="#63230d"/>
      <path id="패스_3458" data-name="패스 3458" d="M1534.911,401.079a.519.519,0,0,1-.342-.909c.285-.25.581-.507.885-.772,4.381-3.813,10.38-9.034,11.6-15.049,1.294-6.393-1.294-13.937-1.32-14.012a.519.519,0,0,1,.98-.342c.111.319,2.709,7.883,1.357,14.56-1.287,6.36-7.44,11.716-11.932,15.626l-.883.77a.516.516,0,0,1-.342.129" transform="translate(-1165.921 -280.879)" fill="#63230d"/>
      <path id="패스_3459" data-name="패스 3459" d="M1532.135,515.566a.519.519,0,0,1-.472-.3,14.718,14.718,0,0,1-.161-10.772.519.519,0,0,1,.961.392c-.021.051-2.049,5.161.143,9.948a.519.519,0,0,1-.471.735" transform="translate(-1162.992 -383.096)" fill="#63230d"/>
      <path id="패스_3460" data-name="패스 3460" d="M223.157,348.077s2.416-.894,2.8-2.278,1.688-10.586-1.9-13.167-9.646-5.382-14.889-5.874a81.555,81.555,0,0,0-11.47-.036s-15.1,1.677-21.2,9.989l-1.464,1.982s-6.735-7.023-13.342-4.536-12.86,22.144-12.86,22.144-6.046,19.466-18.8,24.244-18.528,20.78-12.722,31.8c0,0,2.414,8.192,3.653,7.484s1.389-6.842,3.8-8.789a38.694,38.694,0,0,1,11.417-7.2c6.164-2.512,8.55-5.216,9.612-6.454s8.887-6.509,11.237-22.858,3.851-30.442,14.549-28.493c0,0,.938-.274.125,5.35s1.045,13.27,3.649,17.258c3.266,5,16.583,5.23,16.583,5.23s-6.482-19.029,3-15.6c0,0,2.659,3.656,4.051,2.939,1.474-.76,7.964-3.364,8.052-11.195s3.763-14.4,7.184-14.8c5.6-.649,8.935,12.859,8.935,12.859" transform="translate(-87.417 -248.116)" fill="#f4e2ae"/>
      <path id="패스_3461" data-name="패스 3461" d="M928.133,161.68a7.531,7.531,0,0,0,2.387-1.5c.59-.766,2-.192,1.514,3.916s-4.086,17.916-3.761,19.625-.9,5.584-.029,4.571,2.484-9.243,3.49-11.406.606-1.6.294,1.7-.2,9.317-.354,10.913,2.809,11.442-1.4,13.785-4.684,6.036-6.513,5.918-6.548-5.663-6.548-5.663l1.9-2.832s2.384-3.657,1.431-12.329c-.405-3.686,1.885-13.281,2.31-14.456s4.8-11.978,5.284-12.241" transform="translate(-696.951 -121.493)" fill="#f7e5d7"/>
      <path id="패스_3462" data-name="패스 3462" d="M900.865,202.448a.519.519,0,0,1-.173-1.008c.072-.026,7.239-2.625,6.937-7.82-.309-5.319.187-14.581,2.818-18.3,1.352-1.908,2.851-6.413,4.173-10.388,1.689-5.076,2.4-7.028,3.187-7.4a.731.731,0,0,1,.578-.027c2.015.781,2.582,2.888,1.732,6.441-4.327,18.092-4.314,18.877-4.259,22.183l0,.149a.519.519,0,0,1-.51.527.527.527,0,0,1-.527-.511l0-.149c-.057-3.411-.07-4.222,4.287-22.441.956-4-.292-4.879-.927-5.162-.559.652-1.673,4-2.577,6.715-1.345,4.043-2.871,8.626-4.311,10.66-2.193,3.1-2.991,11.4-2.629,17.637.145,2.5-1.144,4.825-3.728,6.737a16.507,16.507,0,0,1-3.9,2.121.517.517,0,0,1-.173.03" transform="translate(-684.136 -119.649)" fill="#63230d"/>
      <path id="패스_3463" data-name="패스 3463" d="M932.934,263.01a118.027,118.027,0,0,1,8.981-11.036c4.267-4.432,2.422-12.032,1.953-14.468s.042-8.683.293-10.072a5.047,5.047,0,0,0-.439-3.393.984.984,0,0,0-1.537-.245,6.786,6.786,0,0,0-1.918,4.26,44.374,44.374,0,0,1-2.836,10.7Z" transform="translate(-708.898 -169.85)" fill="#f7e5d7"/>
      <path id="패스_3464" data-name="패스 3464" d="M931.292,261.886a.519.519,0,0,1-.422-.82,119.452,119.452,0,0,1,9.029-11.095c3.828-3.976,2.487-10.668,1.914-13.525-.036-.179-.068-.341-.1-.486-.481-2.5.018-8.75.292-10.263a4.581,4.581,0,0,0-.385-3.054.447.447,0,0,0-.327-.233.471.471,0,0,0-.4.121,6.6,6.6,0,0,0-1.758,3.957,39.469,39.469,0,0,1-2.269,9.13c-.2.555-.4,1.079-.587,1.656a.519.519,0,1,1-.986-.323c.195-.6.391-1.128.6-1.693a38.174,38.174,0,0,0,2.216-8.925,7.487,7.487,0,0,1,2.078-4.563,1.5,1.5,0,0,1,1.275-.385,1.484,1.484,0,0,1,1.072.764,5.587,5.587,0,0,1,.493,3.732c-.257,1.421-.745,7.539-.294,9.882.027.142.059.3.095.477.6,3.017,2.021,10.081-2.184,14.449a118.239,118.239,0,0,0-8.932,10.978.518.518,0,0,1-.423.217" transform="translate(-707.256 -168.207)" fill="#63230d"/>
      <path id="패스_3465" data-name="패스 3465" d="M929.649,194.285a.519.519,0,0,1-.51-.426,30.5,30.5,0,0,1,1.424-14.832c1.336-3.494,2.527-6.745,3.484-9.357,1.031-2.814,1.776-4.848,2.193-5.8.361-.829.826-1.29,1.382-1.371a1.406,1.406,0,0,1,1.206.489.519.519,0,0,1-.789.674c-.045-.05-.18-.151-.269-.136-.123.02-.348.231-.578.759-.405.929-1.184,3.055-2.17,5.747-.958,2.615-2.15,5.871-3.489,9.371a30.012,30.012,0,0,0-1.372,14.275.519.519,0,0,1-.417.6.5.5,0,0,1-.094.009" transform="translate(-705.75 -123.462)" fill="#63230d"/>
      <path id="패스_3466" data-name="패스 3466" d="M24.292,1062.453c-.265-.088-3.23-.026-4.955,8.105s-6.056,13.3-8.932,15.069S-.5,1097.8,2.328,1098.366l2.343-1.277s-4.439,8.365-.364,7.184,6.361-8.349,6.361-8.349-5.833,10.883-4.557,12.034,3.792-1.919,4.53-3.034,9.121-15.521,9.7-15.646-4.321,13.083-4.321,13.083-3.49,6.813-.349,5.974,6.872-8.625,6.872-8.625,5.641-12.621,7.683-13.543c0,0,1.734,11.136,4.958,9.568s.741-2.807.741-2.807-.392-5.916.426-8.35.347-2.238-.245-4.957-2.787-13.051-2.787-13.051l-4.822-3.8Z" transform="translate(-1.317 -807.303)" fill="#f7e5d7"/>
      <path id="패스_3467" data-name="패스 3467" d="M1.2,1162.583a1.135,1.135,0,0,1-1.027-.482c-.484-.754-.255-2.366,5.112-8.609,2.9-3.369,5.983-6.543,6.013-6.575a.519.519,0,0,1,.744.725c-7.2,7.394-11.292,12.936-11,13.885.067.022.371.079,1.258-.237a.519.519,0,0,1,.349.978,4.6,4.6,0,0,1-1.45.316m-.15-1.037h0Z" transform="translate(0 -871.375)" fill="#63230d"/>
      <path id="패스_3468" data-name="패스 3468" d="M124.741,1112a3.046,3.046,0,0,1-2.089-1.031c-2.932-2.841-2.966-10.118-2.966-10.427a.519.519,0,1,1,1.038,0c0,2.46.554,7.65,2.65,9.681.663.642,1.242.867,1.721.667a.973.973,0,0,0,.524-.538,1.123,1.123,0,0,0-.007-.856,12.244,12.244,0,0,1-.572-7.985,16.841,16.841,0,0,0,.36-5.054c-.256-2.488-2.452-13.089-2.474-13.2a.519.519,0,1,1,1.016-.211c.091.438,2.229,10.76,2.49,13.3a17.687,17.687,0,0,1-.371,5.346c-.423,2.323-.788,4.33.507,7.4a2.169,2.169,0,0,1,.012,1.653,2,2,0,0,1-1.085,1.1,1.938,1.938,0,0,1-.755.152" transform="translate(-90.944 -822.651)" fill="#63230d"/>
      <path id="패스_3469" data-name="패스 3469" d="M116.473,1153.25a.519.519,0,0,1-.4-.855,16.591,16.591,0,0,1,2.045-2.28.519.519,0,0,1,.578.86c-.168.157-1.055,1.177-1.832,2.092a.518.518,0,0,1-.4.183" transform="translate(-88.109 -873.868)" fill="#63230d"/>
      <path id="패스_3470" data-name="패스 3470" d="M25.468,1179.221a1.736,1.736,0,0,1-.319-.029,1.015,1.015,0,0,1-.839-.4c-.287-.361-1.159-1.461,1.99-8.207a81.46,81.46,0,0,0,4.019-10.089,66.892,66.892,0,0,0-4.573,6.891c-.259.451-.524.915-.794,1.388-2.617,4.593-5.324,9.342-7.716,9.894a1.9,1.9,0,0,1-1.529-.269.875.875,0,0,1-.378-.486c-.584-1.635,1.6-6.677,6.325-14.58l4.6-6.846a.519.519,0,0,1,.861.579l-4.584,6.823c-6.651,11.136-6.322,13.376-6.23,13.659a.872.872,0,0,0,.7.109c1.949-.45,4.776-5.41,7.047-9.4.27-.474.536-.94.8-1.392a67.49,67.49,0,0,1,5.343-7.9.828.828,0,0,1,1.447.735,76.079,76.079,0,0,1-4.4,11.322c-2.775,5.945-2.189,7.025-2.116,7.123a.524.524,0,0,1,.175.012c2.024.483,6.054-7.223,9-12.854,2.462-4.712,4.588-8.781,6.21-10.142a.519.519,0,1,1,.667.8c-1.465,1.229-3.647,5.406-5.957,9.828-4.207,8.052-7.216,13.432-9.747,13.432m-.384-1.064-.014,0,.014,0m-8.926-.682h0Zm0,0h0m0,0,0,0,0,0m0,0h0Zm0,0h0" transform="translate(-11.578 -877.67)" fill="#63230d"/>
      <path id="패스_3471" data-name="패스 3471" d="M4.522,1164.265H4.471a1.259,1.259,0,0,1-1.126-.758c-.476-1.1-.648-3.855,3.547-9.945A29.864,29.864,0,0,0,8.84,1150.1c.279-.55.566-1.115.876-1.7.007-.013.014-.025.022-.038l4.976-7.667a.519.519,0,0,1,.871.565l-4.964,7.649c-.3.566-.583,1.118-.855,1.656a30.651,30.651,0,0,1-2.019,3.582c-4.172,6.055-3.695,8.377-3.449,8.945a.221.221,0,0,0,.194.132h.027c1.675,0,3.521-3.268,5.656-7.049.355-.629.722-1.278,1.1-1.939a.519.519,0,1,1,.9.518c-.379.659-.744,1.306-1.1,1.932-2.481,4.394-4.279,7.577-6.557,7.577" transform="translate(-2.36 -866.59)" fill="#63230d"/>
      <path id="패스_3472" data-name="패스 3472" d="M52.6,1080.656a.519.519,0,0,1-.449-.778,72.24,72.24,0,0,0,5.822-13.177c1-3.446,2.026-5.4,3.052-5.807a.928.928,0,0,1,.821.02.519.519,0,0,1-.424.94c-.144.046-1.115.525-2.452,5.137a73.368,73.368,0,0,1-5.92,13.406.519.519,0,0,1-.45.26m8.719-18.849h0Zm0,0h0" transform="translate(-39.576 -806.065)" fill="#63230d"/>
      <path id="패스_3473" data-name="패스 3473" d="M225.618,1039.437a82.463,82.463,0,0,0-6.445,16.877c-2.684,10.053-5.045,19.942-5.045,19.942l-3.783,28.788-.619,22.842s21.026,5.028,41.615-.3c0,0,5.331-12,5.281-14.79s4.408-14.473,4.408-14.473l.9,7.848s.707,20.839,1.725,21.695,25.058,3.212,33.552-.15c0,0,5.78-21.469,5.16-32.618,0,0,1.821-30.8,1.681-41.853s-12.83-6.282-12.83-6.282Z" transform="translate(-159.363 -789.824)" fill="#dae8c5"/>
      <path id="패스_3474" data-name="패스 3474" d="M159.025,388.058s-3.728.217-4.247,3.283c0,0-12.957-.483-16.09,1.707s-7.331.866-17.713,18.6-15.694,26.68-15.694,26.68-9.523,15.881-9.7,17.385-8.406,27.784-8.406,27.784l-7.155,22.74s4.812,7.729,8.695,7.495,11.155-8.517,11.19-9.615,3.019-8.055,2.931-9.737,10.972-23.891,10.972-23.891l4.424-12.211-.708-1.239s6.039-3.563,7.078-4.559a169.629,169.629,0,0,0,13.184-14.819l1.805,7.153s7.9,22.4-5.945,43.561c-7.165,9.1-7.93,15.9-7.93,15.9s20.579,17.493,44.02,19.016l9.018-12.812s-2.813,14.445,3.009,13.432,23.95-8.772,23.95-8.772v-9.349s1-25.395.914-25.749a54.479,54.479,0,0,1,6.107-25.824c5.6-10.829,3.273-16.913,3.273-16.913l-5.733-16.969s.624-4.095,5.467-10.373,33.8-22.071,33.8-22.071l11.431-5.092s5.482-4.511,7.138-6.318c3.553-3.877,12.726-19.284,12.726-19.284l12.84-21.236s-8.848-7.352-13.474-4.188S269.981,343.6,269.981,343.6l-14.157,15.927s-5.84,7.256-6.017,8.671-6.194,2.467-6.194,2.467l-4.07,1.807-22.74,6.7-16.382,3.335-12.375.868Z" transform="translate(-60.804 -251.501)" fill="#fff"/>
      <path id="패스_3475" data-name="패스 3475" d="M451.279,389.768s.332,3.7-.979,3.691c-1.1-.007-5.407-.692-5.407-.692l1.581,4.539,3.262,1.671a4.662,4.662,0,0,1,.685,4.144c-.4.958-.626,3.2-2.546,3.819s-11.668,1.467-11.668,1.467l-3.048,3.919s1.764,2.362,2.093,2.94-.159-.46.329.574a26.355,26.355,0,0,1,.682,10.907c-.792,4.127-.422,11.516-.5,11.824s-1.612-3.937-2.753-5.2-8.586-6.417-10.72-7.2-8.043-6.04-8.831-7.78-4.334-6.8-3.743-7.614,2.726-1.245,3.176-3.847a54.7,54.7,0,0,0-.118-7.6c1.754-1.3,2.546-3.608.81-6.341-2.716-4.272-2.051-12.049,4.573-8.814s2.166,4.7,6.317,2.543,7.555-8.285,7.316-13.29,3.656-12.007,6.24-12.543a3.5,3.5,0,0,1,2.615.557,42.566,42.566,0,0,1,5.687,9.686,43.119,43.119,0,0,1,1.792,5.082c.028.09.052.17.073.249.035.114.062.214.083.3a44.007,44.007,0,0,1,.961,4.452s1.709,2.262,3.553,4.711-1.518,1.733-1.515,3.857" transform="translate(-311.276 -274.164)" fill="#f7e5d7"/>
      <path id="패스_3476" data-name="패스 3476" d="M353.728,344.784a.52.52,0,0,1-.509-.62c1.706-8.605,8.183-14.816,18.732-17.961a55.75,55.75,0,0,1,15.478-2.17.519.519,0,0,1-.029,1.037,54.633,54.633,0,0,0-15.176,2.135c-10.287,3.074-16.339,8.848-17.986,17.161a.519.519,0,0,1-.508.418" transform="translate(-268.388 -246.215)" fill="#63230d"/>
      <path id="패스_3477" data-name="패스 3477" d="M532.283,348.32a.519.519,0,0,1-.489-.693c1.523-4.276,1.275-8.01-.735-11.1-3.729-5.73-12.112-7.315-12.5-7.379a.5.5,0,0,1-.479-.3.519.519,0,0,1,.251-.69c.438-.2,3.135.634,4.186,1.017a22.031,22.031,0,0,1,7.132,4.13c4.125,3.752,5.206,8.824,3.125,14.668a.519.519,0,0,1-.489.345" transform="translate(-393.628 -249.33)" fill="#63230d"/>
      <path id="패스_3478" data-name="패스 3478" d="M538.761,368.6a.519.519,0,0,1-.505-.4,17.194,17.194,0,0,0-6.59-9.947c-.4-.307-.691-.53-.508-.93a.542.542,0,0,1,.629-.3.518.518,0,0,1,.37.294l.141.108a18.209,18.209,0,0,1,6.97,10.538.519.519,0,0,1-.39.622.526.526,0,0,1-.116.013" transform="translate(-403.562 -271.278)" fill="#63230d"/>
      <path id="패스_3479" data-name="패스 3479" d="M418.021,547.378a.519.519,0,0,1-.373-.88c1.083-1.116.789-3.564.786-3.589a.519.519,0,0,1,1.029-.131c.015.12.361,2.966-1.07,4.442a.517.517,0,0,1-.373.158" transform="translate(-317.242 -412.09)" fill="#63230d"/>
      <path id="패스_3480" data-name="패스 3480" d="M460.847,389.012q-.124,0-.244-.009a.519.519,0,1,1,.081-1.034,5.9,5.9,0,0,0,3.768-1.761c1.429-1.25,4.793-4.9,5.171-11.793.519-9.453,4.9-12.081,5.087-12.188a.519.519,0,0,1,.52.9c-.057.034-4.086,2.53-4.571,11.347-.4,7.286-4,11.181-5.524,12.518a7.064,7.064,0,0,1-4.289,2.023" transform="translate(-349.629 -275.187)" fill="#63230d"/>
      <path id="패스_3481" data-name="패스 3481" d="M378.869,432.316c-7.411,0-10.319-8.428-10.348-8.516a.519.519,0,0,1,.984-.33c.028.082,2.859,8.247,9.95,7.788a.519.519,0,0,1,.068,1.036c-.221.015-.44.022-.653.022" transform="translate(-280.003 -321.509)" fill="#63230d"/>
      <path id="패스_3482" data-name="패스 3482" d="M371.064,494.325c-7.39,0-12.073-2.766-14.3-8.43a.519.519,0,1,1,.966-.379c2.2,5.611,6.843,8.071,14.619,7.744a.513.513,0,0,1,.54.5.519.519,0,0,1-.5.54q-.681.029-1.333.029" transform="translate(-271.066 -368.672)" fill="#63230d"/>
      <path id="패스_3483" data-name="패스 3483" d="M350.418,419.77a.519.519,0,0,1-.515-.463,44.25,44.25,0,0,1,.648-12.763.519.519,0,0,1,1.014.223,44.032,44.032,0,0,0-.63,12.429.519.519,0,0,1-.46.571.488.488,0,0,1-.056,0" transform="translate(-265.719 -308.605)" fill="#63230d"/>
      <path id="패스_3484" data-name="패스 3484" d="M529.619,582.635a1.724,1.724,0,0,1-.471-.072,2.329,2.329,0,0,1-1.158-.785c-1.821-2.232-4.091-5.011-6.219-4.809-1.14.108-2.227,1.1-3.231,2.96a.519.519,0,0,1-.913-.494c1.2-2.21,2.519-3.355,4.046-3.5,2.681-.25,5.143,2.763,7.121,5.187a1.3,1.3,0,0,0,.639.443.471.471,0,0,0,.216.029c.473-.647-1.455-5.3-2.73-8.386-.742-1.792-1.508-3.644-2.081-5.251a31.835,31.835,0,0,0-5.521-9.692.519.519,0,0,1,.77-.7,32.279,32.279,0,0,1,5.729,10.04c.564,1.583,1.325,3.423,2.062,5.2,2.224,5.373,3.437,8.463,2.52,9.491a1,1,0,0,1-.779.333" transform="translate(-393.276 -423.543)" fill="#63230d"/>
      <path id="패스_3485" data-name="패스 3485" d="M558.77,499.242a.515.515,0,0,1-.066,0c-5.433-.694-5.672-6.2-5.673-6.254a.519.519,0,0,1,.161-.392.512.512,0,0,1,.4-.142c2.256.182,5.7.452,6.016.457a.519.519,0,0,1,.077,1.034c-.058.005-.206.022-5.551-.406a5.308,5.308,0,0,0,4.7,4.674.519.519,0,0,1-.065,1.034" transform="translate(-420.225 -374.189)" fill="#63230d"/>
      <path id="패스_3486" data-name="패스 3486" d="M500.865,549.262a.537.537,0,0,1-.1-.011.519.519,0,0,1-.4-.613,35.715,35.715,0,0,0,.475-3.613c.306-3.136.622-6.378,2.89-8.239,1.569-1.287,3.876-1.757,7.055-1.439,3.366.338,5.721-.2,7-1.612a4.675,4.675,0,0,0,1-3.715.519.519,0,0,1,1.017-.206,5.653,5.653,0,0,1-1.238,4.609c-1.51,1.672-4.16,2.331-7.881,1.958-2.889-.291-4.948.105-6.294,1.208-1.935,1.587-2.217,4.477-2.516,7.537a36.505,36.505,0,0,1-.491,3.72.519.519,0,0,1-.508.415" transform="translate(-380.192 -402.27)" fill="#63230d"/>
      <path id="패스_3487" data-name="패스 3487" d="M539.893,419.213a.519.519,0,0,1-.4-.844,4.8,4.8,0,0,1,3.284-1.9,5.34,5.34,0,0,1,3.585.991.519.519,0,0,1-.655.8,4.261,4.261,0,0,0-2.821-.763,3.8,3.8,0,0,0-2.585,1.523.517.517,0,0,1-.4.193" transform="translate(-409.848 -316.435)" fill="#63230d"/>
      <path id="패스_3488" data-name="패스 3488" d="M558.7,439.508c-.109-1.018-.742-1.785-1.413-1.713s-1.126.956-1.017,1.974.742,1.785,1.413,1.713,1.126-.956,1.017-1.974" transform="translate(-422.673 -332.658)" fill="#63230d"/>
      <path id="패스_3489" data-name="패스 3489" d="M575.412,444.254a.519.519,0,0,1-.3-.942c1.1-.777,1.512-1.575,1.235-2.372a1.524,1.524,0,0,0-.7-.79c-3.134-1.8-3.281-6.411-3.285-6.607a.519.519,0,0,1,1.037-.026c0,.042.141,4.227,2.764,5.732a2.557,2.557,0,0,1,1.169,1.35c.252.724.376,2.149-1.615,3.56a.517.517,0,0,1-.3.1" transform="translate(-434.91 -329.026)" fill="#63230d"/>
      <path id="패스_3490" data-name="패스 3490" d="M425.962,467.318a10.566,10.566,0,0,1-4.955-1.763,9.049,9.049,0,0,1-4.19-8.5c.131-2.3.894-3.8,2.27-4.442,2.3-1.075,5.6.633,7.2,1.812.671.5.872.76.826,1.081a.519.519,0,0,1-.992.127c-.477-.528-4.015-2.9-6.28-2.2-1.2.368-1.866,1.606-1.984,3.679a7.984,7.984,0,0,0,2.792,6.881,9.416,9.416,0,0,0,5.451,2.291.519.519,0,0,1,.426.945,1.324,1.324,0,0,1-.56.092m.1-1.021h0m.024-10.941h0Zm0,0h0Z" transform="translate(-316.707 -343.659)" fill="#63230d"/>
      <path id="패스_3491" data-name="패스 3491" d="M440.751,479.958a.519.519,0,0,1-.5-.377c-.255-.9-1.075-2.749-1.978-2.749a.519.519,0,0,1,0-1.038c1.93,0,2.875,3.145,2.977,3.5a.52.52,0,0,1-.5.66" transform="translate(-332.632 -361.536)" fill="#63230d"/>
      <path id="패스_3492" data-name="패스 3492" d="M114.477,426.246l-.052,0a.519.519,0,0,1-.465-.568c1.373-13.718,7.895-17.77,14.8-22.061,3.768-2.341,7.665-4.762,10.971-8.9,2.353-2.947,4.707-8.734,7.2-14.861,2.95-7.254,6-14.754,9.614-19.173,2.975-3.638,8.566-6.5,18.3.525.159.115.283.2.369.262a.519.519,0,1,1-.578.862c-.093-.062-.227-.159-.4-.283-7.293-5.262-12.977-5.5-16.894-.71-3.514,4.3-6.535,11.725-9.456,18.907-2.521,6.2-4.9,12.053-7.35,15.117-3.417,4.279-7.391,6.748-11.234,9.136-12.994,8.073-13.606,14.195-14.315,21.282a.519.519,0,0,1-.516.467" transform="translate(-86.591 -271.19)" fill="#63230d"/>
      <path id="패스_3493" data-name="패스 3493" d="M120.818,588.826a.511.511,0,0,1-.091-.008.519.519,0,0,1-.421-.6c2.681-15.192,8.5-18.145,14.659-21.271,3.446-1.749,7.01-3.557,10.193-7.7a.519.519,0,1,1,.823.632c-3.327,4.328-7,6.19-10.546,7.991-5.923,3.006-11.516,5.844-14.107,20.526a.519.519,0,0,1-.51.429" transform="translate(-91.409 -424.794)" fill="#63230d"/>
      <path id="패스_3494" data-name="패스 3494" d="M139.6,479.818a.518.518,0,0,1-.505-.639c2.787-11.633,8.542-13.906,14.635-16.312,9.224-3.642,19.678-7.77,24.09-45.485,1.046-8.943,4.666-11.9,7.519-12.806,2.516-.8,4.936-.093,5.648.7a.519.519,0,1,1-.773.693,5.273,5.273,0,0,0-4.561-.4c-2.561.813-5.82,3.544-6.8,11.937-4.484,38.331-15.246,42.581-24.74,46.33-6.088,2.4-11.346,4.48-14.006,15.589a.52.52,0,0,1-.5.4" transform="translate(-105.679 -307.153)" fill="#63230d"/>
      <path id="패스_3495" data-name="패스 3495" d="M591.52,413.859a.519.519,0,0,1-.4-.847c13.906-16.989,35.5-26.46,45.881-31.011,1.613-.707,2.887-1.266,3.8-1.71,6.252-3.036,28.736-40.955,30.749-44.367a9.449,9.449,0,0,0-8.025-5.474,13.791,13.791,0,0,0-5.072.555c-6.481,4.894-29.5,36.05-29.735,36.365a.519.519,0,0,1-.22.172c-.912.375-22.457,9.2-31.639,10.8l-1.538.268c-7.962,1.387-14.252,2.482-15.769,4.577a.519.519,0,1,1-.84-.609c1.764-2.436,7.6-3.453,16.431-4.991l1.537-.268c8.7-1.523,29.421-9.923,31.29-10.685,1.794-2.427,23.55-31.789,29.931-36.515a.521.521,0,0,1,.135-.072c.1-.036,10.136-3.469,14.57,5.668a.519.519,0,0,1-.019.489c-1,1.7-24.54,41.717-31.334,45.017-.932.453-2.215,1.015-3.838,1.727-10.3,4.519-31.747,13.922-45.495,30.718a.517.517,0,0,1-.4.19" transform="translate(-439.665 -250.289)" fill="#63230d"/>
      <path id="패스_3496" data-name="패스 3496" d="M427.457,634.721a.518.518,0,0,1-.472-.734c4.231-9.3,1.716-22.95-1.063-27.281a26.913,26.913,0,0,1-3.679-10.1,21.516,21.516,0,0,0-6.429-11.427,13.661,13.661,0,0,0-4.064-2.557.515.515,0,0,1-.417.124c-4.194-.6-7.588,7.159-9.22,10.888a17.676,17.676,0,0,1-1.078,2.251.769.769,0,0,1-.769.352c-.452-.069-1.293-.2-4.142-7.7-1.447-3.809-3.2-8.99-4.814-14.217-2.555-8.282.483-9.793,2.3-10.7a2.963,2.963,0,0,0,.9-.559.519.519,0,0,1,.925.226c.018.108,2.038,10.97,16.483,18.284.746.24,8.518,3.008,11.348,14.814a.441.441,0,0,1,.01.058,26.339,26.339,0,0,0,3.527,9.7c3.26,5.08,5.375,18.948,1.134,28.271a.518.518,0,0,1-.473.3m-32.864-70.439c-.163.091-.339.179-.524.271-1.618.8-4.063,2.021-1.769,9.46,4.271,13.844,7.064,20.055,8,21.072.209-.386.515-1.084.858-1.87,1.679-3.838,4.659-10.649,8.86-11.464-11.613-6.4-14.716-14.822-15.429-17.469" transform="translate(-296.594 -427.692)" fill="#63230d"/>
      <path id="패스_3497" data-name="패스 3497" d="M86.106,702.2c-.087,0-.174,0-.261-.006-4.632-.2-7.554-5.61-8.515-7.389-.119-.221-.222-.411-.269-.481-.234-.347-.5-.74,3.389-13.171,2.2-7.024,5.1-15.911,7.442-23.051,2.037-6.223,3.8-11.6,4.39-13.62,1.4-4.775,6.358-13,14.566-26.625,3.4-5.637,7.244-12.026,11.585-19.41,5.576-9.484,11.312-15.715,17.047-18.521a17.3,17.3,0,0,1,10.925-1.5,10.658,10.658,0,0,0,1.555.155.519.519,0,0,1,.032,1.037,10.69,10.69,0,0,1-1.734-.165c-4.63-.658-14.264-2.028-26.931,19.516-4.344,7.389-8.194,13.781-11.591,19.42-7.884,13.089-13.093,21.736-14.459,26.382-.6,2.037-2.276,7.162-4.4,13.65-4.1,12.543-10.948,33.455-10.9,35.406.067.112.152.269.267.481.891,1.651,3.6,6.673,7.646,6.846,2.987.125,6.2-2.379,9.523-7.45a22.454,22.454,0,0,0,1.906-3.612c.88-2.095,2.32-5.81,4.189-11.611,1.554-4.826,5.067-12.689,8.166-19.626,2.309-5.169,4.49-10.051,5.543-12.958a.519.519,0,0,1,.976.353c-1.066,2.943-3.255,7.842-5.572,13.028-3.088,6.913-6.588,14.748-8.125,19.521-1.88,5.837-3.332,9.581-4.22,11.7a23.508,23.508,0,0,1-1.995,3.779c-3.449,5.259-6.87,7.923-10.174,7.923" transform="translate(-58.467 -439.301)" fill="#63230d"/>
      <path id="패스_3498" data-name="패스 3498" d="M224.269,790.07a.519.519,0,0,1-.223-.988c6.026-2.86,16.976-9.454,22.6-21.48a.519.519,0,0,1,.94.44c-5.764,12.32-16.945,19.058-23.1,21.978a.517.517,0,0,1-.222.05" transform="translate(-170.018 -583.041)" fill="#63230d"/>
      <path id="패스_3499" data-name="패스 3499" d="M208.029,925.982a.519.519,0,0,1-.519-.512,260.933,260.933,0,0,1,6.578-60.2c4.427-19.167,10.448-34.391,16.954-42.869,12.9-16.8,3.021-48.363,2.919-48.679a.519.519,0,1,1,.988-.316,94.723,94.723,0,0,1,3.477,18.232c.83,9.34.366,22.368-6.562,31.4-6.418,8.363-12.371,23.446-16.765,42.471a259.864,259.864,0,0,0-6.552,59.956.519.519,0,0,1-.512.525Z" transform="translate(-157.665 -587.401)" fill="#63230d"/>
      <path id="패스_3500" data-name="패스 3500" d="M381.376,1265.107a.518.518,0,0,1-.476-.724c1.119-2.6,9.128-25.884,10.164-33.137a14.188,14.188,0,0,1,5.135-8.544,21.463,21.463,0,0,1,4.308-2.92.519.519,0,0,1,.449.936c-.079.038-7.893,3.865-8.865,10.675-1.046,7.323-9.112,30.788-10.238,33.4a.519.519,0,0,1-.477.313" transform="translate(-289.398 -926.822)" fill="#63230d"/>
      <path id="패스_3501" data-name="패스 3501" d="M424.349,1313.095a.519.519,0,0,1-.471-.3c-1.4-3-2.623-28.647-2.674-29.738a.519.519,0,1,1,1.037-.049c.348,7.371,1.489,27.013,2.578,29.348a.518.518,0,0,1-.47.738" transform="translate(-320.055 -974.529)" fill="#63230d"/>
      <path id="패스_3502" data-name="패스 3502" d="M572.376,852.7a.519.519,0,0,1-.423-.818c2.484-3.52,4.457-15.618,5.7-34.986,1.108-17.2,1.39-35.59,1.46-45.022.023-3.1.01-6.215,0-9.229-.071-17.907-.138-34.822,7.195-45.691,7.444-11.033.137-26.657-3.788-35.051-.826-1.767-1.54-3.293-1.936-4.391a.519.519,0,0,1,.976-.352c.38,1.054,1.084,2.559,1.9,4.3,4.013,8.58,11.481,24.551,3.709,36.071-7.155,10.6-7.088,27.363-7.017,45.106.012,3.016.025,6.136,0,9.24-.07,9.443-.353,27.856-1.462,45.081-1.277,19.839-3.26,31.789-5.892,35.518a.519.519,0,0,1-.425.219" transform="translate(-434.531 -514.285)" fill="#63230d"/>
      <path id="패스_3503" data-name="패스 3503" d="M322.86,1070.689a2.942,2.942,0,0,1-1.626-.3.518.518,0,0,1-.1-.095c-1.546-1.875-1.2-8.232-.92-11.422-2.518,3.326-7.831,11.014-7.895,11.106a.518.518,0,0,1-.371.221c-9.166,1-20.569-4.016-28.52-8.4a114.6,114.6,0,0,1-15.923-10.461.519.519,0,0,1,.734-.734,118.1,118.1,0,0,0,15.7,10.293c7.747,4.267,18.8,9.147,27.66,8.29,1.061-1.533,7.574-10.924,8.93-12.368a.519.519,0,0,1,.893.417c-.339,2.812-.9,10.408.442,12.305.517.177,4.109.9,19.082-5.457l7.249-3.331a.519.519,0,1,1,.433.943l-7.263,3.337c-7.11,3.019-12.6,4.85-16.325,5.449a13.959,13.959,0,0,1-2.182.2m-1.328-.726h0Z" transform="translate(-203.149 -798.197)" fill="#63230d"/>
      <path id="패스_3504" data-name="패스 3504" d="M484.69,946.536a.519.519,0,0,1-.469-.741c3-6.343,9.234-19.544,9.322-28.48.026-2.589-.112-4.337-.223-5.741-.263-3.343-.352-4.469,2.366-8.922a.519.519,0,1,1,.886.541c-2.543,4.166-2.468,5.124-2.217,8.3.112,1.425.252,3.2.226,5.833-.09,9.164-6.392,22.5-9.421,28.913a.519.519,0,0,1-.47.3" transform="translate(-367.901 -685.699)" fill="#63230d"/>
      <path id="패스_3505" data-name="패스 3505" d="M508.538,599.583c-.259-3.035.047-7.646.993-14.953.883-6.821-3.175-10.087-3.216-10.12l.592-.756c.185.145,4.528,3.641,3.576,11-.936,7.235-1.241,11.784-.988,14.748Z" transform="translate(-384.728 -435.972)" fill="#63230d"/>
    </g>
  </g>
</svg>
