<svg id="그룹_1070" data-name="그룹 1070" xmlns="http://www.w3.org/2000/svg" xmlns:xlink="http://www.w3.org/1999/xlink" width="50.303" height="50.077" viewBox="0 0 50.303 50.077">
  <defs>
    <clipPath id="clip-path">
      <rect id="사각형_1705" data-name="사각형 1705" width="50.303" height="50.077" fill="#529bff"/>
    </clipPath>
  </defs>
  <g id="그룹_1069" data-name="그룹 1069" transform="translate(0 0)" clip-path="url(#clip-path)">
    <path id="패스_3670" data-name="패스 3670" d="M6.067,26.3H1.624a1.624,1.624,0,1,1,0-3.248H6.067a1.624,1.624,0,1,1,0,3.248" transform="translate(0 -6.414)" fill="#529bff"/>
    <path id="패스_3671" data-name="패스 3671" d="M65.108,26.3H60.665a1.624,1.624,0,1,1,0-3.248h4.443a1.624,1.624,0,1,1,0,3.248" transform="translate(-16.429 -6.414)" fill="#529bff"/>
    <path id="패스_3672" data-name="패스 3672" d="M14.314,6.389a1.62,1.62,0,0,1-1.148-.476L10.024,2.772a1.624,1.624,0,0,1,2.3-2.3l3.142,3.142a1.624,1.624,0,0,1-1.148,2.772" transform="translate(-2.657 0)" fill="#529bff"/>
    <path id="패스_3673" data-name="패스 3673" d="M56.062,48.137a1.62,1.62,0,0,1-1.148-.476L51.772,44.52a1.624,1.624,0,1,1,2.3-2.3l3.142,3.142a1.624,1.624,0,0,1-1.148,2.772" transform="translate(-14.273 -11.616)" fill="#529bff"/>
    <path id="패스_3674" data-name="패스 3674" d="M11.172,48.137a1.624,1.624,0,0,1-1.148-2.772l3.142-3.142a1.624,1.624,0,0,1,2.3,2.3L12.32,47.661a1.62,1.62,0,0,1-1.148.476" transform="translate(-2.657 -11.616)" fill="#529bff"/>
    <path id="패스_3675" data-name="패스 3675" d="M52.92,6.389a1.624,1.624,0,0,1-1.148-2.772L54.914.475a1.624,1.624,0,0,1,2.3,2.3L54.068,5.913a1.62,1.62,0,0,1-1.148.476" transform="translate(-14.273 0)" fill="#529bff"/>
    <path id="패스_3676" data-name="패스 3676" d="M35.7,40.9H22.777a1.624,1.624,0,1,1,0-3.248h11.3V30.873a1.624,1.624,0,0,1,.81-1.405,11.3,11.3,0,1,0-11.3,0,1.624,1.624,0,0,1,.81,1.405v3.1a1.624,1.624,0,0,1-3.248,0v-2.2a14.549,14.549,0,1,1,16.173,0V39.28A1.624,1.624,0,0,1,35.7,40.9" transform="translate(-4.088 -1.431)" fill="#529bff"/>
    <path id="패스_3677" data-name="패스 3677" d="M38,61H25.7a1.624,1.624,0,1,1,0-3.248H38A1.624,1.624,0,0,1,38,61" transform="translate(-6.7 -16.069)" fill="#529bff"/>
    <path id="패스_3678" data-name="패스 3678" d="M36.884,68.131H28.222a1.624,1.624,0,1,1,0-3.248h8.662a1.624,1.624,0,0,1,0,3.248" transform="translate(-7.401 -18.054)" fill="#529bff"/>
  </g>
</svg>
