<svg xmlns="http://www.w3.org/2000/svg" xmlns:xlink="http://www.w3.org/1999/xlink" width="44.904" height="44.904" viewBox="0 0 44.904 44.904">
  <defs>
    <clipPath id="clip-path">
      <rect id="사각형_1709" data-name="사각형 1709" width="44.904" height="44.904" fill="#529bff"/>
    </clipPath>
  </defs>
  <g id="그룹_1084" data-name="그룹 1084" clip-path="url(#clip-path)">
    <path id="패스_3693" data-name="패스 3693" d="M33.981,28.481a7.575,7.575,0,1,0-7.574-7.575,7.584,7.584,0,0,0,7.574,7.575m0-11.77a4.195,4.195,0,1,1-4.194,4.195,4.2,4.2,0,0,1,4.194-4.195" transform="translate(-11.529 -5.82)" fill="#529bff"/>
    <path id="패스_3694" data-name="패스 3694" d="M38.9,37.711a22.452,22.452,0,1,0-32.9,0l-.058.143.318.131a22.4,22.4,0,0,0,32.378,0l.318-.131ZM22.452,3.38A19.056,19.056,0,0,1,37.358,34.328a17.126,17.126,0,0,0-29.812,0A19.056,19.056,0,0,1,22.452,3.38M10.019,36.9a13.749,13.749,0,0,1,24.867,0,19.014,19.014,0,0,1-24.867,0" transform="translate(0 0)" fill="#529bff"/>
  </g>
</svg>
