<svg xmlns="http://www.w3.org/2000/svg" xmlns:xlink="http://www.w3.org/1999/xlink" width="776.999" height="517" viewBox="0 0 776.999 517">
  <defs>
    <clipPath id="clip-path">
      <circle id="타원_67" data-name="타원 67" cx="86.5" cy="86.5" r="86.5" transform="translate(-0.494 -0.494)" fill="#fff" stroke="#707070" stroke-width="1"/>
    </clipPath>
    <clipPath id="clip-path-2">
      <rect id="사각형_1677" data-name="사각형 1677" width="177.439" height="443.823" fill="none"/>
    </clipPath>
    <clipPath id="clip-path-3">
      <circle id="타원_72" data-name="타원 72" cx="72.5" cy="72.5" r="72.5" transform="translate(-0.376 -0.033)" fill="#fff" stroke="#707070" stroke-width="1"/>
    </clipPath>
    <clipPath id="clip-path-4">
      <rect id="사각형_1678" data-name="사각형 1678" width="181.679" height="315.504" fill="none"/>
    </clipPath>
    <clipPath id="clip-path-5">
      <circle id="타원_73" data-name="타원 73" cx="72.5" cy="72.5" r="72.5" transform="translate(-0.065 -0.033)" fill="#fff" stroke="#707070" stroke-width="1"/>
    </clipPath>
    <clipPath id="clip-path-6">
      <rect id="사각형_1679" data-name="사각형 1679" width="141.41" height="237.717" fill="none"/>
    </clipPath>
    <clipPath id="clip-path-7">
      <circle id="타원_69" data-name="타원 69" cx="72.5" cy="72.5" r="72.5" transform="translate(0.312 -0.033)" fill="#fff" stroke="#707070" stroke-width="1"/>
    </clipPath>
    <clipPath id="clip-path-8">
      <rect id="사각형_1680" data-name="사각형 1680" width="147.743" height="272.969" fill="none"/>
    </clipPath>
    <clipPath id="clip-path-9">
      <circle id="타원_76" data-name="타원 76" cx="72.5" cy="72.5" r="72.5" transform="translate(0.001 -0.033)" fill="#fff" stroke="#707070" stroke-width="1"/>
    </clipPath>
    <clipPath id="clip-path-10">
      <rect id="사각형_1681" data-name="사각형 1681" width="168.567" height="274.955" fill="none"/>
    </clipPath>
    <clipPath id="clip-path-11">
      <rect id="사각형_1682" data-name="사각형 1682" width="601.864" height="145.014" fill="none"/>
    </clipPath>
  </defs>
  <g id="그룹_1109" data-name="그룹 1109" transform="translate(-568 -569)">
    <g id="그룹_1107" data-name="그룹 1107">
      <g id="그룹_1019" data-name="그룹 1019" transform="translate(874.217 589.453)">
        <g id="타원_68" data-name="타원 68" transform="translate(-0.216 -0.453)" fill="#eff0f1" stroke="#707070" stroke-width="1">
          <circle cx="86.5" cy="86.5" r="86.5" stroke="none"/>
          <circle cx="86.5" cy="86.5" r="87" fill="none"/>
        </g>
        <g id="마스크_그룹_9" data-name="마스크 그룹 9" transform="translate(0.277 0.042)" clip-path="url(#clip-path)">
          <g id="그룹_1015" data-name="그룹 1015" transform="translate(-0.333 22.74)">
            <g id="그룹_1014" data-name="그룹 1014" transform="translate(0 0)" clip-path="url(#clip-path-2)">
              <path id="패스_3506" data-name="패스 3506" d="M38.61,302.637c6.394-.346,22.639-2.247,22.639-2.247l53.92.864s28.861-.173,35.947,9.678a40.126,40.126,0,0,1,6.222,11.924c2.247,6.74,2.593,12.444,4.148,18.319,3.456,14.517,6.394,26.788,6.394,26.788l-40.786,29.9s-4.493,14.171-3.629,37.329c.346,8.641,3.284,15.036,5.876,21.948,5.53,14.171,14.171,31.626,16.072,59.624,1.383,18.664-2.765,49.945-5.7,72.239-2.592,18.319-3.283,29.725-3.283,29.725s-26.787,11.407-54.957,11.752c-14.863.173-30.417-1.383-41.823-4.32a71.4,71.4,0,0,1-17.628-6.913s-4.839-34.91-6.395-66.19c-.518-10.2-1.383-21.776-1.383-30.417A200.758,200.758,0,0,1,16.316,493.6L4.564,339.1s3.456-14.344,10.542-24.541c4.666-7.258,9.332-10.888,23.5-11.924" transform="translate(-2.836 -186.669)" fill="#ffc46d" fill-rule="evenodd"/>
              <path id="패스_3507" data-name="패스 3507" d="M127.68,23.578c3.8-8.468,9.332-11.406,16.591-14.863,7.6-3.629,13.307-7.258,21.257-6.913,8.814.518,17.282,3.456,24.368,11.579,3.975,4.666,9.332,15.035,10.542,26.268,1.21,11.406-.519,26.269-1.21,38.194a131.032,131.032,0,0,0,.519,14.517c.346,5.53,3.456,12.961,5.184,19.356a18.481,18.481,0,0,1,.864,5.876L185.4,116.21l-55.994-.691s-7.258-11.579-9.332-33.009c-1.037-11.579-1.383-24.541.691-37.5,1.383-7.258,5.012-16.764,6.913-21.43" transform="translate(-74.105 -1.107)" fill="#d09f89" fill-rule="evenodd"/>
              <path id="패스_3508" data-name="패스 3508" d="M134.35,139.129s-.346-.173,1.9,8.122a50.49,50.49,0,0,0,3.284,8.468c1.728,3.629,5.7,10.715,5.7,10.715s18.319,13.653,27.133,7.431c1.555-1.037,3.975-5.012,3.975-5.012s8.814-10.542,11.925-16.073c3.283-5.53,5.358-14,5.358-14a37.619,37.619,0,0,1-7.086-1.21c-3.8-1.037-3.8-3.111-4.32-6.394-.692-5.185.346-17.628.346-17.628s3.629-4.666,4.839-6.74c1.556-2.592,3.111-9.159,3.111-9.159s3.975-.691,4.666-1.383c2.593-2.592,5.357-8.468,4.839-12.443-.518-3.629-6.567-4.321-8.641-6.74-4.666-5.357-6.913-9.5-10.2-15.554-2.593-4.666-3.975-10.369-6.395-15.035-1.383-2.765-3.456-5.7-6.222-6.913-4.493-1.9-10.542,4.148-14.69,5.358-5.7,1.728-7.777,4.666-10.542,10.2-1.555,3.111-2.074,6.913-2.938,10.2-.346,1.729-.519,4.666-1.9,6.049-1.037,1.037-3.629,1.21-4.666,2.246-2.074,2.074-2.074,6.395-1.728,9.16a24.089,24.089,0,0,0,2.938,6.567c1.728,2.419,3.283,2.592,3.283,2.592s1.383,8.468,2.765,11.752c1.383,3.111,4.839,8.814,4.839,8.814s0,6.394-.173,8.814c-.518,6.049-.346,10.542-5.012,15.208-1.21,1.383-6.394,2.593-6.394,2.593" transform="translate(-81.985 -24.371)" fill="#ffd7b5" fill-rule="evenodd"/>
              <path id="패스_3509" data-name="패스 3509" d="M80.133,377.924c2.419-2.074,13.826-7.95,21.43-11.406,2.419-1.037,8.3.691,15.036,1.9,5.357,1.037,11.579,1.383,14.69,2.419,5.012,1.556,18.492.691,24.195,5.185,5.185,3.975,11.924,14,17.973,21.084,9.678,11.234,18.146,19.7,18.146,19.7a87.311,87.311,0,0,1,11.924-5.7,29.634,29.634,0,0,1,10.888-1.728s1.728,4.839,3.975,10.369c2.419,6.049,5.53,12.443,6.913,21.257.519,3.457-.173,10.369,0,13.48.173,18.665-8.987,20.22-11.061,19.7-2.246-.691-5.012-.346-11.061-4.148-3.284-2.074-8.122-4.666-13.307-10.715-14.863-16.937-35.429-53.4-35.429-53.4l-.173-20.739-.519-3.629-3.284-.864-29.9-.346a21.3,21.3,0,0,0-7.258-2.592c-3.456-.346-8.814,1.9-8.814,1.9a109.1,109.1,0,0,1-16.591,1.555c-5.876,0-10.2-1.21-7.777-3.283" transform="translate(-49.37 -227.565)" fill="#ffd7b5" fill-rule="evenodd"/>
              <path id="패스_3510" data-name="패스 3510" d="M152.043,387.663a1.052,1.052,0,0,1-.238-.029c-1.15-.27-2.326-.675-3.572-1.1a22.718,22.718,0,0,0-5.753-1.462,16.58,16.58,0,0,0-5.007,1.051c-3.077.945-6.256,1.924-8.259.054a2.234,2.234,0,0,1-.759-2.07c.3-1.673,2.477-3.226,7.267-5.2l.357-.148c6.822-3.342,11.4-2.173,16.707-.822,1.52.388,3.092.789,4.8,1.1a1.037,1.037,0,0,1-.371,2.04c-1.778-.323-3.385-.733-4.94-1.13-5.112-1.306-9.148-2.333-15.329.7l-.432.181c-6.05,2.488-6.018,3.653-6.018,3.664a.449.449,0,0,0,.132.167c1.127,1.05,3.726.253,6.237-.519A18.269,18.269,0,0,1,142.582,383a24.225,24.225,0,0,1,6.327,1.572c1.194.412,2.323.8,3.37,1.046a1.038,1.038,0,0,1-.236,2.047" transform="translate(-79.804 -234.02)" fill="#5b2714"/>
              <path id="패스_3511" data-name="패스 3511" d="M327.275,392.717c-6.239,0-13.841-5.2-20.016-9.984-11.456-8.95-31.659-41.141-41.249-59.973a1.038,1.038,0,1,1,1.85-.941c9.708,19.069,29.878,50.844,40.672,59.277,6.213,4.814,15.156,11.012,20.945,9.237,2.594-.793,4.482-3.087,5.775-7.016,1.048-3.146,3.195-16.879,1.521-25.753a68.279,68.279,0,0,0-4.961-15.346,149.9,149.9,0,0,1-5.552-14.956c-1.554-5.051-3.024-11.559-4.444-17.854-1.131-5.006-2.3-10.182-3.517-14.671-.51-2-.925-3.963-1.327-5.858-1.688-7.964-3.144-14.843-10.258-20.749-6.692-5.546-18.139-6.277-27.338-6.865-9.115-.583-16.315-1.043-17.749-5.541-1.531-4.764-.687-15.505-.282-20.667l.062-.812a1.038,1.038,0,0,1,2.069.159l-.064.816c-.365,4.637-1.217,15.5.189,19.872,1.006,3.152,8.244,3.614,15.906,4.1,9.5.607,21.319,1.363,28.529,7.339,7.669,6.367,9.269,13.919,10.964,21.914.4,1.874.808,3.813,1.3,5.76,1.225,4.517,2.4,9.715,3.534,14.743,1.413,6.256,2.873,12.725,4.4,17.7a148.035,148.035,0,0,0,5.483,14.766,70.84,70.84,0,0,1,5.085,15.763c1.826,9.674-.6,23.824-1.588,26.791-1.5,4.548-3.9,7.358-7.137,8.347a9.524,9.524,0,0,1-2.808.4" transform="translate(-162.033 -144.969)" fill="#5b2714"/>
              <path id="패스_3512" data-name="패스 3512" d="M1.038,295.887a1,1,0,0,1-.253-.032A1.037,1.037,0,0,1,.032,294.6c.212-.847.486-1.7.749-2.506.169-.521.332-1.025.468-1.5C6.183,276.733,10.957,266.6,18.287,262c6.158-3.865,15.432-4.527,24.4-5.169a114.509,114.509,0,0,0,11.567-1.195c9.1-1.642,8.878-13.293,8.685-23.573l-.033-1.833a1.037,1.037,0,0,1,2.074-.032l.032,1.826c.2,10.557.446,23.7-10.391,25.651A115.807,115.807,0,0,1,42.835,258.9c-8.715.624-17.726,1.267-23.447,4.857-6.824,4.285-11.4,14.079-16.165,27.467-.122.436-.294.965-.471,1.51-.248.765-.51,1.567-.71,2.368a1.037,1.037,0,0,1-1,.786" transform="translate(0 -142.416)" fill="#5b2714"/>
              <path id="패스_3513" data-name="패스 3513" d="M96.809,382.232c-1.908,0-3.49-.43-4.228-1.782-1.109-2.433,1.514-3.667,5.144-5.374,1.072-.5,2.282-1.074,3.586-1.746,1.164-.6,2.343-1.258,3.535-1.923,4.4-2.455,8.951-4.992,13.643-5.277a1.049,1.049,0,0,1,1.1.973,1.037,1.037,0,0,1-.973,1.1c-4.218.255-8.559,2.676-12.757,5.017-1.212.676-2.411,1.345-3.593,1.955-1.329.685-2.562,1.266-3.655,1.78-1.96.923-4.4,2.07-4.172,2.573.675,1.234,5.349.383,7.857-.072a35.115,35.115,0,0,0,4.712-1.18,1.037,1.037,0,0,1,.625,1.978,37.654,37.654,0,0,1-5.037,1.252,34.283,34.283,0,0,1-5.784.729" transform="translate(-57.372 -227.521)" fill="#5b2714"/>
              <path id="패스_3514" data-name="패스 3514" d="M216.446,436.94a1.037,1.037,0,0,1-.871-.471c-2.086-3.21-7.828-7.164-13.907-11.35-6.631-4.567-14.148-9.743-19.346-15.48-10.255-11.314-20.948-24.654-24.975-30.527-2.967-4.374-9.991-7.147-20.317-8.022-6.568-.6-13.993-1.978-21.171-3.313l-3.641-.674c-1.959-.32-3.525-.684-4.907-1.005-4.478-1.041-6.331-1.472-12.371,1.925-2.846,1.569-5.655,3-8.132,4.266-3.873,1.977-8.262,4.216-8.7,5.076.28.456,2.716.785,5.06.317a1.036,1.036,0,1,1,.407,2.032c-1.458.294-5.556.685-7.018-.969a2.072,2.072,0,0,1-.391-2.1c.6-1.509,3.407-2.99,9.7-6.2,2.463-1.257,5.257-2.682,8.066-4.23,6.732-3.788,9.259-3.2,13.849-2.134,1.35.314,2.881.67,4.792.981l3.666.68c7.132,1.326,14.508,2.7,20.975,3.286,10.963.929,18.521,4.013,21.847,8.92,3.986,5.812,14.6,19.052,24.8,30.3,5.038,5.559,12.449,10.663,18.987,15.166s12.158,8.373,14.469,11.927a1.036,1.036,0,0,1-.867,1.6" transform="translate(-47.252 -225.748)" fill="#5b2714"/>
              <path id="패스_3515" data-name="패스 3515" d="M145.777,328.707a1.037,1.037,0,0,1-.9-.516,95.238,95.238,0,0,1-9.271-23.78,1.037,1.037,0,0,1,2.015-.491,93.043,93.043,0,0,0,9.049,23.228,1.037,1.037,0,0,1-.9,1.559" transform="translate(-84.251 -188.372)" fill="#5b2714"/>
              <path id="패스_3516" data-name="패스 3516" d="M248,332.757a1.037,1.037,0,0,1-.749-1.754c8.238-8.6,14.936-20.2,16.669-28.866a1.036,1.036,0,1,1,2.032.407c-1.8,9.016-8.715,21.029-17.2,29.893a1.034,1.034,0,0,1-.749.32" transform="translate(-153.469 -187.237)" fill="#5b2714"/>
              <path id="패스_3517" data-name="패스 3517" d="M171.538,195.043a16.637,16.637,0,0,1-2.557-.194c-10.818-1.678-20.37-13.871-21.94-21.2l-.5-2.318a80.7,80.7,0,0,1-2.286-15.476,1.036,1.036,0,0,1,.985-1.086,1.048,1.048,0,0,1,1.086.985,78.147,78.147,0,0,0,2.242,15.138l.5,2.324c1.468,6.85,10.608,18.092,20.229,19.585,9.528,1.477,20.248-7.112,23.325-12.133,2.481-4.048,4.251-9.405,5.674-13.709.415-1.253.795-2.4,1.147-3.382a1.037,1.037,0,0,1,1.951.7c-.348.966-.722,2.1-1.129,3.331-1.456,4.406-3.269,9.889-5.875,14.142-3.149,5.136-13.063,13.292-22.854,13.292" transform="translate(-89.642 -96.176)" fill="#5b2714"/>
              <path id="패스_3518" data-name="패스 3518" d="M136.3,145.713a1.04,1.04,0,0,1-.533-.148c-4.751-2.851-7.038-11.79-5.51-16.837.837-2.764,2.677-4.232,5.229-4.1a1.036,1.036,0,1,1-.1,2.07c-.566-.022-2.316-.111-3.145,2.628-1.281,4.233.754,12.155,4.592,14.458a1.037,1.037,0,0,1-.534,1.927" transform="translate(-80.651 -77.443)" fill="#5b2714"/>
              <path id="패스_3519" data-name="패스 3519" d="M289.624,164.538c-.037,0-.074,0-.111,0a1.037,1.037,0,0,1,.034-2.073c.024,0,.051,0,.081,0,1.227,0,2.945-1.51,4.395-3.868,2.25-3.656,3.112-7.94,2.007-9.963a2.848,2.848,0,0,0-2.7-1.378,1.037,1.037,0,0,1-1.016-1.057,1.052,1.052,0,0,1,1.057-1.017,4.83,4.83,0,0,1,4.481,2.457c1.728,3.164.145,8.462-2.059,12.045-1.9,3.094-4.143,4.855-6.165,4.855" transform="translate(-179.286 -90.219)" fill="#5b2714"/>
              <path id="패스_3520" data-name="패스 3520" d="M193.556,190.374s5.7,1.21,8.987,1.728c3.975.519,10.2.691,10.2.691s-2.42,10.024-11.061,8.814c-7.6-1.037-8.123-11.234-8.123-11.234" transform="translate(-120.28 -118.303)" fill="#fff" fill-rule="evenodd"/>
              <path id="패스_3521" data-name="패스 3521" d="M201.373,201.043a11.078,11.078,0,0,1-1.539-.11c-6.686-.912-8.82-8.383-9.015-12.208a1.034,1.034,0,0,1,.363-.842,1.045,1.045,0,0,1,.888-.225c.057.012,5.714,1.21,8.934,1.718,3.848.5,10,.678,10.062.68a1.035,1.035,0,0,1,.979,1.279c-.849,3.518-4.13,9.708-10.671,9.708m-8.314-11.059c.441,2.63,1.973,8.2,7.058,8.9,5.969.829,8.616-4.339,9.524-6.8-2.071-.081-6.049-.276-8.933-.652-2.318-.365-5.736-1.051-7.648-1.445" transform="translate(-118.578 -116.602)" fill="#5b2714"/>
              <path id="패스_3522" data-name="패스 3522" d="M220.159,145.238a1.037,1.037,0,0,1-.577-1.9c2.7-1.8,3.149-2.85,2.078-4.874-1.31-2.433-2.6-4.835-.221-10.888a1.037,1.037,0,0,1,1.931.759c-2.032,5.158-1.063,6.955.058,9.036,2.037,3.844-.1,5.961-2.694,7.692a1.031,1.031,0,0,1-.574.175" transform="translate(-136.166 -78.87)" fill="#5b2714"/>
              <path id="패스_3523" data-name="패스 3523" d="M183.933,128.289c.173-1.728,1.383-2.938,2.593-2.765s2.074,1.556,1.9,3.284-1.383,2.938-2.592,2.765-2.073-1.728-1.9-3.283" transform="translate(-114.286 -77.994)" fill="#5b2714" fill-rule="evenodd"/>
              <path id="패스_3524" data-name="패스 3524" d="M255.037,139.069c.346-1.728,1.555-2.765,2.938-2.592,1.21.346,1.9,1.9,1.556,3.456-.346,1.728-1.556,2.765-2.938,2.593-1.21-.173-1.9-1.728-1.555-3.456" transform="translate(-158.43 -84.798)" fill="#5b2714" fill-rule="evenodd"/>
              <path id="패스_3525" data-name="패스 3525" d="M186.665,101.153a1.034,1.034,0,0,1-.607-.2c-2.745-1.983-9.068-1.169-11.592-.063a1.037,1.037,0,0,1-.832-1.9c2.879-1.259,10.1-2.273,13.639.283a1.037,1.037,0,0,1-.608,1.877" transform="translate(-107.514 -60.708)" fill="#5b2714"/>
              <path id="패스_3526" data-name="패스 3526" d="M256.218,109.034a1.037,1.037,0,0,1-.327-2.021,7.813,7.813,0,0,1,3.782-.039,1.037,1.037,0,1,1-.341,2.045,6.217,6.217,0,0,0-2.786-.039,1.029,1.029,0,0,1-.327.053" transform="translate(-158.574 -66.343)" fill="#5b2714"/>
              <path id="패스_3527" data-name="패스 3527" d="M239.6,75.044a1.02,1.02,0,0,1-.225-.025c-7.568-1.66-10.623-7.77-13.318-13.162a76.478,76.478,0,0,1-2.883-7.089c-2.466-6.633-5.533-14.889-10.25-16.28-2-.587-4.2.054-6.753,1.959a1.037,1.037,0,1,1-1.24-1.662c3.069-2.29,5.958-3.057,8.581-2.285,5.711,1.685,8.844,10.112,11.606,17.547.965,2.6,1.877,5.053,2.792,6.88,2.611,5.223,5.308,10.619,11.91,12.068a1.037,1.037,0,0,1-.221,2.05" transform="translate(-127.088 -22.502)" fill="#5b2714"/>
              <path id="패스_3528" data-name="패스 3528" d="M152.6,75.1a1.08,1.08,0,0,1-.155-.012,1.036,1.036,0,0,1-.872-1.179c1.858-12.389,6.378-19.668,13.819-22.256a1.037,1.037,0,1,1,.682,1.96c-6.644,2.31-10.717,9.05-12.45,20.6a1.036,1.036,0,0,1-1.024.884" transform="translate(-94.181 -32.065)" fill="#5b2714"/>
              <path id="패스_3529" data-name="패스 3529" d="M127.885,127.364a1.039,1.039,0,0,1-.722-.293c-4.331-4.2-7.458-14.531-9.295-30.7-1.288-12.108-2.544-35.059,3.505-52.816.891-2.485,9.029-24.106,22.694-22.646a1.038,1.038,0,0,1,.922,1.141,1.022,1.022,0,0,1-1.141.921C131.77,21.7,124.16,41.93,123.331,44.242c-5.916,17.365-4.671,39.975-3.4,51.9,2.218,19.52,5.943,26.782,8.678,29.436a1.037,1.037,0,0,1-.722,1.782" transform="translate(-72.582 -12.952)" fill="#5b2714"/>
              <path id="패스_3530" data-name="패스 3530" d="M256.222,116.315a1.039,1.039,0,0,1-1.031-.939,43.66,43.66,0,0,0-2.878-11.457,49.154,49.154,0,0,1-3.52-17.3l-.01-.321c-.322-10.825-.322-10.825,1.036-28.021l.187-2.353c1.61-20.778-2.99-36.37-13.672-46.341-10.516-9.812-26.754-8.49-34.416-4.5a1.037,1.037,0,0,1-.957-1.84c9.764-5.078,26.607-4.677,36.787,4.828,11.167,10.423,15.986,26.578,14.325,48.019l-.187,2.355c-1.348,17.084-1.348,17.084-1.031,27.8l.01.326a47.431,47.431,0,0,0,3.4,16.662,45.987,45.987,0,0,1,2.991,11.96,1.038,1.038,0,0,1-.935,1.13c-.034,0-.065,0-.1,0" transform="translate(-124.535 -0.002)" fill="#5b2714"/>
            </g>
          </g>
        </g>
        <g id="타원_81" data-name="타원 81" transform="translate(-20.217 -20.453)" fill="#fff" stroke="#707070" stroke-width="1">
          <circle cx="38" cy="38" r="38" stroke="none"/>
          <circle cx="38" cy="38" r="37.5" fill="none"/>
        </g>
        <text id="나" transform="translate(5.783 28.547)" fill="#333" font-size="26" font-family="AppleSDGothicNeo-Regular, Apple SD Gothic Neo" letter-spacing="-0.1em"><tspan x="0" y="0">나</tspan></text>
      </g>
    </g>
    <g id="그룹_1027" data-name="그룹 1027" transform="translate(992.377 940.033)">
      <g id="타원_70" data-name="타원 70" transform="translate(-0.376 -0.033)" fill="#eff0f1" stroke="#707070" stroke-width="1">
        <circle cx="72.5" cy="72.5" r="72.5" stroke="none"/>
        <circle cx="72.5" cy="72.5" r="73" fill="none"/>
      </g>
      <g id="마스크_그룹_10" data-name="마스크 그룹 10" transform="translate(0 0)" clip-path="url(#clip-path-3)">
        <g id="그룹_1017" data-name="그룹 1017" transform="translate(-18.402 17.176)">
          <g id="그룹_1016" data-name="그룹 1016" clip-path="url(#clip-path-4)">
            <path id="패스_3531" data-name="패스 3531" d="M18.342,312.88a48.6,48.6,0,0,1,10.5-8.7c4.5-2.549,9.6-3.9,13.944-6.3,5.4-3,7.347-4.5,11.545-6.6s7.647-3.448,7.647-3.448l4.5-8.7,2.1-1.35,36.434-3.9,2.249,1.05,4.648,9.146,12.445,4.8,10.945,2.849s15.893,2.7,23.99,10.8c6.3,6.3,11.995,22.34,13.344,31.636.6,3.9,2.4,13.794,3.448,19.192.6,2.7,2.1,13.344,3.6,23.09,2.1,13.344,3.9,27.139-1.949,36.734-1.5,2.549-5.7,3.748-10.646,3.9a92.16,92.16,0,0,1-16.193-1.949l.9,24.44s3,25.789,4.348,35.834c.75,5.1-1.649,6.447-1.649,6.447s-5.1,3.9-17.393,9c-13.344,5.547-22.49,8.1-27.288,8.4-3.749.3-4.948-1.05-4.948-1.05l-5.4-32.986s-.45,5.548-.75,11.1c-.45,8.846-1.2,19.492-3.3,22.041-.6.6-6.747,1.949-17.243.3A172.394,172.394,0,0,1,47.58,490.4c-4.948-1.949-8.846-3.749-9.6-5.4-.9-1.8-.75-4.2-.6-8.546.3-7.347,1.05-23.99,1.2-34.635.15-13.944-.9-25.039-.9-25.039a104.932,104.932,0,0,1-13.044,4.5c-9.146,2.1-19.492,2.549-23.84-13.194-3.3-11.845,4.348-25.939,9.446-47.529.45-2.249-2.7-9.746-2.249-11.995,1.949-9.146,2.549-16.193,4.5-23.09,1.35-4.8,4.2-10.8,5.848-12.595" transform="translate(0 -183.937)" fill="#fff" fill-rule="evenodd"/>
            <path id="패스_3532" data-name="패스 3532" d="M206.106,116.678c-.3,1.949-2.549,6.747-2.549,6.747s0,3.749.45,7.8c.45,4.2,1.5,5.848,1.05,7.647-1.2,4.948-5.7,7.2-8.1,11.545a28.826,28.826,0,0,0-2.7,5.248c-1.949,7.647.3,11.695-.75,19.641-.15,1.649-1.949,11.1-1.949,11.1s-2.1-3.6-2.249-4.2c-.75-2.1-3-6.9-3.449-9-.75-3.448-2.1-8.846-2.249-11.1a12.684,12.684,0,0,0-3-7.647c-1.35-1.349-4.5-3.449-6.148-4.8a18.225,18.225,0,0,1-4.8-4.8c-1.349-2.249-.45-5.1-1.2-8.7-.45-2.849-1.05-6.447-1.05-6.447a19.093,19.093,0,0,1-3.3-3.748c-1.05-1.8-2.7-3.748-3.449-5.7-.6-1.5-3-6.6-3-6.6a25.177,25.177,0,0,1-3.3-1.35,14.608,14.608,0,0,1-5.248-8.846c-.15-1.5-.9-4.348.3-5.548,1.949-1.949,4.5-3.148,5.4-6.147,1.8-5.248.9-11.4,4.2-16.043,3.3-4.5,6.9-7.347,12.445-8.4a11.246,11.246,0,0,1,4.5-.45c3.149.6,5.848,2.4,9,3.3,3.6,1.049,7.946.9,10.945,3.3a13.451,13.451,0,0,1,3.9,4.8c.75,1.8,1.5,4.5,3,6,2.4,2.4,5.548,2.7,7.946,4.648,3.449,2.849,1.8,9.6.15,12.745-.45.9-3.6,2.7-3.6,2.7s-.9,10.2-1.2,12.295" transform="translate(-99.902 -44.86)" fill="#ffd7b5" fill-rule="evenodd"/>
            <path id="패스_3533" data-name="패스 3533" d="M143.538,19.8c3.149-3.3,3.9-6.447,9.6-8.246,15.143-4.948,29.987-7.047,39.283.9s9.146,35.085,9.146,35.085-1.649,1.949-5.4-1.8c-1.5-1.649-3.148-9.9-5.547-11.4-3-2.1-6.148-1.05-10.2-2.1-4.8-1.2-10.8-4.048-14.394-3.449-4.648.75-11.845,4.048-14.994,8.1-3.3,4.048-.3,9.146-1.35,13.944a6.9,6.9,0,0,1-5.547,5.4s-12.444-23.99-.6-36.435" transform="translate(-92.96 -4.805)" fill="#9f7a63" fill-rule="evenodd"/>
            <path id="패스_3534" data-name="패스 3534" d="M22.964,377.939a.879.879,0,0,1-.12-.007.9.9,0,0,1-.773-1.01l.208-1.571c2.334-17.708,4.021-30.5,13.862-39.749,4.807-4.524,13.157-8.278,19.256-11.019l1.532-.69c1.557-.691,4.141-2.127,6.877-3.648,4.382-2.435,9.349-5.2,12.258-6.134a.9.9,0,1,1,.554,1.712c-2.743.885-7.628,3.6-11.939,5.994-2.772,1.541-5.39,3-7.015,3.717l-1.53.69c-5.98,2.688-14.172,6.371-18.76,10.689C28,345.719,26.347,358.247,24.062,375.586l-.208,1.573a.9.9,0,0,1-.89.78" transform="translate(-14.816 -210.912)" fill="#5b2714"/>
            <path id="패스_3535" data-name="패스 3535" d="M405.41,391.84a.9.9,0,0,1-.89-.78c-1.1-8.274-2.3-14.871-3.69-22.509-.683-3.753-1.4-7.69-2.152-12.094-2.542-14.8-6.555-25.559-12.267-32.883C380.3,315.93,370.17,312.84,362.033,311c-1.877-.469-18.353-4.651-24.993-8.5a.9.9,0,1,1,.9-1.556c5.22,3.022,17.861,6.641,24.507,8.3,8.4,1.9,18.9,5.117,25.373,13.2,5.906,7.572,10.036,18.591,12.63,33.7.75,4.4,1.466,8.328,2.148,12.075,1.338,7.343,2.6,14.278,3.7,22.595a.9.9,0,0,1-.773,1.01.877.877,0,0,1-.12.007" transform="translate(-226.039 -202.022)" fill="#5b2714"/>
            <path id="패스_3536" data-name="패스 3536" d="M279.156,394.443a.9.9,0,0,1-.893-.805c-.656-6.273-.9-12.976-1.141-19.458-.148-3.985-.286-7.751-.512-11.315-.268-4.379-.87-8.845-1.451-13.165-.39-2.9-.794-5.889-1.094-8.842-.773-6.952.592-15.306,1.8-22.676.214-1.313.421-2.582.607-3.79a44.3,44.3,0,0,0,.2-8.455c-.158-3.914-.321-7.96,1.035-11.94,1.059-3.034,3.479-6.089,5.82-9.044,2.681-3.384,5.453-6.882,5.529-9.732a.876.876,0,0,1,.923-.875.9.9,0,0,1,.876.923c-.091,3.448-2.921,7.02-5.917,10.8-2.247,2.837-4.573,5.771-5.529,8.512-1.246,3.656-1.1,7.36-.938,11.281a45.618,45.618,0,0,1-.221,8.8c-.186,1.215-.394,2.489-.611,3.808-1.186,7.256-2.53,15.48-1.782,22.2.3,2.931.7,5.911,1.088,8.793.586,4.352,1.192,8.851,1.463,13.292.229,3.587.368,7.363.515,11.362.237,6.453.483,13.124,1.132,19.336a.9.9,0,0,1-.8.989c-.032,0-.063,0-.1,0" transform="translate(-183.898 -184.235)" fill="#5b2714"/>
            <path id="패스_3537" data-name="패스 3537" d="M228.952,335.564a.9.9,0,0,1-.816-.521c-.479-1.027-.937-1.994-1.375-2.918-2.3-4.836-4.11-8.656-5.14-13.933-.455-2.275-.7-4.261-.909-6.012-.332-2.746-.594-4.914-1.524-6.435-1.6-2.622-3.835-4.29-6.205-6.055-3.57-2.659-7.261-5.408-8.309-11.5a.9.9,0,0,1,1.775-.3c.925,5.387,4.173,7.806,7.611,10.366,2.4,1.791,4.887,3.641,6.665,6.561,1.132,1.854,1.416,4.194,1.775,7.155.209,1.72.445,3.668.887,5.88.987,5.059,2.671,8.6,5,13.51.439.928.9,1.9,1.381,2.931a.9.9,0,0,1-.816,1.279" transform="translate(-137.441 -192.827)" fill="#5b2714"/>
            <path id="패스_3538" data-name="패스 3538" d="M299.439,300.338c-1.388,0-2.861-1.635-4.675-3.65-1.829-2.032-4.319-4.818-5.825-4.3a.9.9,0,1,1-.586-1.7c2.608-.9,5.341,2.127,7.747,4.8,1.029,1.144,2.75,3.055,3.332,3.055a2.867,2.867,0,0,0,.324-1.016,56.244,56.244,0,0,1,2.132-7.514c1.246-3.736,2.535-7.6,1.476-9.033a26.055,26.055,0,0,1-3.04-5.691c-.735-1.754-1.183-2.749-1.842-2.792a.9.9,0,0,1-.838-.958.882.882,0,0,1,.957-.838c1.8.12,2.5,1.785,3.381,3.893a24.483,24.483,0,0,0,2.832,5.32c1.609,2.185.3,6.116-1.221,10.668a55.419,55.419,0,0,0-2.069,7.268c-.092.514-.376,2.077-1.612,2.428a1.709,1.709,0,0,1-.475.066" transform="translate(-193.238 -181.784)" fill="#5b2714"/>
            <path id="패스_3539" data-name="패스 3539" d="M204.167,268.2h-.023a.9.9,0,0,1-.876-.923,39.7,39.7,0,0,0-1.761-12.762.9.9,0,0,1,1.725-.517,41.5,41.5,0,0,1,1.834,13.327.9.9,0,0,1-.9.876" transform="translate(-135.297 -170.141)" fill="#5b2714"/>
            <path id="패스_3540" data-name="패스 3540" d="M315.365,253.4a.9.9,0,0,1-.884-.741l-.12-.671c-.981-5.452-1.69-9.391-1.543-15.1a.9.9,0,0,1,.9-.877h.024a.9.9,0,0,1,.875.922c-.14,5.529.519,9.193,1.516,14.74l.122.672a.9.9,0,0,1-.727,1.044.842.842,0,0,1-.161.015" transform="translate(-210.06 -158.492)" fill="#5b2714"/>
            <path id="패스_3541" data-name="패스 3541" d="M196.108,198.847c-6.138,0-15.489-2.709-20.913-9.6-4.5-5.593-6.557-11.5-8.372-16.7-.457-1.313-.9-2.576-1.356-3.771a.9.9,0,1,1,1.678-.646c.467,1.211.914,2.492,1.378,3.824,1.767,5.071,3.77,10.819,8.081,16.177,5.069,6.442,15.049,9.588,21.38,8.817,5.826-.711,14-7.519,16.827-14.01,2.611-6,2.773-14.857,2.881-20.716l.043-2.038a.858.858,0,0,1,.921-.877.9.9,0,0,1,.877.922l-.041,2.027c-.111,6-.278,15.067-3.032,21.4-3.088,7.1-11.79,14.289-18.259,15.078a17.493,17.493,0,0,1-2.092.119" transform="translate(-111.079 -106.975)" fill="#5b2714"/>
            <path id="패스_3542" data-name="패스 3542" d="M155.347,173.034a.894.894,0,0,1-.218-.027c-5.015-1.254-9.3-8.644-9.165-13.59.076-2.779,1.523-4.642,3.965-5.11a.9.9,0,0,1,.34,1.767c-1.609.308-2.453,1.449-2.507,3.392-.117,4.178,3.72,10.774,7.8,11.8a.9.9,0,0,1-.218,1.772" transform="translate(-98.021 -103.615)" fill="#5b2714"/>
            <path id="패스_3543" data-name="패스 3543" d="M324.852,146.454a.9.9,0,0,1-.23-1.77c2.694-.713,4.994-7.635,3.908-11.756-.575-2.18-1.9-2.961-4.05-2.4a.9.9,0,1,1-.457-1.739c3.129-.821,5.411.513,6.246,3.678,1.253,4.751-1.264,12.917-5.188,13.955a.892.892,0,0,1-.23.03" transform="translate(-217.148 -86.331)" fill="#5b2714"/>
            <path id="패스_3544" data-name="패스 3544" d="M196.005,313.74c-.045,0-.089,0-.135-.006-1.148-.094-1.726-1.4-2.1-2.521a49.366,49.366,0,0,0-4.217-8.631c-2.371-4.134-4.245-7.4-2.517-9.473a24.556,24.556,0,0,0,2.8-5.276c.883-2.108,1.58-3.773,3.381-3.892a.9.9,0,0,1,.12,1.8c-.66.044-1.107,1.038-1.842,2.792a26.057,26.057,0,0,1-3.038,5.689c-.961,1.155.8,4.222,2.66,7.469a50.748,50.748,0,0,1,4.363,8.956,4.43,4.43,0,0,0,.557,1.227,15.95,15.95,0,0,0,1.921-3.148c1.883-3.575,4.471-8.475,8.649-7.83a.9.9,0,0,1-.269,1.779c-2.934-.439-5.159,3.8-6.788,6.89-1.316,2.5-2.2,4.178-3.54,4.178" transform="translate(-125.153 -190.681)" fill="#5b2714"/>
            <path id="패스_3545" data-name="패스 3545" d="M142.787,84.248a.9.9,0,0,1-.805-.5c-4.2-8.4-7.38-24.242-1.287-33.147a.9.9,0,0,1,1.485,1.016c-5.68,8.3-2.593,23.316,1.413,31.325a.9.9,0,0,1-.805,1.3" transform="translate(-92.208 -33.721)" fill="#5b2714"/>
            <path id="패스_3546" data-name="패스 3546" d="M157.63,14.393a.9.9,0,0,1-.839-1.222c2.271-5.908,9.267-7.679,13.448-8.738l.811-.206c.916-.238,1.766-.416,2.575-.584,2.715-.567,4.858-1.014,7.714-3.43A.9.9,0,1,1,182.5,1.585,16.429,16.429,0,0,1,173.993,5.4c-.783.164-1.6.334-2.492.565l-.821.21c-4.089,1.035-10.271,2.6-12.21,7.639a.9.9,0,0,1-.839.577" transform="translate(-105.253 0)" fill="#5b2714"/>
            <path id="패스_3547" data-name="패스 3547" d="M263.618,20.221a.9.9,0,0,1-.89-.777c-.558-4.038-3.731-6.784-6.295-8.375-5.343-3.319-12.96-4.626-17.719-3.038a.9.9,0,0,1-.568-1.708c5.3-1.765,13.392-.414,19.235,3.217,4.145,2.575,6.611,5.914,7.129,9.658a.9.9,0,0,1-.769,1.014.882.882,0,0,1-.124.009" transform="translate(-159.515 -3.729)" fill="#5b2714"/>
            <path id="패스_3548" data-name="패스 3548" d="M322.23,79.115a.9.9,0,0,1-.9-.9c0-6.04-.226-12.986-2.92-18.973a.9.9,0,1,1,1.64-.738c2.84,6.312,3.078,13.484,3.078,19.711a.9.9,0,0,1-.9.9" transform="translate(-213.777 -38.933)" fill="#5b2714"/>
            <path id="패스_3549" data-name="패스 3549" d="M167.221,108.674a.9.9,0,0,1-.636-1.536c1.7-1.7,1.552-4.282,1.4-7.013-.188-3.26-.4-6.956,2.715-9.536a.9.9,0,1,1,1.148,1.385c-2.413,2-2.245,4.938-2.066,8.048.173,3.007.351,6.117-1.921,8.388a.9.9,0,0,1-.636.264" transform="translate(-111.694 -60.696)" fill="#5b2714"/>
            <path id="패스_3550" data-name="패스 3550" d="M193.242,70.5a.9.9,0,0,1-.9-.9c0-2.313,1.442-5.313,3.59-6.094a.9.9,0,0,1,.615,1.692c-1.215.441-2.407,2.622-2.407,4.4a.9.9,0,0,1-.9.9" transform="translate(-129.169 -42.609)" fill="#5b2714"/>
            <path id="패스_3551" data-name="패스 3551" d="M235.136,74.817c-3.3,0-6.775-1.215-9.974-2.334a42.781,42.781,0,0,0-5.407-1.646c-1.643-.349-4.317-.08-5.166,1.619a.9.9,0,0,1-1.611-.8c1.218-2.436,4.513-3.138,7.141-2.576a43.894,43.894,0,0,1,5.637,1.71c4.855,1.7,9.873,3.456,13.8,1.1a.9.9,0,1,1,.925,1.543,10.175,10.175,0,0,1-5.349,1.393" transform="translate(-142.963 -46.265)" fill="#5b2714"/>
            <path id="패스_3552" data-name="패스 3552" d="M301.06,100.41a.9.9,0,0,1-.874-.7c-1.037-4.439-1.728-6.652-4-9.2a.9.9,0,0,1,1.344-1.2c2.532,2.847,3.319,5.346,4.4,9.99a.9.9,0,0,1-.877,1.1" transform="translate(-198.755 -59.779)" fill="#5b2714"/>
            <path id="패스_3553" data-name="패스 3553" d="M243.538,168.048a.9.9,0,0,1-.54-.18c-1.731-1.3-3.4-2.764-3.205-5.142a4.991,4.991,0,0,1,.568-1.9c.693-1.577,1.642-3.737-.477-7.971a.9.9,0,0,1,1.609-.805c2.5,4.989,1.3,7.7.515,9.5a3.963,3.963,0,0,0-.42,1.249c-.1,1.261.529,2.157,2.491,3.628a.9.9,0,0,1-.54,1.62" transform="translate(-161.023 -101.778)" fill="#5b2714"/>
            <path id="패스_3554" data-name="패스 3554" d="M234.671,224.726a15.276,15.276,0,0,1-4.258-.537.9.9,0,0,1,.512-1.725c3.936,1.167,10.772.064,14.068-2.27a.9.9,0,0,1,1.04,1.469c-2.693,1.907-7.323,3.064-11.362,3.064" transform="translate(-154.303 -147.76)" fill="#5b2714"/>
            <path id="패스_3555" data-name="패스 3555" d="M202.224,160.912c-.3-1.5.3-2.849,1.35-3a2.526,2.526,0,0,1,2.549,2.249c.3,1.5-.3,2.849-1.349,3a2.555,2.555,0,0,1-2.549-2.249" transform="translate(-135.753 -106.036)" fill="#5b2714" fill-rule="evenodd"/>
            <path id="패스_3556" data-name="패스 3556" d="M272.984,150.412c-.3-1.5.3-2.849,1.5-3a2.307,2.307,0,0,1,2.4,2.249c.3,1.5-.3,2.849-1.5,3-1.05.15-2.1-.75-2.4-2.249" transform="translate(-183.272 -98.985)" fill="#5b2714" fill-rule="evenodd"/>
            <path id="패스_3557" data-name="패스 3557" d="M186.85,136.84a.9.9,0,0,1-.5-1.648c4.282-2.856,10.254-2.126,10.509-2.093a.9.9,0,0,1,.777,1.006.877.877,0,0,1-1.006.779c-.053,0-5.566-.669-9.282,1.8a.892.892,0,0,1-.5.152" transform="translate(-124.875 -89.311)" fill="#5b2714"/>
            <path id="패스_3558" data-name="패스 3558" d="M256.692,125.78a.9.9,0,0,1-.425-1.693,15.915,15.915,0,0,1,11-1.575.9.9,0,0,1-.469,1.738c-3.441-.925-7.369.188-9.689,1.424a.9.9,0,0,1-.422.106" transform="translate(-171.778 -82)" fill="#5b2714"/>
            <path id="패스_3559" data-name="패스 3559" d="M49.75,50.54a5.376,5.376,0,0,1-3.448-2.4c-1.35-2.1-1.8-6.148-1.8-6.148s-.15,3.9-1.5,6a5.576,5.576,0,0,1-4.048,2.249A5.862,5.862,0,0,1,42.7,52.49c1.35,1.949,1.649,6.147,1.649,6.147s.3-3.748,1.5-5.7a7.074,7.074,0,0,1,3.9-2.4" transform="translate(-26.16 -28.201)" fill="#fff" fill-rule="evenodd"/>
          </g>
        </g>
      </g>
    </g>
    <g id="그룹_1026" data-name="그룹 1026" transform="translate(1199.064 940.033)">
      <g id="타원_74" data-name="타원 74" transform="translate(-0.065 -0.033)" fill="#eff0f1" stroke="#707070" stroke-width="1">
        <circle cx="72.5" cy="72.5" r="72.5" stroke="none"/>
        <circle cx="72.5" cy="72.5" r="73" fill="none"/>
      </g>
      <g id="마스크_그룹_11" data-name="마스크 그룹 11" transform="translate(0 0)" clip-path="url(#clip-path-5)">
        <g id="그룹_1021" data-name="그룹 1021" transform="translate(-8.256 15.83)">
          <g id="그룹_1020" data-name="그룹 1020" clip-path="url(#clip-path-6)">
            <path id="패스_3560" data-name="패스 3560" d="M145.755,34.7c-.73-1.021-3.5-3.211-3.794-4.524-2.481-9.923,6.129-18.1,14.3-21.744,4.67-2.189,8.464-4.232,13.426-4.816,2.189-.292,8.756.438,11.091.876a36.45,36.45,0,0,1,5.545.876c5.4,2.189,10.653,3.21,13.864,8.172,4.086,6.13,6.567,7.151,6.567,14.3,0,5.108-.438,11.237-.438,11.237s5.691,6.859,5.108,10.945c-.73,5.108-4.961,12.4-9.34,15.323-1.314.876-7.734,3.065-9.486,2.481-1.459-.584-1.605-4.524-1.605-4.524s1.459-4.67.146-6.421c-5.4-7.3-11.821-13.864-19.993-18.1-5.108-2.627-10.945-4.816-16.783-5.108-2.043-.146-3.94,0-5.983,0-1.167-.146-1.9,2.043-2.627,1.021" transform="translate(-96.283 -2.417)" fill="#e97668" fill-rule="evenodd"/>
            <path id="패스_3561" data-name="패스 3561" d="M92.224,299.316c3.356-4.086,19.7-15.323,19.7-15.323l5.838-10.07,31.084-12.7,1.605,2.043,1.459,7.3s6.275-.438,11.529-.292c4.232.146,7.88.73,12.113,3.94,5.4,4.086,7.442,13.572,8.61,24.225a187.706,187.706,0,0,1,1.168,20.139c.145,11.821-.73,24.517-1.168,36.192-.583,15.177-.438,25.392-4.086,32.689-3.064,5.837-6.713,6.859-10.361,6.859-3.357,0-7.151-.146-7.151-.146s0,2.481.146,4.962a10.3,10.3,0,0,1-1.021,4.524,54.38,54.38,0,0,1-8.172,4.816c-5.108,2.627-12.842,6.421-21.6,6.859a138.408,138.408,0,0,1-29.041-2.189,88.553,88.553,0,0,1-17.512-5.254,9.656,9.656,0,0,1-2.918-7.3c.292-8.172,1.9-26.268,1.9-26.268l-1.9-14.155-.73-6.421s-3.356-7.442-3.794-12.112a15.916,15.916,0,0,1,1.459-8.318l4.962-9.34c0-.146,3.356-19.263,7.881-24.663" transform="translate(-52.967 -177.718)" fill="#fff" fill-rule="evenodd"/>
            <path id="패스_3562" data-name="패스 3562" d="M169.344,148.732s.438-1.314,0-6.567c-.146-1.605-.438-5.545-.584-7.151-.292-4.378.292-3.356.146-8.318-.146-3.211-1.022-11.237-1.022-11.237s-3.5-3.357-4.232-4.086a37.771,37.771,0,0,1-5.837-9.924c-3.065-7.589-3.794-13.864-4.524-22.182a65.689,65.689,0,0,1-.146-14.156,19.707,19.707,0,0,1,2.627-9.048c3.211-5.691,11.383-8.318,17.512-7.734,4.962.438,7.88,5.837,10.653,9.34,2.627,3.356,5.254,6.567,8.172,9.632,2.627,2.919,5.254,5.4,8.9,7s7.88-.584,9.923,3.5c1.752,3.5-.876,9.632-4.086,11.967-2.189,1.605-5.107,1.021-5.983,3.94s-1.313,12.4-1.9,18.242a25.746,25.746,0,0,0,.584,6.421s-4.232,4.816-6.421,6.859a67.521,67.521,0,0,1-6.275,4.962c-2.773,2.043-6.713,3.794-8.756,6.275-1.459,1.9-2.043,3.794-3.5,5.837a38.719,38.719,0,0,1-3.064,3.794c-.584.729-2.189,2.627-2.189,2.627" transform="translate(-103.966 -32.825)" fill="#ffe5ce" fill-rule="evenodd"/>
            <path id="패스_3563" data-name="패스 3563" d="M81.061,464.466a.876.876,0,0,1-.875-.831,26.983,26.983,0,0,0-2.193-9.778,39.826,39.826,0,0,1-2.464-8.657c-.971-5.917,3.42-13.3,7.664-20.438,2.39-4.017,4.648-7.813,5.645-10.912a.876.876,0,0,1,1.667.536c-1.059,3.288-3.365,7.165-5.806,11.271-3.895,6.55-8.31,13.972-7.444,19.258a37.876,37.876,0,0,0,2.37,8.311,28.769,28.769,0,0,1,2.31,10.319.876.876,0,0,1-.831.919Z" transform="translate(-51.291 -281.138)" fill="#5b2714"/>
            <path id="패스_3564" data-name="패스 3564" d="M95.371,368a.851.851,0,0,1-.237-.034.873.873,0,0,1-.605-1.079c.632-2.254,1.21-4.659,1.768-6.986,1.77-7.379,3.6-15.011,7.616-19.484,3.494-3.92,8.086-7.125,12.14-9.953a60.538,60.538,0,0,0,7.741-5.989.875.875,0,0,1,1.237,1.238,61.5,61.5,0,0,1-7.976,6.186c-3.974,2.774-8.477,5.917-11.836,9.685-3.721,4.145-5.5,11.556-7.218,18.725-.563,2.343-1.143,4.764-1.787,7.05a.875.875,0,0,1-.842.64" transform="translate(-64.288 -220.576)" fill="#5b2714"/>
            <path id="패스_3565" data-name="패스 3565" d="M209.58,412.223c-14.716,0-38.253-6.858-41.628-7.864-4.483-1.325-8.334-2.4-11.6-3.313-9.476-2.648-13.8-3.857-15.156-5.952a.876.876,0,0,1,1.471-.952c.995,1.539,5.948,2.923,14.156,5.217,3.271.913,7.129,1.991,11.625,3.321,21.042,6.276,44.744,10.52,50.265,5.863,6.7-5.822,7.017-18.83,7.327-31.41.084-3.432.171-6.979.39-10.3.948-14.354,2.381-36.045-1.159-59.059-1.982-13.217-9.044-18.612-14.991-19.255a109.008,109.008,0,0,0-15.312.148.886.886,0,0,1-.936-.812.876.876,0,0,1,.811-.935,110.97,110.97,0,0,1,15.625-.143c6.6.713,14.4,6.534,16.534,20.733,3.569,23.2,2.128,45.008,1.174,59.436-.216,3.286-.3,6.815-.387,10.228-.318,12.96-.646,26.361-7.938,32.7-2.005,1.693-5.716,2.35-10.274,2.35" transform="translate(-95.965 -194.946)" fill="#5b2714"/>
            <path id="패스_3566" data-name="패스 3566" d="M306.636,484.432a.874.874,0,0,1-.875-.851c-.2-6.924-.047-12.925.084-18.22.253-10.261.437-17.673-2.183-23.009a.875.875,0,0,1,1.571-.772c2.812,5.721,2.624,13.315,2.363,23.824-.131,5.274-.279,11.251-.084,18.129a.874.874,0,0,1-.851.9Z" transform="translate(-206.526 -300.083)" fill="#5b2714"/>
            <path id="패스_3567" data-name="패스 3567" d="M302.624,341.994c-.023,0-.047,0-.07,0a.877.877,0,0,1-.8-.941c.833-10.668,2.689-21.876,10.555-31.567a.875.875,0,1,1,1.359,1.1c-7.941,9.784-9.411,20.926-10.167,30.6a.877.877,0,0,1-.872.807" transform="translate(-205.285 -210.327)" fill="#5b2714"/>
            <path id="패스_3568" data-name="패스 3568" d="M142.822,362.817a.877.877,0,0,1-.868-.765c-2.139-16.973-1.323-24.055,4.159-36.082,1.771-3.937,3.476-8.316,5.123-12.548,3.276-8.422,6.372-16.375,9.745-20.344,1.305-1.536,2.25-2.589,2.971-3.395,1.989-2.221,2.2-2.453,3.758-5.886,1.046-2.37,3.976-4.482,7.689-7.154,4.773-3.438,10.713-7.714,15.9-14.608a.876.876,0,1,1,1.4,1.053c-5.35,7.106-11.667,11.655-16.279,14.976-3.5,2.517-6.256,4.5-7.114,6.449-1.674,3.686-1.992,4.039-4.052,6.339-.714.8-1.649,1.84-2.941,3.36-3.182,3.744-6.225,11.565-9.447,19.844-1.656,4.256-3.368,8.653-5.161,12.637-5.045,11.07-6.256,17.359-4.015,35.14a.878.878,0,0,1-.76.979,1,1,0,0,1-.111.006" transform="translate(-95.832 -178.03)" fill="#5b2714"/>
            <path id="패스_3569" data-name="패스 3569" d="M200.9,322.142a.928.928,0,0,1-.138-.01.877.877,0,0,1-.728-1,38.269,38.269,0,0,0-.219-11.9c-.4-2.878-.711-5.15.154-6.883a.876.876,0,0,1,1.568.783c-.624,1.248-.343,3.283.013,5.861a39.784,39.784,0,0,1,.215,12.42.876.876,0,0,1-.864.738" transform="translate(-135.668 -205.36)" fill="#5b2714"/>
            <path id="패스_3570" data-name="패스 3570" d="M170.938,316.945a1.461,1.461,0,0,1-.224-.017,1.264,1.264,0,0,1-.858-.527c-.621-.829.138-1.843,1.806-4.064a39.5,39.5,0,0,0,2.673-3.877c.569-.995,1.072-2.065,1.557-3.1a20.536,20.536,0,0,1,3.691-5.987.876.876,0,0,1,1.24,1.238,18.977,18.977,0,0,0-3.346,5.493c-.5,1.066-1.018,2.168-1.622,3.224a40.666,40.666,0,0,1-2.793,4.06c-.255.339-.532.708-.785,1.057.651-.455,1.4-1.033,1.988-1.49,2.913-2.253,5.668-4.387,7.165-2.758a.875.875,0,1,1-1.285,1.187c-.667-.242-3.465,1.917-4.807,2.956-2.169,1.677-3.416,2.6-4.4,2.6" transform="translate(-115.41 -203.495)" fill="#5b2714"/>
            <path id="패스_3571" data-name="패스 3571" d="M234.737,291.652a1.439,1.439,0,0,1-1.079-.486,9.092,9.092,0,0,1-1.377-2.915c-.923-2.6-2.073-5.832-5.152-6.448a.876.876,0,0,1,.345-1.717c4.052.811,5.5,4.883,6.457,7.578a11.935,11.935,0,0,0,.912,2.179c.822-.47,2.69-3.229,3.952-5.092a56.847,56.847,0,0,1,4.2-5.7c1.459-1.694,2.7-3.261,3.9-4.776a69.756,69.756,0,0,1,5.1-5.977c.291-1.229-1.367-7.669-2.232-8.637a.876.876,0,0,1,.8-1.555c1.582.678,2.9,7.324,2.913,7.391.537,2.8.242,3.556-.158,3.956a66.676,66.676,0,0,0-5.048,5.908c-1.21,1.529-2.461,3.111-3.956,4.844a55.957,55.957,0,0,0-4.063,5.53c-2.584,3.818-4,5.815-5.4,5.915-.036,0-.072,0-.107,0m15.129-31.939h0" transform="translate(-154.043 -175.546)" fill="#5b2714"/>
            <path id="패스_3572" data-name="패스 3572" d="M296.792,221.944a.876.876,0,0,1-.875-.838c-.22-5.039-.413-14.384.745-20.344a.876.876,0,0,1,1.719.335c-1.125,5.782-.931,14.971-.714,19.933a.875.875,0,0,1-.836.913h-.039" transform="translate(-201.205 -136.1)" fill="#5b2714"/>
            <path id="패스_3573" data-name="패스 3573" d="M199.106,274.938a.878.878,0,0,1-.862-1.038c.863-4.563-.016-11.247-.723-16.618-.108-.822-.212-1.617-.308-2.375a.876.876,0,0,1,1.738-.216c.094.754.2,1.546.305,2.363.724,5.5,1.623,12.334.708,17.172a.876.876,0,0,1-.859.713" transform="translate(-134.164 -172.749)" fill="#5b2714"/>
            <path id="패스_3574" data-name="패스 3574" d="M151.865,77.237a.875.875,0,0,1-.875-.849c-.147-4.81-.49-16.073,6.661-20.892a.875.875,0,1,1,.978,1.452c-6.349,4.279-6.027,14.866-5.889,19.387a.875.875,0,0,1-.848.9h-.027" transform="translate(-102.685 -37.653)" fill="#5b2714"/>
            <path id="패스_3575" data-name="패스 3575" d="M176.363,200.154c-.321,0-.636-.013-.945-.04-7.253-.473-12.6-6.757-15.169-12.48a62.315,62.315,0,0,1-5.03-17.16.876.876,0,0,1,1.733-.255,60.6,60.6,0,0,0,4.89,16.687c2.37,5.267,7.214,11.038,13.71,11.461,6.373.551,16.164-5.693,21.842-13.925a.876.876,0,1,1,1.442.995c-5.829,8.453-15.487,14.716-22.472,14.716" transform="translate(-105.592 -115.294)" fill="#5b2714"/>
            <path id="패스_3576" data-name="패스 3576" d="M306.731,146.859a.876.876,0,0,1,0-1.752c3.486,0,6.687-4.051,7.767-7.968.65-2.358.17-4.888-1.144-6.016-.976-.839-2.35-.875-4.076-.1a.876.876,0,0,1-.715-1.6c3.149-1.406,5.068-.371,5.933.373,1.83,1.572,2.525,4.783,1.69,7.81-1.237,4.486-4.971,9.253-9.454,9.253" transform="translate(-208.08 -87.575)" fill="#5b2714"/>
            <path id="패스_3577" data-name="패스 3577" d="M312.662,153.779a.877.877,0,0,1-.755-1.316,6.214,6.214,0,0,1,2.816-2.579.876.876,0,0,1,.553,1.662,4.628,4.628,0,0,0-1.857,1.8.875.875,0,0,1-.757.433" transform="translate(-212.116 -101.938)" fill="#5b2714"/>
            <path id="패스_3578" data-name="패스 3578" d="M233.825,70.928a.9.9,0,0,1-.169-.016c-5.612-1.1-10.608-7.482-15.439-13.66-5.753-7.356-11.19-14.3-16.455-10.838a.876.876,0,0,1-.964-1.464c6.618-4.342,12.808,3.566,18.8,11.224,4.633,5.925,9.423,12.05,14.4,13.019a.876.876,0,0,1-.167,1.735" transform="translate(-136.339 -29.74)" fill="#5b2714"/>
            <path id="패스_3579" data-name="패스 3579" d="M142.9,57.044a.869.869,0,0,1-.488-.15,9.152,9.152,0,0,1-4.222-7.83c-.027-4.579,2.906-9.815,7.133-12.733a.875.875,0,1,1,.995,1.441c-3.778,2.609-6.4,7.248-6.376,11.283a7.472,7.472,0,0,0,3.449,6.388.875.875,0,0,1-.49,1.6" transform="translate(-94.014 -24.611)" fill="#5b2714"/>
            <path id="패스_3580" data-name="패스 3580" d="M234.52,41.48a.875.875,0,0,1-.813-1.2,28.747,28.747,0,0,0-5.651-30c-4.917-4.78-10.489-6.4-15.773-7.64-9.017-1.985-19.068-.6-25.6,3.536a.876.876,0,0,1-.938-1.479C192.653.326,203.223-1.152,212.672.93c5.535,1.3,11.367,3,16.62,8.108a30.545,30.545,0,0,1,6.04,31.891.874.874,0,0,1-.812.551" transform="translate(-126.091 0.001)" fill="#5b2714"/>
            <path id="패스_3581" data-name="패스 3581" d="M310.838,142.638a.876.876,0,0,1-.153-1.738c7.79-1.394,12.508-8.356,13.731-14.636,1.012-5.2-.4-9.714-3.682-11.78a.875.875,0,1,1,.932-1.482c3.911,2.459,5.622,7.669,4.469,13.6-1.335,6.868-6.536,14.486-15.142,16.026a.877.877,0,0,1-.155.013" transform="translate(-210.874 -76.786)" fill="#5b2714"/>
            <path id="패스_3582" data-name="패스 3582" d="M197.722,149.461a.872.872,0,0,1-.495-.154c-2.286-1.57-4.167-3.467-2.467-6.677l.093-.172c.948-1.752,1.843-3.407.017-7.841a.876.876,0,0,1,1.619-.667c2.143,5.2.953,7.4-.1,9.342l-.088.163c-.921,1.736-.473,2.768,1.914,4.408a.876.876,0,0,1-.5,1.6" transform="translate(-132.053 -90.76)" fill="#5b2714"/>
            <path id="패스_3583" data-name="패스 3583" d="M190.361,200.165s4.815.146,7.734,0c3.357-.146,8.61-1.021,8.61-1.021s-.729,8.318-7.734,9.048c-6.421.584-8.61-8.026-8.61-8.026" transform="translate(-129.506 -135.482)" fill="#fff" fill-rule="evenodd"/>
            <path id="패스_3584" data-name="패스 3584" d="M196.475,207.235c-6.533,0-8.732-8.347-8.824-8.715a.873.873,0,0,1,.166-.764.8.8,0,0,1,.709-.327c.047,0,4.817.145,7.663,0,3.269-.143,8.457-1,8.51-1.011a.882.882,0,0,1,.738.221.871.871,0,0,1,.278.719c-.009.09-.881,9.047-8.515,9.843-.247.023-.489.034-.724.034m-6.756-8.025c.811,2.158,3.03,6.656,7.309,6.248,4.724-.492,6.275-4.976,6.749-7.121-1.764.269-5.088.736-7.506.842-2.029.1-4.92.064-6.553.031" transform="translate(-127.644 -133.621)" fill="#5b2714"/>
            <path id="패스_3585" data-name="패스 3585" d="M172.523,138.464a2.42,2.42,0,0,1,1.751-2.773,2.31,2.31,0,0,1,2.043,2.481,2.42,2.42,0,0,1-1.751,2.773,2.31,2.31,0,0,1-2.043-2.481" transform="translate(-117.36 -92.313)" fill="#5b2714" fill-rule="evenodd"/>
            <path id="패스_3586" data-name="패스 3586" d="M236.433,134.957a2.553,2.553,0,0,1,1.9-2.919c1.167,0,2.043,1.167,2.189,2.627a2.552,2.552,0,0,1-1.9,2.919c-1.022.146-2.043-1.021-2.189-2.627" transform="translate(-160.84 -89.828)" fill="#5b2714" fill-rule="evenodd"/>
            <path id="패스_3587" data-name="패스 3587" d="M164.3,116.705a.876.876,0,0,1-.392-1.659,10.519,10.519,0,0,1,7.79-.145.876.876,0,1,1-.784,1.566,8.842,8.842,0,0,0-6.222.145.878.878,0,0,1-.392.093" transform="translate(-111.181 -77.706)" fill="#5b2714"/>
            <path id="패스_3588" data-name="패스 3588" d="M225.475,113.669a.875.875,0,0,1-.416-1.646,12.09,12.09,0,0,1,10.107-.176.876.876,0,0,1-.7,1.6,10.4,10.4,0,0,0-8.573.115.869.869,0,0,1-.413.1" transform="translate(-152.798 -75.4)" fill="#5b2714"/>
            <path id="패스_3589" data-name="패스 3589" d="M419.988,81.467a5.233,5.233,0,0,1-3.357-2.335c-1.313-2.043-1.751-5.983-1.751-5.983s-.146,3.795-1.459,5.838a5.427,5.427,0,0,1-3.94,2.189,5.705,5.705,0,0,1,3.648,2.189c1.314,1.9,1.605,5.983,1.605,5.983s.292-3.648,1.459-5.545a6.458,6.458,0,0,1,3.795-2.335" transform="translate(-278.578 -49.765)" fill="#fff" fill-rule="evenodd"/>
            <path id="패스_3590" data-name="패스 3590" d="M8.61,62.059a4.451,4.451,0,0,1-2.773-1.9,15.354,15.354,0,0,1-1.459-4.816s0,3.211-1.168,4.816A4.5,4.5,0,0,1,0,61.913a5.384,5.384,0,0,1,3.065,1.751A13.782,13.782,0,0,1,4.378,68.48a11.46,11.46,0,0,1,1.167-4.524,6.141,6.141,0,0,1,3.065-1.9" transform="translate(0 -37.653)" fill="#fff" fill-rule="evenodd"/>
          </g>
        </g>
      </g>
    </g>
    <g id="그룹_1028" data-name="그룹 1028" transform="translate(784.688 940.033)">
      <g id="타원_75" data-name="타원 75" transform="translate(0.312 -0.033)" fill="#eff0f1" stroke="#707070" stroke-width="1">
        <circle cx="72.5" cy="72.5" r="72.5" stroke="none"/>
        <circle cx="72.5" cy="72.5" r="73" fill="none"/>
      </g>
      <g id="마스크_그룹_12" data-name="마스크 그룹 12" transform="translate(0 0)" clip-path="url(#clip-path-7)">
        <g id="그룹_1023" data-name="그룹 1023" transform="translate(-0.133 17.355)">
          <g id="그룹_1022" data-name="그룹 1022" clip-path="url(#clip-path-8)">
            <path id="패스_3591" data-name="패스 3591" d="M18.2,297.047C21,291.175,33.684,286.1,33.684,286.1s6.406-3.6,8.141-2.8c5.338,2.536,16.282-14.68,21.487-8.008,4.538,5.739,44.309-9.075,47.111.8.8,3.07,10.143,2.135,18.151,6.673a21.287,21.287,0,0,1,8.541,9.209c3.337,7.207,7.474,20.553,7.474,20.553l6.006,17.483s-2.936,47.245-2.135,57.522c.4,4.538-9.476-.267-16.415-4.671-5.739-3.6-10.143-7.073-10.143-7.073a59.474,59.474,0,0,0-.4,8.541,89.251,89.251,0,0,0,2.536,18.684c3.2,12.945,7.874,27.493,9.743,36.435.934,4.4,1.2,7.607.133,9.209-2.135,3.069-6.806,4.671-12.278,7.34C108.689,462.4,90.271,468.01,84.4,464.674c-1.6-.934-1.735-7.607-2-13.747-.133-3.737-.667-8.008-.667-8.008s-1.2,8.141-1.735,12.812c-.534,5.205-1.068,7.874-3.87,9.476-2.936,1.735-8.275-.267-13.88-2-10.143-3.069-22.555-8.274-29.9-12.545-3.737-2.269-4.671-4.4-4.671-4.4s-.4-1.468.4-9.609,3.2-21.354,3.2-21.354,4.4-21.487,4.538-27.626a182.559,182.559,0,0,0-.4-18.951,94.838,94.838,0,0,1-8.541,12.545C21.939,387,16.2,391.671,11.529,391.27,8.46,391,5.39,379.659,4.456,374.988c-1.6-8.141,1.6-19.085,4.8-34.7,3.87-19.752,4.8-34.3,8.942-43.241" transform="translate(-2.852 -192.905)" fill="#fff" fill-rule="evenodd"/>
            <path id="패스_3592" data-name="패스 3592" d="M110.108,22.612c2.8-6.673,7.741-10.677,14.013-14.147,6.406-3.47,14.013-6.273,20.953-5.739,9.075.667,19.619,8.408,22.555,14.948a34.38,34.38,0,0,1,4.4,16.015c.134,2.936,1.068,16.282,2.936,21.754,1.868,5.338,4.8,8.141,6.139,12.278,1.468,4.4,1.068,10.009-1.335,15.748-.4.934-3.069,6.006-3.2,9.342-.133,3.87,2.135,6.006.134,8.008-3.737,3.737-12.145.267-14.681-.934-6.54-2.936-5.338-8.675-4.137-12.545a27.032,27.032,0,0,0,.8-4l-30.028.267a17.4,17.4,0,0,1-1.468,3.47,19.368,19.368,0,0,0-2.536,7.207c-.267,3.2,1.6,3.336-.534,5.739-5.071,5.739-15.348,6.006-21.621-4.538-2.135-3.6-1.735-7.607-1.068-10.944,1.335-5.739,4.938-10.944,6.139-18.818,1.2-7.741-.667-15.882-.8-24.69a53.828,53.828,0,0,1,3.336-18.418" transform="translate(-71.401 -1.883)" fill="#fdb596" fill-rule="evenodd"/>
            <path id="패스_3593" data-name="패스 3593" d="M160.874,56.343c-3.069-2.536-5.872-.267-7.607,2.135a24.386,24.386,0,0,0-4.538,12.812c-.134,2.536.267,7.074-.934,9.342-1.068,1.735-3.069,1.6-3.6,3.87-1.2,5.205,2.8,8.809,6.006,12.145,2.536,2.536,3.337,7.073,5.338,9.876.667.8,4.271,4.271,4.271,4.271s.267,2,.4,4.271c0,2.269-1.2,4.4-.134,7.34,1.468,4.538,6.94,7.34,10.143,10.143,3.87,3.47,3.337,7.741,4.938,12.412a18.59,18.59,0,0,0,2.135,4.671c.133.133.934,1.6.934,1.468.134-.133,0-1.068,0-1.068v-4c0-3.737-.667-7.741.667-11.344,1.068-3.07,4-6.94,6.272-9.343a20.173,20.173,0,0,0,4.4-6.539c.8-2.4-.134-5.605-1.068-7.741-.267-.8-1.468-3.336-1.468-3.336a22.989,22.989,0,0,0,2.536-4.8c.934-2.936,2.536-10.276,2.536-10.276a5.037,5.037,0,0,0,2.536-1.335c1.868-2.536,3.737-7.741,1.868-10.677-.934-1.6-2-1.735-5.872-3.2s-6.94-2.269-10.143-3.87a62.563,62.563,0,0,1-10.544-6.94,56.608,56.608,0,0,1-6.139-6.54c-1.2-1.2-1.868-2.669-2.936-3.737" transform="translate(-101.882 -39.083)" fill="#ffe1c7" fill-rule="evenodd"/>
            <path id="패스_3594" data-name="패스 3594" d="M182.867,194.98c-8.055,0-16.74-7.351-19.119-12.5l-.529-1.212a72.752,72.752,0,0,1-4.32-11.724.8.8,0,0,1,1.544-.425,70.566,70.566,0,0,0,4.244,11.508l.523,1.2c2.3,4.981,11.075,12.036,18.43,11.533,7.3-.377,14.207-8.667,15.716-12.821,1.3-3.683,1.793-8.5,2.153-12.013.073-.712.14-1.37.207-1.952a.809.809,0,0,1,.887-.7.8.8,0,0,1,.7.887c-.066.576-.134,1.227-.205,1.932-.368,3.6-.872,8.52-2.238,12.39-1.682,4.626-9.043,13.462-17.129,13.879q-.432.03-.868.03" transform="translate(-112.424 -117.368)" fill="#5b2714"/>
            <path id="패스_3595" data-name="패스 3595" d="M148.851,162.107a.8.8,0,0,1-.253-.041c-4.077-1.36-7.241-7.815-6.875-11.949.194-2.191,1.388-3.607,3.276-3.883a.8.8,0,0,1,.232,1.585c-.426.062-1.719.252-1.913,2.44-.308,3.47,2.5,9.192,5.787,10.288a.8.8,0,0,1-.253,1.561" transform="translate(-100.268 -103.474)" fill="#5b2714"/>
            <path id="패스_3596" data-name="패스 3596" d="M306.208,148.942a.8.8,0,0,1-.165-1.584c2.291-.486,4.581-6.273,3.89-9.829-.513-2.637-2.323-2.316-2.917-2.212a.8.8,0,1,1-.279-1.577c2.47-.44,4.258.864,4.768,3.484.818,4.21-1.7,10.973-5.13,11.7a.821.821,0,0,1-.167.018" transform="translate(-216.12 -94.58)" fill="#5b2714"/>
            <path id="패스_3597" data-name="패스 3597" d="M211.825,196.407s4.8,0,7.607-.133c3.336-.267,8.408-1.2,8.408-1.2s-.267,8.541-7.474,9.075c-6.273.4-8.541-7.741-8.541-7.741" transform="translate(-149.897 -138.042)" fill="#fff" fill-rule="evenodd"/>
            <path id="패스_3598" data-name="패스 3598" d="M217.975,203.023c-6.459,0-8.762-7.992-8.859-8.341a.8.8,0,0,1,.771-1.016c.047,0,4.818,0,7.569-.132,3.231-.259,8.251-1.18,8.3-1.189a.8.8,0,0,1,.946.812c-.1,3.2-1.946,9.385-8.215,9.849-.173.011-.346.017-.513.017m-6.957-7.759c.815,2.038,3.039,6.414,7.36,6.144,5.079-.377,6.325-5.174,6.628-7.3-1.669.288-4.991.83-7.447,1.027-1.977.094-4.937.123-6.541.132" transform="translate(-147.959 -136.102)" fill="#5b2714"/>
            <path id="패스_3599" data-name="패스 3599" d="M233.52,145.311a.8.8,0,0,1-.589-1.344c1.7-1.838,1.871-2.736.781-4.008l-.181-.22c-1.2-1.452-2.56-3.1-1.735-7.911a.8.8,0,0,1,1.578.271c-.7,4.087.315,5.318,1.391,6.62l.174.211c2.038,2.377.8,4.348-.832,6.122a.8.8,0,0,1-.588.258" transform="translate(-163.851 -92.818)" fill="#5b2714"/>
            <path id="패스_3600" data-name="패스 3600" d="M192.611,139.6a2.109,2.109,0,0,1,1.6-2.536c.934-.133,1.868.934,2,2.135a2.109,2.109,0,0,1-1.6,2.536c-.934.133-1.868-.8-2-2.135" transform="translate(-136.288 -96.988)" fill="#5b2714" fill-rule="evenodd"/>
            <path id="패스_3601" data-name="패스 3601" d="M262.04,134.021c0-1.335.8-2.4,1.735-2.4s1.735,1.068,1.735,2.4-.8,2.4-1.735,2.4-1.735-1.068-1.735-2.4" transform="translate(-185.431 -93.139)" fill="#5b2714" fill-rule="evenodd"/>
            <path id="패스_3602" data-name="패스 3602" d="M176.107,110.4a.8.8,0,0,1-.466-1.453c2.248-1.608,5.712-2.822,8.684-1.405a.8.8,0,1,1-.688,1.445c-2.344-1.112-5.185-.078-7.065,1.264a.794.794,0,0,1-.465.149" transform="translate(-124.054 -75.661)" fill="#5b2714"/>
            <path id="패스_3603" data-name="패스 3603" d="M155.972,78.036a.8.8,0,0,1-.793-.7c-1.087-8.694,2.058-18.419,7.476-23.125a.8.8,0,1,1,1.05,1.209c-4.964,4.311-7.947,13.647-6.938,21.718a.8.8,0,0,1-.7.893.768.768,0,0,1-.1.006" transform="translate(-109.661 -38.222)" fill="#5b2714"/>
            <path id="패스_3604" data-name="패스 3604" d="M228.181,75.845a.84.84,0,0,1-.1-.006c-15.518-1.868-26.634-14.125-30.755-21.073a.8.8,0,0,1,1.378-.817c3.972,6.7,14.67,18.506,29.569,20.3a.8.8,0,0,1-.094,1.6" transform="translate(-139.559 -37.899)" fill="#5b2714"/>
            <path id="패스_3605" data-name="패스 3605" d="M181.692,271.853a.8.8,0,0,1-.609-.28,10.391,10.391,0,0,1-1.866-11.374c.444-.977.947-1.852,1.434-2.7,1.79-3.111,3.639-6.327,2.515-14.5a.8.8,0,0,1,1.586-.218c1.2,8.715-.79,12.172-2.713,15.516-.49.851-.952,1.655-1.354,2.541a8.9,8.9,0,0,0,1.614,9.691.8.8,0,0,1-.607,1.322" transform="translate(-126.168 -171.314)" fill="#5b2714"/>
            <path id="패스_3606" data-name="패스 3606" d="M152.064,318.979a.8.8,0,0,1-.348-.08c-5.209-2.525-5.34-7.38-4.985-10.812a.79.79,0,0,1,.878-.714.8.8,0,0,1,.715.879c-.491,4.758.769,7.6,4.09,9.207a.8.8,0,0,1-.35,1.522" transform="translate(-103.749 -217.506)" fill="#5b2714"/>
            <path id="패스_3607" data-name="패스 3607" d="M108.863,123.755a.8.8,0,0,1-.284-.052c-7.877-2.988-10.536-11.918-9.04-18.8a61.7,61.7,0,0,1,3.428-10.181c.895-2.223,1.74-4.322,2.326-6.292,1.625-5.611.986-10.363.245-15.865a66.51,66.51,0,0,1-.81-13.987c.261-5.03,1.98-21.93,13.106-27.75a.8.8,0,0,1,.743,1.419c-10.376,5.427-12,21.6-12.251,26.424a65.229,65.229,0,0,0,.8,13.68c.733,5.445,1.425,10.589-.3,16.53-.609,2.048-1.467,4.181-2.377,6.439a60.555,60.555,0,0,0-3.347,9.918c-1.356,6.238,1,14.3,8.042,16.971a.8.8,0,0,1-.284,1.55" transform="translate(-70.156 -21.748)" fill="#5b2714"/>
            <path id="패스_3608" data-name="패스 3608" d="M295.134,264.572a.8.8,0,0,1-.2-.025,7.945,7.945,0,0,1-5.356-4.007c-1.376-2.618-1.377-6.26,0-9.992,2.03-5.142.686-11.629-1.42-15.488a.8.8,0,1,1,1.406-.767c2.277,4.176,3.722,11.222,1.51,16.826-1.212,3.29-1.242,6.459-.077,8.676a6.41,6.41,0,0,0,4.335,3.2.8.8,0,0,1-.2,1.577" transform="translate(-203.844 -165.501)" fill="#5b2714"/>
            <path id="패스_3609" data-name="패스 3609" d="M326.655,318.873h-.025a6.805,6.805,0,0,1-5.233-2.94,10.619,10.619,0,0,1-1.657-8.874.8.8,0,1,1,1.548.408,8.983,8.983,0,0,0,1.391,7.509,5.244,5.244,0,0,0,4,2.3.8.8,0,0,1-.023,1.6" transform="translate(-226.022 -216.866)" fill="#5b2714"/>
            <path id="패스_3610" data-name="패스 3610" d="M234.765,99.6a.8.8,0,0,1-.5-.175c-6.142-4.895-3.987-10.459-1.706-16.348a38.382,38.382,0,0,0,2.744-9.46c.723-6.668-1.006-9.5-3.2-13.087a32.9,32.9,0,0,1-3.849-8.075c-1.3-4.536-1.855-11.211-2.435-21.944-.5-9.093-5.544-18.377-13.167-24.231C205.02.656,191.739-1.073,179.31,7.769a.8.8,0,0,1-.928-1.3C191.463-2.843,205.506-.976,213.62,5c8,6.139,13.281,15.878,13.8,25.425.574,10.617,1.122,17.2,2.373,21.577a31.1,31.1,0,0,0,3.679,7.694c2.255,3.694,4.2,6.884,3.421,14.1a40.178,40.178,0,0,1-2.843,9.86c-2.241,5.786-4.011,10.356,1.211,14.518a.8.8,0,0,1-.5,1.427" transform="translate(-125.993 0)" fill="#5b2714"/>
            <path id="패스_3611" data-name="패스 3611" d="M221.3,147.015a.8.8,0,0,1-.566-1.367,7.457,7.457,0,0,1,8.051-.921.8.8,0,1,1-.824,1.373,5.923,5.923,0,0,0-6.1.681.8.8,0,0,1-.566.234" transform="translate(-156.035 -101.862)" fill="#5b2714"/>
            <path id="패스_3612" data-name="패스 3612" d="M174.667,150.976c-3.364,0-7.69-2.387-9.382-9.233a.8.8,0,0,1,1.555-.384c1.525,6.169,5.327,8.178,8.136,8.008,3.363-.193,5.891-3.091,6.441-7.383a.8.8,0,1,1,1.589.2c-.743,5.792-4.522,8.582-7.938,8.779-.132.008-.266.011-.4.011" transform="translate(-116.946 -99.601)" fill="#5b2714"/>
            <path id="패스_3613" data-name="패스 3613" d="M252.486,144.033h-.014c-3.63-.008-7.623-3-8.231-8.691a.8.8,0,1,1,1.593-.17c.507,4.757,3.725,7.252,6.641,7.258h.012c2.838,0,6.12-2.293,6.836-8.73a.8.8,0,0,1,1.592.177c-.833,7.5-5.058,10.155-8.428,10.155" transform="translate(-172.833 -94.109)" fill="#5b2714"/>
            <path id="패스_3614" data-name="패스 3614" d="M250.057,319.991a.8.8,0,0,1-.8-.8,97.188,97.188,0,0,1,1.615-14.776c.188-1.166.37-2.292.53-3.359a38.537,38.537,0,0,0,.119-6.953c-.145-3.337-.294-6.787.85-10.137.9-2.64,2.87-4.98,4.954-7.457,2.364-2.81,4.808-5.716,5.706-9.168a.8.8,0,1,1,1.55.4c-.988,3.8-3.552,6.85-6.03,9.8-1.985,2.36-3.86,4.588-4.664,6.944-1.047,3.065-.91,6.215-.766,9.55a39.747,39.747,0,0,1-.134,7.252c-.162,1.081-.345,2.213-.534,3.385a96.045,96.045,0,0,0-1.594,14.52.8.8,0,0,1-.8.8" transform="translate(-176.385 -188.758)" fill="#5b2714"/>
            <path id="패스_3615" data-name="패스 3615" d="M213.429,307.126a.8.8,0,0,1-.663-.351,29.325,29.325,0,0,1-4.543-12.562,11.682,11.682,0,0,0-.824-3.364c-1.292-2.086-3.282-3.516-5.39-5.03-3.277-2.354-6.666-4.788-7.522-9.925a.8.8,0,0,1,1.58-.263c.748,4.485,3.725,6.624,6.877,8.887,2.142,1.539,4.357,3.13,5.827,5.5a12.156,12.156,0,0,1,1.033,3.933,27.553,27.553,0,0,0,4.286,11.921.8.8,0,0,1-.661,1.25" transform="translate(-137.621 -194.576)" fill="#5b2714"/>
            <path id="패스_3616" data-name="패스 3616" d="M271.958,330.877c-1.2,0-2.465-1.4-4.019-3.117-1.531-1.7-3.636-4.016-4.82-3.576a.8.8,0,1,1-.557-1.5c2.206-.824,4.524,1.744,6.565,4,.868.96,2.316,2.564,2.821,2.587a3,3,0,0,0,.249-.789,15.59,15.59,0,0,1,.836-3.2.8.8,0,1,1,1.5.562,14.114,14.114,0,0,0-.757,2.9c-.09.47-.345,1.775-1.41,2.07a1.516,1.516,0,0,1-.408.056" transform="translate(-185.431 -228.233)" fill="#5b2714"/>
            <path id="패스_3617" data-name="패스 3617" d="M188.726,320.779c-.037,0-.073,0-.111,0-.979-.076-1.468-1.152-1.784-2.082a46.422,46.422,0,0,0-3.389-6.972,24.677,24.677,0,0,1-2.639-5.655.8.8,0,1,1,1.561-.354,24.076,24.076,0,0,0,2.476,5.228,47.561,47.561,0,0,1,3.5,7.23,3.993,3.993,0,0,0,.413.923,14.706,14.706,0,0,0,1.555-2.6c1.579-3.024,3.75-7.157,7.282-6.588a.8.8,0,1,1-.257,1.581c-2.407-.4-4.254,3.157-5.606,5.748-1.108,2.122-1.852,3.546-3,3.546" transform="translate(-127.929 -215.895)" fill="#5b2714"/>
            <path id="패스_3618" data-name="패스 3618" d="M401.2,321.938a.8.8,0,0,1-.775-.6,104.978,104.978,0,0,0-7.941-22.248c-4.151-7.885-10.9-9.459-16.847-10.848-3.376-.788-6.291-1.468-8.32-3.193a.8.8,0,1,1,1.038-1.22c1.733,1.473,4.474,2.113,7.647,2.853,5.974,1.394,13.409,3.129,17.9,11.664a106.481,106.481,0,0,1,8.075,22.6.805.805,0,0,1-.777,1" transform="translate(-259.73 -200.713)" fill="#5b2714"/>
            <path id="패스_3619" data-name="패스 3619" d="M3.473,415.594a.8.8,0,0,1-.742-.5A38.854,38.854,0,0,1,0,401.847c-.1-7.637,2.243-16.6,4.122-23.793.759-2.909,1.416-5.422,1.763-7.314C6.62,366.6,7.31,362.4,7.979,358.326c2.308-14.037,4.3-26.161,6.964-30.314,3.316-5.387,10.827-9.013,14.863-10.961a.8.8,0,0,1,.706,1.438l-.01,0c-3.889,1.876-11.126,5.37-14.2,10.37-2.491,3.887-4.555,16.437-6.739,29.723-.67,4.076-1.362,8.281-2.1,12.438-.359,1.956-1.022,4.495-1.79,7.435-1.855,7.1-4.163,15.947-4.07,23.378a37.094,37.094,0,0,0,2.61,12.654.8.8,0,0,1-.742,1.1" transform="translate(0 -224.302)" fill="#5b2714"/>
            <path id="패스_3620" data-name="패스 3620" d="M38.834,123.249a4.786,4.786,0,0,1-3.069-2.135c-1.2-1.868-1.6-5.472-1.6-5.472s-.134,3.47-1.335,5.338a4.962,4.962,0,0,1-3.6,2,5.219,5.219,0,0,1,3.337,2c1.2,1.735,1.468,5.472,1.468,5.472a14.436,14.436,0,0,1,1.335-5.071,6.3,6.3,0,0,1,3.47-2.135" transform="translate(-20.681 -81.833)" fill="#fff" fill-rule="evenodd"/>
          </g>
        </g>
      </g>
    </g>
    <g id="그룹_1029" data-name="그룹 1029" transform="translate(577.998 940.033)">
      <g id="타원_71" data-name="타원 71" transform="translate(0.001 -0.033)" fill="#eff0f1" stroke="#707070" stroke-width="1">
        <circle cx="72.5" cy="72.5" r="72.5" stroke="none"/>
        <circle cx="72.5" cy="72.5" r="73" fill="none"/>
      </g>
      <g id="마스크_그룹_13" data-name="마스크 그룹 13" transform="translate(0 0)" clip-path="url(#clip-path-9)">
        <g id="그룹_1025" data-name="그룹 1025" transform="translate(-18.316 14.628)">
          <g id="그룹_1024" data-name="그룹 1024" clip-path="url(#clip-path-10)">
            <path id="패스_3621" data-name="패스 3621" d="M71.663,258.839l35.982,7.867,5.536,9.323s4.516,1.6,10.635,3.788a105.232,105.232,0,0,1,17.772,7.867c5.1,3.059,9.323,10.2,11.654,19.084,1.311,5.1,2.768,10.343,4.37,17.918a277.7,277.7,0,0,1,4.807,30.3l7.284,28.99s4.516,19.958-4.953,27.533a12.788,12.788,0,0,1-12.674,2.185c-4.225-1.457-8.6-6.118-8.6-6.118s.874,12.237,1.894,20.395a29.785,29.785,0,0,1-1.02,12.528s-11.654,11.654-43.412,10.635c-10.051-.291-21.269-.874-31.32-2.768a207.821,207.821,0,0,1-28.261-7.429s-2.622-4.079-2.331-8.012c.291-5.39,1.311-14.568,1.311-14.568a160.162,160.162,0,0,1-18.5-2.768c-4.516-1.02-10.635-2.476-13.839-5.244-4.079-3.5-5.681-9.469-4.224-26.659.583-7.284,4.662-33.943,9.177-56.231,2.185-10.926,4.37-21.851,6.7-26.95,3.788-8.595,10.635-13.111,18.647-16.9,3.642-1.748,8.012-4.079,11.654-5.536a156.543,156.543,0,0,0,15.3-7.721l3.059-4.953,1.6-4.953Z" transform="translate(-2.212 -176.239)" fill="#fff" fill-rule="evenodd"/>
            <path id="패스_3622" data-name="패스 3622" d="M175.365,17.3c4.079-3.933,9.76-5.682,15.3-7.284,11.8-3.351,24.765-2.768,33.214,1.6,2.914,1.457,4.807,4.37,6.556,6.993,2.914,4.516,5.244,9.469,4.953,13.4-.146,3.788-4.079,5.39-4.079,5.39s0-4.953-3.788-7.138c-3.059-1.6-4.37,3.5-9.906,5.827s-15.733,1.02-20.395,2.331c-7.138,2.039-6.847,9.76-11.363,13.985a13.739,13.739,0,0,1-10.343,3.642s-5.39-7.867-6.118-16.9c-.583-6.7.437-16.461,5.973-21.851" transform="translate(-115.238 -5.357)" fill="#e2a87f" fill-rule="evenodd"/>
            <path id="패스_3623" data-name="패스 3623" d="M186.3,113.837a31.339,31.339,0,0,1,2.039,7.867c.583,4.079,1.165,6.264,1.748,10.343.291,2.185.437,5.827.437,5.827a37.777,37.777,0,0,0,6.118,5.973,78.456,78.456,0,0,0,9.615,5.536c2.185,1.02,6.992,3.642,8.741,5.536,1.311,1.457,1.894,9.178,2.914,12.237s2.768,6.41,3.059,6.41c0,0,.729-4.37.729-5.244.146-2.185,0-3.788.146-5.973.146-2.039.146-6.119.583-8.012a14.274,14.274,0,0,1,2.477-5.39l-1.02-13.4s2.331-1.311,2.622-1.6c1.6-1.6,1.748-1.748,3.2-3.351,2.331-2.476,4.37-6.992,5.244-10.343,2.622-9.032,2.039-17.627,2.039-26.8a61.5,61.5,0,0,0-1.311-13.694c-.583-2.331-1.02-3.933-2.914-5.39-2.039-1.457-3.059-1.165-6.118,1.311s-8.6,1.748-12.237,2.477c-6.264,1.165-8.6,1.02-14.568,3.35-3.642,1.457-6.118,5.682-9.76,12.091-3.642,6.264-7.575,2.914-10.489,4.807-3.35,2.185-3.35,7.867-.874,10.78a17.846,17.846,0,0,0,3.933,3.5Z" transform="translate(-120.494 -50.03)" fill="#ffe1c7" fill-rule="evenodd"/>
            <path id="패스_3624" data-name="패스 3624" d="M184.712,164.438A9.1,9.1,0,0,1,178.534,162a13.485,13.485,0,0,1-4.268-9.117,5.685,5.685,0,0,1,2.134-4.321,6.376,6.376,0,0,1,5.634-1.048.874.874,0,0,1-.385,1.706,4.77,4.77,0,0,0-4.157.707,3.951,3.951,0,0,0-1.477,2.956A11.764,11.764,0,0,0,179.7,160.7a7.257,7.257,0,0,0,5.833,1.948.874.874,0,0,1,.185,1.739,9.56,9.56,0,0,1-1.009.054" transform="translate(-118.655 -100.29)" fill="#5b2714"/>
            <path id="패스_3625" data-name="패스 3625" d="M194.342,172.551a.872.872,0,0,1-.618-.256,11.023,11.023,0,0,0-2.474-1.7.874.874,0,1,1,.65-1.623,12.305,12.305,0,0,1,3.061,2.088.874.874,0,0,1-.618,1.492" transform="translate(-129.845 -115.008)" fill="#5b2714"/>
            <path id="패스_3626" data-name="패스 3626" d="M210.628,231.118a.874.874,0,0,1-.873-.854,91.288,91.288,0,0,0-2.6-19.183.874.874,0,1,1,1.7-.424,93.014,93.014,0,0,1,2.648,19.567.873.873,0,0,1-.853.894h-.021" transform="translate(-141.033 -142.982)" fill="#5b2714"/>
            <path id="패스_3627" data-name="패스 3627" d="M322.861,281.765a.874.874,0,0,1-.874-.874c0-2.424-.179-4.725-.368-7.16-.145-1.859-.3-3.782-.359-5.777a.874.874,0,0,1,.845-.9.863.863,0,0,1,.9.845c.063,1.956.211,3.859.355,5.7.184,2.361.374,4.8.374,7.3a.874.874,0,0,1-.874.874" transform="translate(-218.74 -181.83)" fill="#5b2714"/>
            <path id="패스_3628" data-name="패스 3628" d="M356.545,92.333a.874.874,0,0,1-.872-.829c-.038-.749-.07-1.5-.1-2.258-.2-4.8-.4-9.771-2.686-13.5a.874.874,0,0,1,1.491-.913c2.523,4.117,2.736,9.315,2.941,14.342.031.749.062,1.5.1,2.24a.873.873,0,0,1-.828.917l-.046,0" transform="translate(-240.187 -50.668)" fill="#5b2714"/>
            <path id="패스_3629" data-name="패스 3629" d="M245.854,198.91c-10.567,0-21.751-8.908-26.747-18.207a.874.874,0,1,1,1.539-.828c5.212,9.7,17.428,18.974,28.063,17.035,5.864-1.117,11.172-8.356,13.62-14.609,1.827-4.7,2.691-10.886,2.568-18.394l-.006-.517a.874.874,0,1,1,1.748,0l.006.488c.126,7.736-.778,14.147-2.688,19.058-2.705,6.912-8.369,14.443-14.928,15.692a17.666,17.666,0,0,1-3.175.282" transform="translate(-149.115 -110.655)" fill="#5b2714"/>
            <path id="패스_3630" data-name="패스 3630" d="M276.979,205.185s5.827-.146,10.489-.729a73.231,73.231,0,0,0,7.284-1.311s-.729,10.2-7.867,10.2c-7.138-.146-9.906-8.158-9.906-8.158" transform="translate(-188.591 -138.319)" fill="#fff" fill-rule="evenodd"/>
            <path id="패스_3631" data-name="패스 3631" d="M285.02,212.354c-7.677-.156-10.611-8.4-10.732-8.747a.873.873,0,0,1,.8-1.159c.058,0,5.839-.152,10.4-.722,3.55-.427,7.152-1.285,7.188-1.294a.874.874,0,0,1,1.076.913c-.272,3.807-2.449,11.009-8.739,11.009m-8.591-8.2c1.026,2.082,3.724,6.355,8.609,6.454,4.857,0,6.379-5.668,6.816-8.2-1.387.3-3.752.764-6.146,1.051-3.328.416-7.282.612-9.279.69" transform="translate(-186.726 -136.455)" fill="#5b2714"/>
            <path id="패스_3632" data-name="패스 3632" d="M303.549,152.958a.874.874,0,0,1-.746-1.328c1.4-2.308.783-3.19-.24-4.651a10,10,0,0,1-1.445-2.632,11.483,11.483,0,0,1,.146-7.253.874.874,0,1,1,1.659.553,9.758,9.758,0,0,0-.153,6.125,8.454,8.454,0,0,0,1.226,2.2c1.075,1.537,2.3,3.278.3,6.561a.872.872,0,0,1-.748.421" transform="translate(-204.673 -92.939)" fill="#5b2714"/>
            <path id="패스_3633" data-name="패스 3633" d="M257.31,147c-.146-1.457.583-2.622,1.748-2.768,1.02-.146,2.039,1.02,2.185,2.331.145,1.457-.583,2.622-1.748,2.768-1.02.146-2.039-.874-2.185-2.331" transform="translate(-175.186 -98.196)" fill="#5b2714" fill-rule="evenodd"/>
            <path id="패스_3634" data-name="패스 3634" d="M326.7,140.608c-.146-1.457.583-2.622,1.748-2.768,1.02-.145,2.039,1.02,2.185,2.331a2.382,2.382,0,0,1-1.748,2.768c-1.02.291-2.039-.874-2.185-2.331" transform="translate(-222.431 -93.845)" fill="#5b2714" fill-rule="evenodd"/>
            <path id="패스_3635" data-name="패스 3635" d="M241.791,119.33a.874.874,0,0,1-.542-1.56,12.564,12.564,0,0,1,11-1.9.874.874,0,0,1-.529,1.666,10.726,10.726,0,0,0-9.392,1.6.87.87,0,0,1-.541.189" transform="translate(-164.036 -78.54)" fill="#5b2714"/>
            <path id="패스_3636" data-name="패스 3636" d="M317.113,112.436a.874.874,0,0,1-.422-1.64c3.231-1.777,7.223-2.009,9.488-.553a.874.874,0,0,1-.945,1.471c-1.732-1.113-5.042-.849-7.7.614a.872.872,0,0,1-.42.108" transform="translate(-215.321 -74.413)" fill="#5b2714"/>
            <path id="패스_3637" data-name="패스 3637" d="M205.27,116.962a.874.874,0,0,1-.277-1.7c6.011-2,7.564-9.041,7.579-9.112a.874.874,0,0,1,1.71.361c-.07.329-1.785,8.093-8.735,10.409a.871.871,0,0,1-.277.045" transform="translate(-139.17 -71.801)" fill="#5b2714"/>
            <path id="패스_3638" data-name="패스 3638" d="M243.157,87.361a.874.874,0,0,1-.171-1.732c.07-.014,7.014-1.437,9.55-4.507a.874.874,0,1,1,1.347,1.114c-2.931,3.549-10.243,5.046-10.553,5.107a.908.908,0,0,1-.172.017" transform="translate(-164.967 -55.02)" fill="#5b2714"/>
            <path id="패스_3639" data-name="패스 3639" d="M283.786,73.256a.874.874,0,0,1-.02-1.748,11.217,11.217,0,0,0,10.3-6.629.874.874,0,1,1,1.589.729,12.918,12.918,0,0,1-11.845,7.647h-.022" transform="translate(-192.631 -43.829)" fill="#5b2714"/>
            <path id="패스_3640" data-name="패스 3640" d="M331.718,66.3a.874.874,0,0,1-.455-1.621c3.109-1.891,3.368-3.69,3.368-5.371a.874.874,0,1,1,1.748,0c0,2.236-.51,4.614-4.208,6.865a.872.872,0,0,1-.454.127" transform="translate(-225.266 -39.787)" fill="#5b2714"/>
            <path id="패스_3641" data-name="패스 3641" d="M171.528,105.974a.874.874,0,0,1-.812-.55c-.3-.744-.6-1.48-.9-2.214-2.427-5.895-4.719-11.463-3.519-18.935a.874.874,0,0,1,1.726.277c-1.122,6.985,1.079,12.332,3.41,17.993.3.738.609,1.48.909,2.23a.874.874,0,0,1-.812,1.2" transform="translate(-113.004 -56.88)" fill="#5b2714"/>
            <path id="패스_3642" data-name="패스 3642" d="M172.857,22.436a.874.874,0,0,1-.874-.874c0-11.606,11.669-15.091,21.045-17.892a50.863,50.863,0,0,0,9.7-3.556.874.874,0,0,1,.859,1.523,51.92,51.92,0,0,1-10.059,3.709c-9.279,2.771-19.8,5.912-19.8,16.216a.874.874,0,0,1-.874.874" transform="translate(-117.101 0)" fill="#5b2714"/>
            <path id="패스_3643" data-name="패스 3643" d="M309.523,18.873a.874.874,0,0,1-.756-.435c-4.357-7.488-12.39-11.22-22.637-10.493a.885.885,0,0,1-.933-.811.875.875,0,0,1,.811-.933c10.943-.774,19.561,3.263,24.271,11.358a.874.874,0,0,1-.755,1.314" transform="translate(-194.184 -4.158)" fill="#5b2714"/>
            <path id="패스_3644" data-name="패스 3644" d="M363.674,71.3a.874.874,0,0,1-.577-1.531c4.157-3.649,3.475-5.675,2.347-9.03a30.47,30.47,0,0,1-1.022-3.535.874.874,0,0,1,1.71-.36,28.767,28.767,0,0,0,.969,3.338c1.17,3.48,2.182,6.484-2.849,10.9a.873.873,0,0,1-.577.217" transform="translate(-247.025 -38.235)" fill="#5b2714"/>
            <path id="패스_3645" data-name="패스 3645" d="M114.179,403.461a.874.874,0,0,1-.861-.729c-1.952-11.429-7.455-25.276-15.351-30.444a.874.874,0,0,1,.957-1.462c8.337,5.456,14.1,19.809,16.116,31.613a.874.874,0,0,1-.714,1.009.906.906,0,0,1-.148.013" transform="translate(-66.435 -252.393)" fill="#5b2714"/>
            <path id="패스_3646" data-name="패스 3646" d="M60.432,442.212c-27.137,0-45.153-2.844-54.8-8.614C-.636,429.929-.085,417.611.1,413.564l.012-.275c.525-16.132,6.42-46.544,9.943-64.713l1.482-7.753c1.545-8.442,3.661-20,9.954-26.3C27.7,308.315,37.1,304.055,46.2,299.935c6.149-2.784,11.959-5.414,16.643-8.537a.874.874,0,0,1,.97,1.454c-4.8,3.2-10.676,5.861-16.893,8.676-8.955,4.055-18.216,8.248-24.2,14.232-5.908,5.909-7.967,17.161-9.471,25.378l-1.485,7.77c-3.513,18.118-9.392,48.443-9.912,64.448l-.013.286c-.454,10.16,1.12,16.369,4.68,18.453,11.64,6.962,36.068,9.541,74.69,7.893,6.5-.313,23.795-1.144,23.929-3.833a.874.874,0,1,1,1.746.088c-.161,3.232-6.381,4.567-25.6,5.491q-11.209.478-20.86.478" transform="translate(0 -198.308)" fill="#5b2714"/>
            <path id="패스_3647" data-name="패스 3647" d="M389.952,364.411a.875.875,0,0,1-.858-.71c-.122-.633-.261-1.393-.42-2.259-1.734-9.424-5.8-31.493-13.676-37.566-5.461-4.208-13.181-6.77-19.994-9.032a83.831,83.831,0,0,1-10.9-4.138.874.874,0,0,1,.794-1.558,82.726,82.726,0,0,0,10.656,4.037c6.943,2.3,14.814,4.917,20.509,9.306,8.412,6.481,12.558,29.013,14.329,38.634.158.861.3,1.616.418,2.245a.875.875,0,0,1-.693,1.023.844.844,0,0,1-.166.017" transform="translate(-233.971 -210.429)" fill="#5b2714"/>
            <path id="패스_3648" data-name="패스 3648" d="M252.381,402.476a.874.874,0,0,1-.871-.8c-.785-9.421-1.037-17.023-1.3-25.071-.127-3.841-.255-7.712-.446-11.816-.157-3.97-.272-7.575-.382-11.014-.3-9.342-.554-17.41-1.51-28.137-.347-3.9-1.4-15.77-4.722-22.566a35.661,35.661,0,0,1-3-10.325,29.247,29.247,0,0,0-1.253-5.335c-.929-2.349-4.7-4.248-9.074-6.446-6.118-3.076-13.732-6.905-17.12-14.029a.874.874,0,1,1,1.579-.751c3.13,6.582,10.141,10.108,16.326,13.218,4.69,2.359,8.741,4.4,9.919,7.376a30.555,30.555,0,0,1,1.344,5.67,34.211,34.211,0,0,0,2.852,9.855c3.1,6.351,4.278,16.27,4.893,23.178.96,10.775,1.218,18.867,1.516,28.235.109,3.436.223,7.037.381,11,.19,4.107.319,7.985.447,11.833.266,8.026.518,15.608,1.3,24.984a.874.874,0,0,1-.8.943.647.647,0,0,1-.073,0" transform="translate(-144.764 -180.902)" fill="#5b2714"/>
            <path id="패스_3649" data-name="패스 3649" d="M312.548,314.966a.868.868,0,0,1-.862-1.021,72.626,72.626,0,0,0,.875-11.65c.071-4.39.126-7.858,1.713-10.5,2.43-3.915,2.64-6.5.836-10.242a.874.874,0,0,1,1.575-.758c2.062,4.282,1.813,7.511-.919,11.911-1.339,2.232-1.391,5.493-1.457,9.62a74.062,74.062,0,0,1-.9,11.918.873.873,0,0,1-.861.725" transform="translate(-212.213 -190.849)" fill="#5b2714"/>
            <path id="패스_3650" data-name="패스 3650" d="M215.333,291.883a1.622,1.622,0,0,1-.32-.033c-1.566-.313-2.678-1.851-4.217-3.98a38.986,38.986,0,0,0-4.1-5c-7.483-7.482-10.781-11.466-11.029-13.321-.221-1.662.652-2.676,1.5-3.657a7.889,7.889,0,0,0,1.475-2.182,18.74,18.74,0,0,0,.714-2.061c.556-1.831,1.131-3.724,3.007-3.724a.874.874,0,0,1,0,1.748c-.54,0-.879.984-1.335,2.484a19.953,19.953,0,0,1-.778,2.237,9.407,9.407,0,0,1-1.76,2.64c-.814.945-1.2,1.437-1.088,2.284.125.94,2.055,3.841,10.532,12.317a41.044,41.044,0,0,1,4.276,5.211c1.258,1.739,2.251,3.111,3.144,3.29a19.123,19.123,0,0,0,1.768-3.209c1.805-3.677,4.281-8.762,8.715-8.607a.874.874,0,0,1-.019,1.748.855.855,0,0,0-.105,0c-3.272,0-5.437,4.406-7.022,7.632-1.22,2.482-2.056,4.185-3.359,4.185" transform="translate(-133.206 -175.616)" fill="#5b2714"/>
            <path id="패스_3651" data-name="패스 3651" d="M326.4,301.466a1.566,1.566,0,0,1-.642-.137c-.772-.344-1.354-1.272-2.148-3.426l-.371-1.092c-.745-2.216-1.284-3.817-2.089-4.174-.524-.234-1.435-.062-2.782.522a.875.875,0,0,1-.7-1.6c1.9-.823,3.152-.977,4.188-.514,1.506.669,2.114,2.478,3.036,5.213l.36,1.065a11.632,11.632,0,0,0,.932,2.077c.272-2.5-.053-10.559-1.084-12.619-1.307-2.613-3.28-6.563-5.937-9.08a.874.874,0,1,1,1.2-1.269c2.881,2.729,4.938,6.844,6.3,9.568,1.316,2.63,1.694,12.918,1.034,14.654a1.108,1.108,0,0,1-.617.678,1.838,1.838,0,0,1-.686.14" transform="translate(-215.942 -188.051)" fill="#5b2714"/>
            <path id="패스_3652" data-name="패스 3652" d="M88.89,93.216a5.224,5.224,0,0,1-3.35-2.331c-1.311-2.039-1.748-5.973-1.748-5.973s-.146,3.788-1.457,5.827A5.417,5.417,0,0,1,78.4,92.924a5.7,5.7,0,0,1,3.642,2.185c1.311,1.894,1.6,5.973,1.6,5.973s.291-3.642,1.457-5.536a6.87,6.87,0,0,1,3.788-2.331" transform="translate(-53.382 -57.815)" fill="#fff" fill-rule="evenodd"/>
          </g>
        </g>
      </g>
    </g>
    <g id="그룹_1031" data-name="그룹 1031" transform="translate(659.068 760.986)">
      <g id="그룹_1030" data-name="그룹 1030" clip-path="url(#clip-path-11)">
        <path id="패스_3653" data-name="패스 3653" d="M1.737,119.444S46.649,37.545,139.116,7.163" fill="none" stroke="#000" stroke-miterlimit="10" stroke-width="3.963"/>
        <path id="패스_3654" data-name="패스 3654" d="M123.265,1.88l15.851,5.284-3.962,18.493" fill="none" stroke="#000" stroke-miterlimit="10" stroke-width="3.963"/>
        <path id="패스_3655" data-name="패스 3655" d="M229.258,49.7l15.465-6.325,9.049,16.608" fill="none" stroke="#000" stroke-miterlimit="10" stroke-width="3.963"/>
        <path id="패스_3656" data-name="패스 3656" d="M600.127,119.444S555.215,37.545,462.748,7.163" fill="none" stroke="#000" stroke-miterlimit="10" stroke-width="3.963"/>
        <path id="패스_3657" data-name="패스 3657" d="M478.6,1.88,462.749,7.164l3.962,18.493" fill="none" stroke="#000" stroke-miterlimit="10" stroke-width="3.963"/>
        <path id="패스_3658" data-name="패스 3658" d="M202.521,144.542s17.172-70.01,42.27-99.071" fill="none" stroke="#000" stroke-miterlimit="10" stroke-width="3.963"/>
        <path id="패스_3659" data-name="패스 3659" d="M384.229,49.7l-15.465-6.325L359.715,59.98" fill="none" stroke="#000" stroke-miterlimit="10" stroke-width="3.963"/>
        <path id="패스_3660" data-name="패스 3660" d="M410.966,144.542s-17.172-70.01-42.27-99.071" fill="none" stroke="#000" stroke-miterlimit="10" stroke-width="3.963"/>
      </g>
    </g>
    <g id="타원_77" data-name="타원 77" transform="translate(568 930)" fill="#fff" stroke="#707070" stroke-width="1">
      <circle cx="28" cy="28" r="28" stroke="none"/>
      <circle cx="28" cy="28" r="27.5" fill="none"/>
    </g>
    <g id="타원_78" data-name="타원 78" transform="translate(775 930)" fill="#fff" stroke="#707070" stroke-width="1">
      <circle cx="28" cy="28" r="28" stroke="none"/>
      <circle cx="28" cy="28" r="27.5" fill="none"/>
    </g>
    <g id="타원_79" data-name="타원 79" transform="translate(982 930)" fill="#fff" stroke="#707070" stroke-width="1">
      <circle cx="28" cy="28" r="28" stroke="none"/>
      <circle cx="28" cy="28" r="27.5" fill="none"/>
    </g>
    <g id="타원_80" data-name="타원 80" transform="translate(1189 930)" fill="#fff" stroke="#707070" stroke-width="1">
      <circle cx="28" cy="28" r="28" stroke="none"/>
      <circle cx="28" cy="28" r="27.5" fill="none"/>
    </g>
    <text id="추천인" transform="translate(596 965)" fill="#333" font-size="16" font-family="AppleSDGothicNeo-Regular, Apple SD Gothic Neo" letter-spacing="-0.1em"><tspan x="-19.16" y="0">추천인</tspan></text>
    <text id="추천인-2" data-name="추천인" transform="translate(803 965)" fill="#333" font-size="16" font-family="AppleSDGothicNeo-Regular, Apple SD Gothic Neo" letter-spacing="-0.1em"><tspan x="-19.16" y="0">추천인</tspan></text>
    <text id="추천인-3" data-name="추천인" transform="translate(1010 965)" fill="#333" font-size="16" font-family="AppleSDGothicNeo-Regular, Apple SD Gothic Neo" letter-spacing="-0.1em"><tspan x="-19.16" y="0">추천인</tspan></text>
    <text id="추천인-4" data-name="추천인" transform="translate(1217 965)" fill="#333" font-size="16" font-family="AppleSDGothicNeo-Regular, Apple SD Gothic Neo" letter-spacing="-0.1em"><tspan x="-19.16" y="0">추천인</tspan></text>
    <path id="패스_3661" data-name="패스 3661" d="M0,0,11.274,33.06,0,66.121H354L342.73,33.06,354,0Z" transform="translate(782.998 833)" fill="#51aefd"/>
    <text id="나를_추천한_회원이_판매_할_때_마다" data-name="나를 추천한 회원이 판매 할 때 마다" transform="translate(960 858)" fill="#fff" font-size="18" font-family="AppleSDGothicNeo-Bold, Apple SD Gothic Neo" font-weight="700" letter-spacing="-0.1em"><tspan x="-106.893" y="0">나를</tspan><tspan y="0" font-family="Helvetica-Bold, Helvetica"> </tspan><tspan y="0">추천한</tspan><tspan y="0" font-family="Helvetica-Bold, Helvetica"> </tspan><tspan y="0">회원이</tspan><tspan y="0" font-family="Helvetica-Bold, Helvetica"> </tspan><tspan y="0">판매</tspan><tspan y="0" font-family="Helvetica-Bold, Helvetica"> </tspan><tspan y="0">할</tspan><tspan y="0" font-family="Helvetica-Bold, Helvetica"> </tspan><tspan y="0">때</tspan><tspan y="0" font-family="Helvetica-Bold, Helvetica"> </tspan><tspan y="0">마다</tspan></text>
    <text id="판매_수익금_의_일정_금액이_나에게_적립" data-name="판매 수익금 의 일정 금액이 나에게 적립" transform="translate(960 886)" fill="#333" font-size="22" font-family="AppleSDGothicNeo-Bold, Apple SD Gothic Neo" font-weight="700" letter-spacing="-0.1em"><tspan x="-147.477" y="0">판매</tspan><tspan y="0" font-family="Helvetica-Bold, Helvetica"> </tspan><tspan y="0">수익금</tspan><tspan y="0" font-family="Helvetica-Bold, Helvetica"> </tspan><tspan y="0">의</tspan><tspan y="0" font-family="Helvetica-Bold, Helvetica"> </tspan><tspan y="0">일정</tspan><tspan y="0" font-family="Helvetica-Bold, Helvetica"> </tspan><tspan y="0">금액이</tspan><tspan y="0" font-family="Helvetica-Bold, Helvetica"> </tspan><tspan y="0">나에게</tspan><tspan y="0" font-family="Helvetica-Bold, Helvetica"> </tspan><tspan y="0">적립</tspan></text>
  </g>
</svg>
