<svg xmlns="http://www.w3.org/2000/svg" xmlns:xlink="http://www.w3.org/1999/xlink" width="400" height="209" viewBox="0 0 400 209">
  <defs>
    <clipPath id="clip-path">
      <rect id="사각형_11" data-name="사각형 11" width="400" height="209" rx="10" transform="translate(760 829)" fill="#7f859b"/>
    </clipPath>
    <clipPath id="clip-path-2">
      <rect id="사각형_16" data-name="사각형 16" width="227" height="144.5" fill="none"/>
    </clipPath>
    <clipPath id="clip-path-3">
      <rect id="사각형_15" data-name="사각형 15" width="158.239" height="151.729" fill="none"/>
    </clipPath>
  </defs>
  <g id="그룹_1101" data-name="그룹 1101" transform="translate(-760 -829)">
    <g id="그룹_1099" data-name="그룹 1099">
      <rect id="사각형_17" data-name="사각형 17" width="400" height="209" rx="10" transform="translate(760 829)" fill="#7f859b"/>
      <path id="사각형_1717" data-name="사각형 1717" d="M10,0H123a10,10,0,0,1,10,10V127a0,0,0,0,1,0,0H0a0,0,0,0,1,0,0V10A10,10,0,0,1,10,0Z" transform="translate(796 911)" fill="#fff"/>
      <g id="마스크_그룹_5" data-name="마스크 그룹 5" clip-path="url(#clip-path)">
        <g id="그룹_6" data-name="그룹 6" transform="translate(965 867)">
          <g id="그룹_5" data-name="그룹 5" clip-path="url(#clip-path-2)">
            <path id="패스_484" data-name="패스 484" d="M223.313,144.5H3.688A3.688,3.688,0,0,1,0,140.813V4.187A3.688,3.688,0,0,1,3.688.5H223.313A3.687,3.687,0,0,1,227,4.187V140.813a3.687,3.687,0,0,1-3.687,3.687" fill="#f3faf9"/>
            <path id="패스_485" data-name="패스 485" d="M227,18H0V4.224A4.224,4.224,0,0,1,4.224,0H221.6A5.4,5.4,0,0,1,227,5.4Z" fill="#eee"/>
            <path id="패스_486" data-name="패스 486" d="M11,8.5a3,3,0,1,1-3-3,3,3,0,0,1,3,3" fill="#ff6056"/>
            <path id="패스_487" data-name="패스 487" d="M24,8.5a3,3,0,1,1-3-3,3,3,0,0,1,3,3" fill="#febc2e"/>
            <path id="패스_488" data-name="패스 488" d="M37,8.5a3,3,0,1,1-3-3,3,3,0,0,1,3,3" fill="#27c840"/>
            <path id="패스_489" data-name="패스 489" d="M218.645,50H8.855A4.357,4.357,0,0,1,4.5,45.644V31.355A4.357,4.357,0,0,1,8.855,27h209.79A4.355,4.355,0,0,1,223,31.355V45.644A4.355,4.355,0,0,1,218.645,50" fill="#eee"/>
            <path id="패스_490" data-name="패스 490" d="M71.544,77H6.957A2.457,2.457,0,0,1,4.5,74.544V56.456A2.457,2.457,0,0,1,6.957,54H71.544A2.456,2.456,0,0,1,74,56.456V74.544A2.456,2.456,0,0,1,71.544,77" fill="#eee"/>
            <path id="패스_491" data-name="패스 491" d="M118.6,85.5H5.9a1.4,1.4,0,0,1-1.4-1.4V82.4A1.4,1.4,0,0,1,5.9,81H118.6a1.4,1.4,0,0,1,1.4,1.4v1.7a1.4,1.4,0,0,1-1.4,1.4" fill="#eee"/>
            <path id="패스_492" data-name="패스 492" d="M107.668,93.5H5.833A1.333,1.333,0,0,1,4.5,92.168V90.332A1.333,1.333,0,0,1,5.833,89H107.668A1.332,1.332,0,0,1,109,90.332v1.836a1.332,1.332,0,0,1-1.332,1.332" fill="#eee"/>
            <path id="패스_493" data-name="패스 493" d="M107.668,102.5H5.833A1.333,1.333,0,0,1,4.5,101.168V99.332A1.333,1.333,0,0,1,5.833,98H107.668A1.332,1.332,0,0,1,109,99.332v1.836a1.332,1.332,0,0,1-1.332,1.332" fill="#eee"/>
            <path id="패스_494" data-name="패스 494" d="M111.642,111.5H5.857A1.357,1.357,0,0,1,4.5,110.142v-1.784A1.357,1.357,0,0,1,5.857,107H111.642A1.358,1.358,0,0,1,113,108.358v1.784a1.358,1.358,0,0,1-1.358,1.358" fill="#eee"/>
            <path id="패스_495" data-name="패스 495" d="M89.788,120.5H5.712A1.212,1.212,0,0,1,4.5,119.288v-2.076A1.212,1.212,0,0,1,5.712,116H89.788A1.212,1.212,0,0,1,91,117.212v2.076a1.212,1.212,0,0,1-1.212,1.212" fill="#eee"/>
            <path id="패스_496" data-name="패스 496" d="M108.424,140.5H7.076A2.576,2.576,0,0,1,4.5,137.924V126.576A2.576,2.576,0,0,1,7.076,124H108.424A2.576,2.576,0,0,1,111,126.576v11.348a2.576,2.576,0,0,1-2.576,2.576" fill="#eee"/>
            <path id="패스_497" data-name="패스 497" d="M221.455,140.5h-98.91A2.545,2.545,0,0,1,120,137.955v-11.41A2.545,2.545,0,0,1,122.545,124h98.91A2.544,2.544,0,0,1,224,126.545v11.41a2.544,2.544,0,0,1-2.545,2.545" fill="#eee"/>
            <path id="패스_498" data-name="패스 498" d="M146.544,77H81.957A2.457,2.457,0,0,1,79.5,74.544V56.456A2.457,2.457,0,0,1,81.957,54h64.587A2.456,2.456,0,0,1,149,56.456V74.544A2.456,2.456,0,0,1,146.544,77" fill="#eee"/>
            <path id="패스_499" data-name="패스 499" d="M221.544,77H156.957a2.457,2.457,0,0,1-2.457-2.456V56.456A2.457,2.457,0,0,1,156.957,54h64.587A2.456,2.456,0,0,1,224,56.456V74.544A2.456,2.456,0,0,1,221.544,77" fill="#eee"/>
          </g>
        </g>
      </g>
      <g id="그룹_4" data-name="그룹 4" transform="translate(787 887.297)">
        <g id="그룹_3" data-name="그룹 3" transform="translate(9 -3)" clip-path="url(#clip-path-3)">
          <path id="패스_479" data-name="패스 479" d="M120.985,139.561" transform="translate(0 12.168)" fill="#fff"/>
          <path id="패스_480" data-name="패스 480" d="M106.119,24.266c0,13.4-11.507,24.266-25.7,24.266s-25.7-10.864-25.7-24.266S66.222,0,80.417,0s25.7,10.864,25.7,24.266" transform="translate(52.12 0)" fill="#ffb24a"/>
          <path id="패스_481" data-name="패스 481" d="M69.129,11.465c1.847-1.432,3.028-3.5,5.485-4.128A5.837,5.837,0,0,1,80.923,9.7a5.048,5.048,0,0,1-.547,6.32c-2.152,2.126-4.348,4.212-6.606,6.239a5.867,5.867,0,0,1-7.537-.048c-.715-.638-.824-1.359-.3-1.958a1.427,1.427,0,0,1,2.13-.065,2.963,2.963,0,0,0,4.194-.238q2.82-2.657,5.637-5.322a2.634,2.634,0,0,0,.232-4.01A2.953,2.953,0,0,0,73.9,10.8c-.754.765-1.425,1.279-2.628.811a7.591,7.591,0,0,0-2.14-.144" transform="translate(62.496 6.032)" fill="#fff"/>
          <path id="패스_482" data-name="패스 482" d="M74.225,22.368a34.506,34.506,0,0,1-3.263,3.223,5.84,5.84,0,0,1-7.619-.649A5.12,5.12,0,0,1,63.49,17.6q3.078-2.973,6.233-5.883a5.879,5.879,0,0,1,7.652-.116c.758.658.877,1.4.324,2.009a1.425,1.425,0,0,1-2.132.037,2.961,2.961,0,0,0-4.139.212q-2.879,2.71-5.746,5.426a2.619,2.619,0,0,0-.146,3.96,2.963,2.963,0,0,0,4.186-.157c.76-.752,1.423-1.388,2.683-.852a5.392,5.392,0,0,0,1.822.131" transform="translate(58.931 8.641)" fill="#fff"/>
          <path id="패스_483" data-name="패스 483" d="M45.945,28.128,28.009,36.284A19.385,19.385,0,0,0,17.041,49.268l-4.43,18.325a18.331,18.331,0,0,0,3.915,16.192L28.938,98.48a20.74,20.74,0,0,0,15.847,7.206H64.694A20.737,20.737,0,0,0,80.541,98.48L92.954,83.785a18.331,18.331,0,0,0,3.915-16.192l-4.43-18.325A19.388,19.388,0,0,0,81.472,36.284L63.534,28.128a21.348,21.348,0,0,0-17.589,0" transform="translate(11.529 22.129)" fill="#b7b7b7"/>
        </g>
      </g>
      <path id="패스_500" data-name="패스 500" d="M576.817,935.2s25.028,0,35.608-5.29,8.113-12.005,36.219-12.005" transform="translate(356 -15)" fill="none" stroke="#fcb24a" stroke-width="5"/>
      <path id="패스_501" data-name="패스 501" d="M16.376,0,8.188,14.182,0,28.364l16.376-4.087,16.376,4.087L24.564,14.182Z" transform="matrix(0.259, 0.966, -0.966, 0.259, 1020.836, 881.227)" fill="#fcb24a"/>
    </g>
  </g>
</svg>
