<svg xmlns="http://www.w3.org/2000/svg" xmlns:xlink="http://www.w3.org/1999/xlink" width="400" height="209" viewBox="0 0 400 209">
  <defs>
    <clipPath id="clip-path">
      <rect id="사각형_10" data-name="사각형 10" width="400" height="209" rx="10" transform="translate(320 829)" fill="#7f859b"/>
    </clipPath>
    <clipPath id="clip-path-2">
      <rect id="사각형_13" data-name="사각형 13" width="323.77" height="161.152" fill="none"/>
    </clipPath>
    <filter id="패스_468" x="7" y="80.093" width="150.907" height="150.907" filterUnits="userSpaceOnUse">
      <feOffset dy="3" input="SourceAlpha"/>
      <feGaussianBlur stdDeviation="3" result="blur"/>
      <feFlood flood-opacity="0.161"/>
      <feComposite operator="in" in2="blur"/>
      <feComposite in="SourceGraphic"/>
    </filter>
    <filter id="패스_469" x="172.089" y="80.093" width="150.907" height="150.907" filterUnits="userSpaceOnUse">
      <feOffset dy="3" input="SourceAlpha"/>
      <feGaussianBlur stdDeviation="3" result="blur-2"/>
      <feFlood flood-opacity="0.161"/>
      <feComposite operator="in" in2="blur-2"/>
      <feComposite in="SourceGraphic"/>
    </filter>
    <filter id="패스_478" x="140.91" y="76.762" width="71.089" height="87.477" filterUnits="userSpaceOnUse">
      <feOffset dx="3" dy="3" input="SourceAlpha"/>
      <feGaussianBlur stdDeviation="5" result="blur-3"/>
      <feFlood flood-opacity="0.604"/>
      <feComposite operator="in" in2="blur-3"/>
      <feComposite in="SourceGraphic"/>
    </filter>
  </defs>
  <g id="그룹_1098" data-name="그룹 1098" transform="translate(-320 -829)">
    <rect id="사각형_14" data-name="사각형 14" width="400" height="209" rx="10" transform="translate(320 829)" fill="#7f859b"/>
    <g id="마스크_그룹_4" data-name="마스크 그룹 4" clip-path="url(#clip-path)">
      <g id="그룹_2" data-name="그룹 2" transform="translate(336 886.849)">
        <g id="그룹_1" data-name="그룹 1" transform="translate(0 0)" clip-path="url(#clip-path-2)">
          <g transform="matrix(1, 0, 0, 1, -16, -57.85)" filter="url(#패스_468)">
            <path id="패스_468-2" data-name="패스 468" d="M121.323,147.332H11.584A11.584,11.584,0,0,1,0,135.748V26.009A11.584,11.584,0,0,1,11.584,14.425h109.74a11.585,11.585,0,0,1,11.584,11.584v109.74a11.584,11.584,0,0,1-11.584,11.584" transform="translate(16 71.67)" fill="#fff"/>
          </g>
          <g transform="matrix(1, 0, 0, 1, -16, -57.85)" filter="url(#패스_469)">
            <path id="패스_469-2" data-name="패스 469" d="M205.637,147.332H95.9a11.584,11.584,0,0,1-11.584-11.584V26.009A11.584,11.584,0,0,1,95.9,14.425h109.74a11.585,11.585,0,0,1,11.584,11.584v109.74a11.585,11.585,0,0,1-11.584,11.584" transform="translate(96.78 71.67)" fill="#fff"/>
          </g>
          <path id="패스_470" data-name="패스 470" d="M106.262,25.774A25.774,25.774,0,1,1,80.489,0a25.773,25.773,0,0,1,25.774,25.774" transform="translate(52.419 0)" fill="#4aa1ff"/>
          <path id="패스_471" data-name="패스 471" d="M69.139,11.733c1.852-1.521,3.037-3.714,5.5-4.384a5.7,5.7,0,0,1,6.326,2.506,5.6,5.6,0,0,1-.548,6.712c-2.158,2.258-4.361,4.474-6.624,6.626a5.634,5.634,0,0,1-7.558-.051,1.424,1.424,0,0,1-.3-2.079c.576-.693,1.318-.717,2.136-.069a2.857,2.857,0,0,0,4.206-.253q2.828-2.822,5.653-5.653a2.9,2.9,0,0,0,.233-4.259,2.848,2.848,0,0,0-4.245.194c-.756.813-1.429,1.359-2.635.862a7.2,7.2,0,0,0-2.146-.153" transform="translate(62.854 6.851)" fill="#fff"/>
          <path id="패스_472" data-name="패스 472" d="M74.259,23.121a35.664,35.664,0,0,1-3.272,3.423,5.675,5.675,0,0,1-7.493-8.486q3.087-3.157,6.25-6.248a5.648,5.648,0,0,1,7.674-.123,1.439,1.439,0,0,1,.325,2.134c-.583.687-1.312.7-2.138.039a2.853,2.853,0,0,0-4.151.225q-2.887,2.878-5.762,5.762a2.891,2.891,0,0,0-.147,4.206,2.856,2.856,0,0,0,4.2-.166c.762-.8,1.427-1.474,2.69-.9a5.114,5.114,0,0,0,1.827.139" transform="translate(59.268 9.814)" fill="#fff"/>
          <path id="패스_473" data-name="패스 473" d="M190.576,25.774A25.774,25.774,0,1,1,164.8,0a25.773,25.773,0,0,1,25.774,25.774" transform="translate(133.194 0)" fill="#4aa1ff"/>
          <path id="패스_474" data-name="패스 474" d="M153.453,11.733c1.852-1.521,3.037-3.714,5.5-4.384a5.7,5.7,0,0,1,6.326,2.506,5.6,5.6,0,0,1-.548,6.712c-2.158,2.258-4.361,4.474-6.624,6.626a5.634,5.634,0,0,1-7.558-.051,1.424,1.424,0,0,1-.3-2.079c.576-.693,1.318-.717,2.136-.069a2.857,2.857,0,0,0,4.206-.253q2.828-2.822,5.653-5.653a2.9,2.9,0,0,0,.233-4.259,2.848,2.848,0,0,0-4.245.194c-.756.813-1.429,1.359-2.636.862a7.2,7.2,0,0,0-2.146-.153" transform="translate(143.629 6.851)" fill="#fff"/>
          <path id="패스_475" data-name="패스 475" d="M158.572,23.121a35.66,35.66,0,0,1-3.272,3.423,5.675,5.675,0,0,1-7.493-8.486q3.087-3.157,6.25-6.248a5.648,5.648,0,0,1,7.674-.123,1.439,1.439,0,0,1,.325,2.134c-.583.687-1.312.7-2.138.039a2.853,2.853,0,0,0-4.151.225Q152.88,16.963,150,19.847a2.891,2.891,0,0,0-.147,4.206,2.856,2.856,0,0,0,4.2-.166c.762-.8,1.427-1.474,2.69-.9a5.114,5.114,0,0,0,1.827.139" transform="translate(140.043 9.814)" fill="#fff"/>
          <path id="패스_476" data-name="패스 476" d="M55.675,25.092,20.048,42.249l-8.8,38.55L35.9,111.714h39.54L100.1,80.8l-8.8-38.55Z" transform="translate(10.779 24.04)" fill="#b7b7b7"/>
          <path id="패스_477" data-name="패스 477" d="M130.353,28.246l-17.986,8.662a20.325,20.325,0,0,0-11,13.79L96.925,70.162a20.327,20.327,0,0,0,3.926,17.2L113.3,102.966a20.327,20.327,0,0,0,15.891,7.654h19.964a20.325,20.325,0,0,0,15.891-7.654l12.447-15.607a20.327,20.327,0,0,0,3.926-17.2L176.976,50.7a20.328,20.328,0,0,0-11-13.79l-17.988-8.662a20.321,20.321,0,0,0-17.638,0" transform="translate(92.369 25.132)" fill="#b7b7b7"/>
        </g>
      </g>
    </g>
    <g transform="matrix(1, 0, 0, 1, 320, 829)" filter="url(#패스_478)">
      <path id="패스_478-2" data-name="패스 478" d="M.77,7.076l-.117.068.153.263,4.7,43.217L17.274,35.931,29.714,57.478l5.207-3.006L22.48,32.923l18.609-2.84L6.013,4.4,5.86,4.136,5.743,4.2,0,0Z" transform="translate(152.91 88.76)" fill="#fff"/>
    </g>
  </g>
</svg>
