<svg id="그룹_24" data-name="그룹 24" xmlns="http://www.w3.org/2000/svg" xmlns:xlink="http://www.w3.org/1999/xlink" width="1280" height="250" viewBox="0 0 1280 250">
  <defs>
    <clipPath id="clip-path">
      <rect id="사각형_27" data-name="사각형 27" width="1280" height="250" fill="none"/>
    </clipPath>
  </defs>
  <g id="그룹_23" data-name="그룹 23" clip-path="url(#clip-path)">
    <path id="패스_514" data-name="패스 514" d="M1250,250H30A30,30,0,0,1,0,220V30A30,30,0,0,1,30,0H1250a30,30,0,0,1,30,30V220a30,30,0,0,1-30,30" fill="#42befc"/>
    <path id="패스_515" data-name="패스 515" d="M194,106A144,144,0,0,0,50,250H338A144,144,0,0,0,194,106" fill="#a9d8ff"/>
    <path id="패스_516" data-name="패스 516" d="M223.426,171.463c5.017,6,8.512,13.171,13.915,18.861a23.364,23.364,0,0,0,8.674,6,19.232,19.232,0,0,0,12.253.231c8.76-2.635,15.5-9.734,20.6-17.015A80.188,80.188,0,0,0,290.6,153.92c2.311-8.791,4.044-18.979.264-27.614-2.966-6.778-10.727-12.393-18.36-10.355-7.416,1.981-10.938,10.464-9.708,17.551,1.516,8.734,8.676,15.57,15.962,19.959a47.279,47.279,0,0,0,50.159-.972,44.342,44.342,0,0,0,16.841-19.944,27.356,27.356,0,0,0,1.962-13.8A34.532,34.532,0,0,0,342.77,105.8c-4.417-7.394-10.539-15.9-19.865-16.74a12.163,12.163,0,0,0-10.639,4.18,15.386,15.386,0,0,0-3.2,10.085c.217,8.98,7.346,16.1,13.783,21.5,6.876,5.775,15.15,10.43,24.389,10.115,8.784-.3,17.129-4.62,23.3-10.736,6.611-6.552,10.828-15.159,13.628-23.939,2.872-9,5.256-19.1,3.363-28.542-1.624-8.1-6.955-14.728-13.8-19.14a42.129,42.129,0,0,0-11.579-5.1.537.537,0,0,0-.285,1.035c7.645,2.123,14.926,6.3,19.767,12.7,5.406,7.151,6.184,16.042,4.879,24.673a82.393,82.393,0,0,1-8.062,25.512c-3.987,7.643-9.712,14.365-17.359,18.516-7.622,4.136-16.431,5.2-24.614,2.09a43.616,43.616,0,0,1-11.564-6.88,61.035,61.035,0,0,1-9.276-8.923c-4.868-5.964-7.915-14.749-3.013-21.67a11.224,11.224,0,0,1,11.016-4.318c4.488.655,8.259,3.293,11.286,6.556a56.878,56.878,0,0,1,7.575,10.679,30.628,30.628,0,0,1,4.324,12.994c.568,9.033-4.127,17.7-10.148,24.125A46.178,46.178,0,0,1,291.3,157.622,44.129,44.129,0,0,1,269.632,144.6c-5.249-5.981-8.2-14.553-3.942-21.926a11.628,11.628,0,0,1,8.975-6.01,14.742,14.742,0,0,1,10.495,3.719c7.005,5.911,7.475,15.876,6.25,24.306a81.837,81.837,0,0,1-7.928,25.062c-3.879,7.663-9.024,15.15-15.815,20.514-6.588,5.2-15.385,8.274-23.315,4.167-6.346-3.287-10.332-9.729-14.185-15.483a95.908,95.908,0,0,0-5.982-8.24c-.444-.53-1.2.232-.759.759" fill="#ff0"/>
    <path id="패스_517" data-name="패스 517" d="M358,45a3,3,0,1,1-3-3,3,3,0,0,1,3,3" fill="#a9d8ff"/>
    <path id="패스_518" data-name="패스 518" d="M383,161a3,3,0,1,1-3-3,3,3,0,0,1,3,3" fill="#0098ff"/>
    <path id="패스_519" data-name="패스 519" d="M964,0V92a30,30,0,0,0,30,30h286V30a30,30,0,0,0-30-30Z" fill="#5694cc"/>
    <path id="패스_520" data-name="패스 520" d="M946.38,202.62c-7.835-6.294-15.337-13.953-17.7-24.046a39.245,39.245,0,0,1-.53-13.317,61.673,61.673,0,0,1,2.965-14A89,89,0,0,1,937.2,138.5c2.143-3.838,4.466-7.286,8.163-9.806,8.564-5.839,19.995-6.65,30.048-6.245a108.192,108.192,0,0,1,17.621,2.065c6.165,1.284,12.209,3.645,16.574,8.343,3.812,4.1,6.646,10.634,4.169,16.134-1.507,3.346-4.62,4.037-7.995,3.512a36.449,36.449,0,0,1-8.039-2.254,40.517,40.517,0,0,1-22.662-23.319,39.894,39.894,0,0,1,3.11-32.82,38.8,38.8,0,0,1,11.948-12.95,70.675,70.675,0,0,1,17.765-8.261,115.238,115.238,0,0,1,36.9-5.692c3.4.009,6.8.132,10.2.328.69.04.688-1.033,0-1.072-13.648-.789-27.4-.217-40.659,3.358-12.384,3.339-25.539,8.311-33.7,18.714a41.645,41.645,0,0,0-8.143,33.03c2.143,11.244,9.56,21.117,19.333,26.936a40.168,40.168,0,0,0,8.005,3.652,24.871,24.871,0,0,0,8.67,1.608c6.172-.307,7.9-6.989,6.937-12.119-1.059-5.633-5.065-10.433-9.787-13.48-5.625-3.629-12.416-4.919-18.95-5.752-11.13-1.418-22.891-2.041-33.719,1.474a27.7,27.7,0,0,0-12.581,7.769c-2.935,3.389-4.971,7.682-6.942,11.669-1.086,2.2-2.125,4.425-3.023,6.709a44.923,44.923,0,0,0-1.892,6.72,62.221,62.221,0,0,0-1.781,14.962,33.437,33.437,0,0,0,2.826,12.876,42.79,42.79,0,0,0,8.817,12.355,83.152,83.152,0,0,0,7.209,6.435c.534.429,1.3-.326.76-.76" fill="#ff0"/>
    <path id="패스_521" data-name="패스 521" d="M1064,67a3,3,0,1,1-3-3,3,3,0,0,1,3,3" fill="#a9d8ff"/>
  </g>
</svg>
